<?xml version="1.0" standalone="no"?>
<!DOCTYPE svg PUBLIC "-//W3C//DTD SVG 1.1//EN" "http://www.w3.org/Graphics/SVG/1.1/DTD/svg11.dtd">
<svg xmlns="http://www.w3.org/2000/svg">
<metadata>Generated by Fontastic.me</metadata>
<defs>
<font id="sf-icon" horiz-adv-x="512">
<font-face font-family="sf-icon" units-per-em="512" ascent="480" descent="-32"/>
<missing-glyph horiz-adv-x="512" />

<glyph glyph-name="activity" unicode="&#97;" d="M463 206l-53 0c1 5 2 11 2 16l0 45c0 18-11 34-26 42-7 18-24 30-43 30-20 0-37-12-43-30-3-1-6-3-8-5-5 12-16 20-29 20l-41 0-2 7c19 11 32 29 35 50 5 1 8 5 9 9l3 58c0 1 0 1 0 1l0 3c0 1 0 2 0 2 0 17-7 32-20 43-12 11-29 16-46 15 0 0 0 0 0 0 0 0-40-5-64-7-6 0-18-3-25-20-3-8-5-19-5-30l0-13c0 0 0 0 0 0l3-52c1-4 4-8 9-9 3-21 16-39 35-50l-2-7-40 0c-17 0-31-14-31-30l0-88-32 0c-6 0-10-5-10-10l0-186c0-6 4-10 10-10l414 0c6 0 10 4 10 10l0 186c0 5-4 10-10 10z m-62-20l52 0 0-14-63 0c4 4 8 9 11 14z m-84 109c0 0 0 0 0 0 0 1 0 1 0 1 0 0 0 1 0 1 0 0 0 0 0 1 0 0 0 0 0 0 0 0 0 1 1 1 2 12 12 20 25 20 12 0 22-8 25-20 0 0 0-1 0-1 0 0 0 0 0 0 0-1 0-1 0-1 0-1 0-1 0-1 0 0 0 0 0-1 0 0 0 0 0 0 0-1 0-1 0-2 0-14-11-25-25-25-15 0-26 11-26 25 0 1 0 1 0 2z m-23-28c0 6 1 11 4 15 0 0 0 0 0 0 0 0 0 0 0 0 1-1 1-1 1-2 0 0 0 0 0-1 0 0 0 0 1-1 0 0 0 0 0-1 0 0 0 0 0-1 0 0 0 0 1-1 0 0 0 0 0-1 0 0 0 0 0 0 1-1 1-2 1-2 0 0 0 0 0 0 1-1 1-2 1-2 1 0 1 0 1-1 0 0 0 0 1-1 0 0 0 0 0 0 0-1 0-1 1-2 0 0 0 0 0 0 0-1 1-1 1-1 0 0 0-1 0-1 1 0 1-1 2-1 0 0 0 0 0 0 0-1 1-1 1-2 0 0 0 0 1 0 0-1 0-1 1-1 0 0 0-1 0-1 1 0 1 0 1-1 0 0 1 0 1 0 0 0 1-1 1-1 0 0 0 0 0 0 1-1 1-1 2-1 0 0 0 0 0-1 1 0 1 0 2-1 0 0 0 0 0 0 1 0 1 0 2-1 0 0 0 0 0 0 1 0 1 0 2-1 0 0 0 0 0 0 1 0 1 0 1-1 1 0 1 0 1 0 1 0 1 0 1 0 1 0 1-1 1-1 1 0 1 0 2 0 0 0 0 0 0 0 1 0 1-1 2-1 0 0 0 0 1 0 0 0 1 0 1 0 0 0 1 0 1 0 0-1 1-1 1-1 1 0 1 0 1 0 1 0 1 0 1 0 1 0 1 0 1 0 1 0 1 0 2 0 0 0 0 0 0 0 1 0 2 0 3 0 0 0 1 0 2 0 0 0 0 0 1 0 0 0 1 0 1 0 0 0 1 0 1 0 0 0 1 0 1 0 0 0 1 0 1 0 0 0 1 0 1 1 1 0 1 0 1 0 1 0 1 0 2 0 0 0 0 0 0 0 1 0 2 1 2 1 0 0 0 0 1 0 0 0 1 0 1 0 0 0 1 1 1 1 0 0 1 0 1 0 0 0 1 0 1 0 0 1 1 1 1 1 0 0 1 0 1 0 0 1 1 1 1 1 0 0 0 0 1 0 0 1 1 1 1 1 0 0 0 0 0 0 1 1 2 1 2 1 0 1 0 1 1 1 0 0 0 0 1 1 0 0 0 0 0 0 1 0 1 1 1 1 1 0 1 0 1 0 0 1 1 1 1 1 0 0 0 1 1 1 0 0 0 0 1 1 0 0 0 0 0 0 1 1 1 1 1 2 1 0 1 0 1 0 0 0 1 1 1 1 0 0 0 1 0 1 1 0 1 0 1 1 0 0 0 0 1 0 0 1 0 1 0 2 0 0 1 0 1 0 0 1 0 1 1 1 0 1 0 1 0 1 0 0 0 1 1 1 0 1 0 1 0 1 0 0 1 1 1 2 0 0 0 0 0 0 0 1 1 1 1 1 0 1 0 1 0 1 0 1 0 1 1 1 0 1 0 1 0 1 0 1 0 1 0 1 0 1 0 1 0 1 1 1 1 1 1 2 0 0 0 0 0 0 0 0 0 0 0 0 3-4 5-9 5-15l0-45c0-7-2-15-5-21 0-1 0-1 0-1-5-8-12-15-20-20 0 0 0 0 0 0-1-1-1-1-2-1 0 0 0 0 0 0 0 0-1-1-2-1l-41 0c-1 0-1 1-2 1 0 0 0 0 0 0-1 0-1 0-2 1 0 0 0 0 0 0-8 5-15 12-19 20 0 0 0 0 0 1-4 6-5 14-5 21z m67-125l-37 0 5 16 27 0z m-98 162c5 0 10-5 11-11l0-87-72 0 17 17c2 3 3 6 3 9l-8 68 6 4z m-129 138l0-8c0-6-1-16-3-23 0 0-1-1-1-1 0 0 0 0 0 0 0-1 0-2-1-2l-2 35 0 12 0 0c0 14 4 30 11 30 25 2 62 6 65 7 11 1 23-3 31-10 8-7 13-17 13-28 0-1 0-1 0-2l0-3-2-36c0 1 0 1 0 1 0 1 0 1 0 2 0 1-1 1-1 2 0 1 0 1 0 2 0 0 0 1 0 2 0 0 0 1 0 2 0 0 0 1 0 1-1 1-1 2-1 3 0 0 0 0 0 0 0 3 0 5 0 8-1 3-1 6-2 8-2 5-7 8-12 7l-11-2c-20-6-42-5-62 0l-9 2c-3 1-6 1-9-1-2-2-4-5-4-8z m4-55c2 1 3 3 4 4 0 0 0 0 0 0 7 9 11 22 12 38 2 0 3-1 4-1 2 0 3-1 4-1 0 0 0 0 1 0 10-2 20-2 30-2 0 0 0 0 0 0 1 0 2 0 3 0 0 0 1 0 1 0 1 0 1 0 1 0 7 1 14 2 21 3 1 0 3 1 4 1 0-1 0-2 0-3 1-1 1-3 1-4 0-1 0-1 0-1 1-7 2-15 4-22 2-3 3-5 5-7 0-1 0-1 0-1 0 0 1-1 1-1 0 0 0-1 1-1 0 0 0 0 0-1 1 0 1 0 1 0-1-19-13-35-31-42-5-2-7-7-6-12l4-17-16-12-11 8-5 4 4 17c1 5-1 10-6 12-17 7-29 23-31 41z m63-153l-14-14-14 14 6 53 2-2c1 0 1-1 2-1 0 0 0 0 0 0 3-1 5-1 8 0 1 0 1 1 2 1l2 2z m-100 60c0 5 5 10 11 10l42 0 6-4-7-68c-1-3 0-6 2-9l18-17-72 0 0 88z m137-194l0-80-179 0 0 166 225 0c3-5 7-10 11-14l-172 0c-5 0-10-5-10-10 0-6 5-10 10-10l183 0-2-10-23 0c-24 0-43-19-43-42z m189-80l-169 0 0 80c0 12 10 22 23 22l123 0c13 0 23-10 23-22z m26 0l-6 0 0 80c0 23-19 42-43 42l-22 0-3 10 74 0 0-132z m-357 144c-1 0-1 1-1 2 0 0-1 1-1 1 0 1-1 1-1 2-1 0-1 1-2 1 0 1-1 1-1 1-1 0-2 1-2 1-2 0-3 0-4 0-1 0-1-1-2-1-1 0-1 0-2-1 0 0-1-1-1-1-1-1-1-1-1-2-1 0-1-1-1-1-1-1-1-2-1-2 0-1 0-1 0-2 0-3 1-5 3-7 0-1 1-1 1-1 1-1 1-1 2-1 1-1 1-1 2-1 1 0 1 0 2 0 0 0 1 0 2 0 0 0 1 0 2 1 0 0 1 0 1 1 1 0 1 0 2 1 2 2 3 4 3 7 0 1 0 1 0 2z"/>
<glyph glyph-name="area" unicode="&#98;" d="M90 236c-6 0-10-4-10-10 0-6 4-10 10-10 6 0 10 4 10 10 0 6-4 10-10 10z m418 158l-55 47c0 0 0 0-1 0-5 3-10 5-16 5l-130 0 0 26c0 22-18 40-40 40-22 0-40-18-40-40l0-26-10 0c-17 0-30-13-30-30l0-60c0-17 13-30 30-30l10 0 0-40-150 0c-6 0-11-2-16-5-1 0-1 0-1 0l-55-47c-3-2-4-5-4-8 0-3 1-6 4-8l55-47c0 0 0 0 1 0 5-3 10-5 16-5l150 0 0-106-30 0c-17 0-30-13-30-30l0-20c0-6 4-10 10-10l180 0c6 0 10 4 10 10l0 20c0 17-13 30-30 30l-30 0 0 108c12 4 20 15 20 28l0 60c0 13-8 24-20 28l0 42 130 0c6 0 11 2 16 5 1 0 1 0 1 0l55 47c3 2 4 5 4 8 0 3-1 6-4 8z m-262 78c0 11 9 20 20 20 11 0 20-9 20-20l0-26-40 0z m90-432c6 0 10-4 10-10l0-10-160 0 0 10c0 6 4 10 10 10z m-90 20l0 106 40 0 0-106z m60 136c0-6-4-10-10-10l-220 0c-2 0-4 0-5 1l-46 39 46 39c1 1 3 1 5 1l220 0c6 0 10-4 10-10z m-60 90l0 40 40 0 0-40z m195 61c-1-1-3-1-5-1l-220 0c-6 0-10 4-10 10l0 60c0 6 4 10 10 10l220 0c2 0 4 0 5-1l46-39z m-59 49l-146 0c-6 0-10-4-10-10 0-6 4-10 10-10l146 0c6 0 10 4 10 10 0 6-4 10-10 10z m40 0c-6 0-10-4-10-10 0-6 4-10 10-10 6 0 10 4 10 10 0 6-4 10-10 10z m-146-160l-146 0c-6 0-10-4-10-10 0-6 4-10 10-10l146 0c6 0 10 4 10 10 0 6-4 10-10 10z"/>
<glyph glyph-name="attendance" unicode="&#99;" d="M465 448l-49 0 0 17c0 8-7 15-15 15-9 0-15-7-15-15l0-17-67 0 0 17c0 8-7 15-15 15-8 0-15-7-15-15l0-17-66 0 0 17c0 8-7 15-15 15-8 0-15-7-15-15l0-17-67 0 0 17c0 8-6 15-15 15-8 0-15-7-15-15l0-17-49 0c-26 0-47-21-47-47l0-322c0-26 21-47 47-47l418 0c26 0 47 21 47 47l0 322c0 26-21 47-47 47z m17-369c0-9-8-17-17-17l-418 0c-9 0-17 8-17 17l0 322c0 9 8 17 17 17l49 0 0-17c0-9 7-15 15-15 9 0 15 6 15 15l0 17 67 0 0-17c0-9 7-15 15-15 8 0 15 6 15 15l0 17 66 0 0-17c0-9 7-15 15-15 8 0 15 6 15 15l0 17 67 0 0-17c0-9 6-15 15-15 8 0 15 6 15 15l0 17 49 0c9 0 17-8 17-17z m-355 64l-32 0c-8 0-15-7-15-15 0-9 7-15 15-15l32 0c9 0 15 6 15 15 0 8-6 15-15 15z m97 0l-32 0c-9 0-15-7-15-15 0-9 6-15 15-15l32 0c8 0 15 6 15 15 0 8-7 15-15 15z m-97 96l-32 0c-8 0-15-7-15-15 0-8 7-15 15-15l32 0c9 0 15 7 15 15 0 8-6 15-15 15z m97 0l-32 0c-9 0-15-7-15-15 0-8 6-15 15-15l32 0c8 0 15 7 15 15 0 8-7 15-15 15z m64-30l32 0c9 0 15 7 15 15 0 8-6 15-15 15l-32 0c-8 0-15-7-15-15 0-8 7-15 15-15z m129 30l-32 0c-9 0-15-7-15-15 0-8 6-15 15-15l32 0c8 0 15 7 15 15 0 8-7 15-15 15z m-290 96l-32 0c-8 0-15-6-15-15 0-8 7-15 15-15l32 0c9 0 15 7 15 15 0 9-6 15-15 15z m97 0l-32 0c-9 0-15-6-15-15 0-8 6-15 15-15l32 0c8 0 15 7 15 15 0 9-7 15-15 15z m64-30l32 0c9 0 15 7 15 15 0 9-6 15-15 15l-32 0c-8 0-15-6-15-15 0-8 7-15 15-15z m129 30l-32 0c-9 0-15-6-15-15 0-8 6-15 15-15l32 0c8 0 15 7 15 15 0 9-7 15-15 15z m-70-165c-6 6-15 6-21 0l-14-13-13 13c-6 6-16 6-21 0-6-6-6-15 0-21l13-13-13-14c-6-6-6-15 0-21 2-3 6-4 10-4 4 0 8 1 11 4l13 13 14-13c3-3 6-4 10-4 4 0 8 1 11 4 6 6 6 15 0 21l-14 14 14 13c6 6 6 15 0 21z"/>
<glyph glyph-name="avatar" unicode="&#100;" d="M254 236c1 0 1 0 2 0 0 0 0 0 0 0 1 0 1 0 2 0 31 1 56 12 74 32 41 46 34 125 34 133-3 56-30 83-52 96-16 9-35 15-57 15l-1 0c0 0 0 0 0 0l-1 0c-11 0-35-2-57-15-22-12-49-39-52-96-1-8-7-87 34-133 18-20 43-31 74-32z m-79 162c0 1 0 1 0 1 3 76 57 84 80 84l1 0c0 0 0 0 0 0 29 0 78-12 81-84 0 0 0-1 0-1 0-1 8-73-26-111-13-15-31-22-55-22 0 0 0 0 0 0 0 0 0 0-1 0-23 0-41 7-54 22-34 38-27 111-26 111z m299-293c0 0 0 0 0 1 0 0 0 1 0 2-1 21-2 70-48 86-1 0-1 0-1 0-48 13-88 40-88 40-7 5-16 3-20-3-5-7-3-15 3-20 2-1 44-31 97-44 25-9 27-35 28-60 0-1 0-1 0-2 0-10 0-25-2-33-17-10-85-43-187-43-102 0-170 33-187 43-2 9-2 23-2 33 0 1 0 2 0 3 1 24 3 50 28 59 53 13 95 43 97 44 6 5 8 14 3 20-4 6-13 8-20 4 0-1-39-28-88-41 0 0 0 0-1 0-46-16-47-65-48-86 0-1 0-1 0-2 0 0 0-1 0-1 0-5 0-33 6-48 1-2 3-5 5-6 3-2 80-51 207-51 128 0 204 49 207 51 3 1 5 4 6 6 5 14 5 43 5 48z"/>
<glyph glyph-name="back" unicode="&#101;" d="M149 352l0 64-149-149 149-150 0 64-85 86z m128-21l0 85-149-149 149-150 0 88c107 0 182-34 235-109-21 107-85 213-235 235z"/>
<glyph glyph-name="bank1" unicode="&#102;" d="M248 392c-4 0-8 4-8 8l-16 0c0-13 11-24 24-24l0-16 16 0 0 16 24 0 0 24c0 13-11 24-24 24l-16 0c-4 0-8 4-8 8l0 8 24 0c4 0 8-4 8-8l16 0c0 13-11 24-24 24l0 16-16 0 0-16-24 0 0-24c0-13 11-24 24-24l16 0c4 0 8-4 8-8l0-8z m240-96l16 0 0 84-229 119c-12 6-26 6-38 0l-229-119 0-84 16 0 0-32 15 0-15-154 11-22-11 0 0-32c-9 0-16-7-16-16l0-16c0-9 7-16 16-16l464 0c9 0 16 7 16 16l0 16c0 9-7 16-16 16l0 32-11 0 11 22-15 154 15 0z m-112-186l11-22-11 0 0-32-240 0 0 32-11 0 11 22-15 154 15 0 0 32 240 0 0-32 15 0z m16 170l0 16 80 0 0-16z m-368 32l0 16 464 0 0-16z m221 173c7 4 15 4 22 0l221-115 0-26-464 0 0 26z m-125-189l0-16-80 0 0 16z m-15-32l14-144-78 0 14 144z m-60-160l70 0-8-16-54 0z m-5-32l80 0 0-16-80 0z m448-48l-464 0 0 16 464 0z m-96 32l0 16 80 0 0-16z m13 32l-8 16 70 0-8-16z m66 32l-78 0 14 144 50 0z"/>
<glyph glyph-name="battery" unicode="&#103;" d="M382 458l-31 0 0 26c0 16-12 28-27 28l-136 0c-15 0-27-12-27-28l0-26-31 0c-23 0-41-19-41-42l0-374c0-23 18-42 41-42l252 0c23 0 41 19 41 42l0 374c0 23-18 42-41 42z m-164-397l25 118c0 0 0 1-1 2 0 1-1 1-2 1l-44 0 97 148-24-111c-1-1 0-2 0-3 1 0 2-1 3-1l44 0z m164 320l-252 0 0 35 252 0z"/>
<glyph glyph-name="battery-1" unicode="&#104;" d="M128 0l256 0c19 0 35 16 35 35l0 396c0 19-16 34-35 34l-47 0 0 24c0 13-10 23-23 23l-116 0c-13 0-24-10-24-23l0-24-46 0c-19 0-35-15-35-34l0-396c0-19 16-35 35-35z m-12 431c0 6 6 11 12 11l256 0c6 0 11-5 11-11l0-396c0-6-5-11-11-11l-256 0c-6 0-12 5-12 11l0 396z m24-140l232 0 0-116-232 0z m0-128l232 0 0-116-232 0z"/>
<glyph glyph-name="battery1" unicode="&#105;" d="M358 488l-38 0 0 4c0 11-9 20-20 20l-88 0c-11 0-20-9-20-20l0-4-38 0c-33 0-60-26-60-59l0-370c0-32 27-59 60-59l204 0c33 0 60 27 60 59l0 370c0 33-27 59-60 59z m16-429c0-8-7-15-16-15l-204 0c-9 0-16 7-16 15l0 370c0 9 7 15 16 15l204 0c9 0 16-6 16-15z m-194 103l152 0 0-69-152 0z"/>
<glyph glyph-name="bill" unicode="&#106;" d="M475 266l-74 0 0 236c0 4-2 8-6 9-4 2-8 1-11-2l-28-28-29 28c-4 4-10 4-14 0l-28-28-29 28c-3 4-10 4-14 0l-28-28-28 28c-4 4-11 4-14 0l-29-28-28 28c-4 4-10 4-14 0l-29-28-28 28c-4 4-10 4-14 0-2-2-3-5-3-7l0-450c0-29 23-52 52-52l354 0c0 0 0 0 0 0 0 0 0 0 0 0 29 0 52 23 52 52l0 204c0 6-4 10-10 10z m-396-246c-18 0-32 14-32 32l0 426 18-18c4-4 11-4 14 0l29 28 28-28c4-4 10-4 14 0l29 28 28-28c4-4 10-4 14 0l28 28 29-28c4-4 10-4 14 0l28 28 29-28c3-4 10-4 14 0l18 18 0-222c0 0 0 0 0 0l0-204c0-12 4-23 11-32z m386 32c0-18-14-32-32-32-18 0-32 14-32 32l0 194 64 0z m-251 301c-10 0-18 7-18 16 0 8 8 15 18 15 10 0 18-7 18-15 0-6 4-10 10-10 6 0 10 4 10 10 0 16-12 30-28 34l0 6c0 6-4 10-10 10-6 0-10-4-10-10l0-6c-16-4-28-18-28-34 0-20 17-36 38-36 10 0 18-7 18-15 0-9-8-16-18-16-10 0-18 7-18 16 0 5-4 10-10 10-6 0-10-5-10-10 0-17 12-30 28-34l0-9c0-5 4-10 10-10 6 0 10 5 10 10l0 9c16 4 28 17 28 34 0 19-17 35-38 35z m100 0l-19 0c-6 0-10-4-10-10 0-5 4-10 10-10l19 0c6 0 10 5 10 10 0 6-4 10-10 10z m-181 0l-19 0c-6 0-10-4-10-10 0-5 4-10 10-10l19 0c6 0 10 5 10 10 0 6-4 10-10 10z m187-111l-159 0c-5 0-10-4-10-10 0-6 5-10 10-10l159 0c5 0 10 4 10 10 0 6-5 10-10 10z m-204-3c-2 2-5 3-8 3-2 0-5-1-7-3-1-2-3-4-3-7 0-3 2-5 3-7 2-2 5-3 7-3 3 0 6 1 8 3 1 2 2 4 2 7 0 3-1 5-2 7z m204-63l-159 0c-5 0-10-4-10-10 0-6 5-10 10-10l159 0c5 0 10 4 10 10 0 6-5 10-10 10z m-204-3c-2 2-5 3-8 3-2 0-5-1-7-3-1-2-3-4-3-7 0-3 2-5 3-7 2-2 5-3 7-3 3 0 6 1 8 3 1 2 2 4 2 7 0 3-1 5-2 7z m204-63l-159 0c-5 0-10-4-10-10 0-6 5-10 10-10l159 0c5 0 10 4 10 10 0 6-5 10-10 10z m-204-3c-2 2-5 3-8 3-2 0-5-1-7-3-1-2-3-4-3-7 0-3 2-5 3-7 2-2 5-3 7-3 3 0 6 1 8 3 1 2 2 4 2 7 0 3-1 5-2 7z"/>
<glyph glyph-name="cal-complete" unicode="&#107;" d="M400 301c0-11-8-19-19-19-10 0-19 8-19 19 0 10 9 19 19 19 11 0 19-9 19-19z m25 161l-25 0 0 19c0 11-8 19-19 19-10 0-19-8-19-19l0-19-86 0 0 19c0 11-9 19-19 19-11 0-19-8-19-19l0-19-86 0 0 19c0 11-9 19-19 19-11 0-19-8-19-19l0-19-24 0c-42 0-76-34-76-76l0-297c0-42 34-76 76-76l146 0c10 0 19 9 19 19 0 11-9 19-19 19l-146 0c-21 0-38 17-38 38l0 297c0 21 17 38 38 38l24 0 0-19c0-10 8-19 19-19 10 0 19 9 19 19l0 19 86 0 0-19c0-10 8-19 19-19 10 0 19 9 19 19l0 19 86 0 0-19c0-10 9-19 19-19 11 0 19 9 19 19l0 19 25 0c21 0 38-17 38-38l0-108c0-11 9-19 19-19 11 0 19 8 19 19l0 108c0 42-34 76-76 76z m-107-161c0-11-9-19-19-19-11 0-19 8-19 19 0 10 8 19 19 19 10 0 19-9 19-19z m-83-83c0-11-9-19-19-19-11 0-19 8-19 19 0 10 8 19 19 19 10 0 19-9 19-19z m-83 83c0-11-8-19-19-19-10 0-19 8-19 19 0 10 9 19 19 19 11 0 19-9 19-19z m0-83c0-11-8-19-19-19-10 0-19 8-19 19 0 10 9 19 19 19 11 0 19-9 19-19z m0-83c0-10-8-19-19-19-10 0-19 9-19 19 0 11 9 19 19 19 11 0 19-8 19-19z m83 0c0-10-9-19-19-19-11 0-19 9-19 19 0 11 8 19 19 19 10 0 19-8 19-19z m0 166c0-11-9-19-19-19-11 0-19 8-19 19 0 10 8 19 19 19 10 0 19-9 19-19z m152-59c-63 0-115-51-115-114 0-63 52-115 115-115 63 0 114 52 114 115 0 63-51 114-114 114z m63-76l-70-79c-2-2-4-3-7-3-2 0-4 0-5 2l-44 35c-4 3-5 8-2 12 3 4 9 4 13 1l37-29 65 73c3 3 9 4 13 0 3-3 4-9 0-12z"/>
<glyph glyph-name="cal-notification" unicode="&#108;" d="M401 300c0-11-8-20-19-20-11 0-19 9-19 20 0 10 8 19 19 19 11 0 19-9 19-19z m26 165l-26 0 0 19c0 11-8 20-19 20-11 0-19-9-19-20l0-19-89 0 0 19c0 11-8 20-19 20-11 0-19-9-19-20l0-19-88 0 0 19c0 11-9 20-19 20-11 0-20-9-20-20l0-19-24 0c-43 0-78-35-78-78l0-303c0-43 35-77 78-77l149 0c10 0 19 8 19 19 0 11-9 19-19 19l-149 0c-21 0-39 18-39 39l0 303c0 22 18 39 39 39l24 0 0-19c0-11 9-20 20-20 11 0 19 9 19 20l0 19 88 0 0-19c0-11 8-20 19-20 11 0 19 9 19 20l0 19 89 0 0-19c0-11 8-20 19-20 11 0 19 9 19 20l0 19 26 0c21 0 38-17 38-39l0-111c0-10 9-19 20-19 10 0 19 9 19 19l0 111c0 43-34 78-77 78z m-110-165c0-11-9-20-19-20-11 0-20 9-20 20 0 10 9 19 20 19 10 0 19-9 19-19z m-84-85c0-10-9-19-20-19-10 0-19 9-19 19 0 11 9 20 19 20 11 0 20-9 20-20z m-85 85c0-11-9-20-19-20-11 0-20 9-20 20 0 10 9 19 20 19 10 0 19-9 19-19z m0-85c0-10-9-19-19-19-11 0-20 9-20 19 0 11 9 20 20 20 10 0 19-9 19-20z m0-84c0-11-9-19-19-19-11 0-20 8-20 19 0 11 9 19 20 19 10 0 19-8 19-19z m85 0c0-11-9-19-20-19-10 0-19 8-19 19 0 11 9 19 19 19 11 0 20-8 20-19z m0 169c0-11-9-20-20-20-10 0-19 9-19 20 0 10 9 19 19 19 11 0 20-9 20-19z m142-61c-34-7-60-35-60-69l0-57c0-8-3-16-10-22l-19-18c-3-2-5-6-5-10 0-10 8-17 18-17l59 0 0-8c0-17 15-31 34-31 19 0 34 14 34 31l0 8 59 0c10 0 18 7 18 17 0 4-2 8-5 10l-19 18c-6 6-10 14-10 22l0 55c0 33-25 63-60 71 0 0-20 3-34 0z"/>
<glyph glyph-name="cal-upcoming" unicode="&#109;" d="M402 300c0-10-9-19-20-19-10 0-19 9-19 19 0 11 9 20 19 20 11 0 20-9 20-20z m25 165l-25 0 0 19c0 11-9 20-20 20-10 0-19-9-19-20l0-19-88 0 0 19c0 11-8 20-19 20-11 0-20-9-20-20l0-19-87 0 0 19c0 11-8 20-19 20-11 0-19-9-19-20l0-19-25 0c-42 0-77-35-77-77l0-302c0-43 35-78 77-78l148 0c11 0 20 9 20 20 0 10-9 19-20 19l-148 0c-21 0-38 18-38 39l0 301c0 22 17 39 38 39l25 0 0-19c0-11 8-20 19-20 11 0 19 9 19 20l0 19 87 0 0-19c0-11 9-20 20-20 10 0 19 9 19 20l0 19 88 0 0-19c0-11 9-20 20-20 10 0 19 9 19 20l0 19 25 0c21 0 39-17 39-39l0-110c0-10 8-19 19-19 11 0 20 8 20 19l0 110c-1 43-35 78-78 78z m-109-165c0-10-9-19-20-19-10 0-19 9-19 19 0 11 9 20 19 20 11 0 20-9 20-20z m-84-84c0-10-9-19-20-19-11 0-19 9-19 19 0 11 8 20 19 20 11 0 20-9 20-20z m-85 84c0-10-8-19-19-19-11 0-19 9-19 19 0 11 8 20 19 20 11 0 19-9 19-20z m0-84c0-10-8-19-19-19-11 0-19 9-19 19 0 11 8 20 19 20 11 0 19-9 19-20z m0-84c0-11-8-19-19-19-11 0-19 8-19 19 0 11 8 19 19 19 11 0 19-8 19-19z m85 0c0-11-9-19-20-19-11 0-19 8-19 19 0 11 8 19 19 19 11 0 20-8 20-19z m0 168c0-10-9-19-20-19-11 0-19 9-19 19 0 11 8 20 19 20 11 0 20-9 20-20z m154-59c-64 0-116-52-116-116 0-65 52-117 116-117 64 0 116 52 116 117 0 64-52 116-116 116z m0-206c-49 0-89 40-89 90 0 49 40 89 89 89 49 0 89-40 89-89 0-50-40-90-89-90z m0 169c0 0 0 0 0 0l0-79-79 0c0 0 0 0 0 0 0-44 35-80 79-80 44 0 79 36 79 80 0 43-35 79-79 79z"/>
<glyph glyph-name="calendar" unicode="&#110;" d="M500 291c-7 0-11-5-11-12l0-128c0-13-11-23-24-23l-23 0c-20 0-35-15-35-35l0-23c0-13-10-23-23-23l-349 0c-7 0-12 4-12 11l0 221c0 7-4 12-11 12-7 0-12-5-12-12l0-221c0-20 15-35 35-35l364 0c15 0 30 6 41 18l55 54c10 11 17 26 17 41l0 143c0 7-5 12-12 12z m-71-229c0 2 2 4 2 8l0 23c0 7 4 12 11 12l23 0c3 0 5 0 9 1z m48 392l-81 0 0 23c0 7-5 12-12 12-7 0-12-5-12-12l0-23-232 0 0 23c0 7-5 12-12 12-7 0-12-5-12-12l0-23-81 0c-20 0-35-15-35-35l0-93c0-7 5-12 12-12l488 0c7 0 12 5 12 12l0 93c0 20-15 35-35 35z m12-117l-466 0 0 82c0 7 5 12 12 12l81 0 0-27c-7-4-11-12-11-20 0-13 10-23 23-23 13 0 23 10 23 23 0 8-4 16-11 20l0 27 232 0 0-27c-7-4-11-12-11-20 0-13 10-23 23-23 13 0 23 10 23 23 0 8-4 16-11 20l0 27 81 0c7 0 12-5 12-12z m-256-93c0-12-11-23-24-23-12 0-23 11-23 23 0 13 11 24 23 24 13 0 24-11 24-24z m93 0c0-12-11-23-23-23-13 0-24 11-24 23 0 13 11 24 24 24 12 0 23-11 23-24z m93 0c0-12-11-23-23-23-13 0-24 11-24 23 0 13 11 24 24 24 12 0 23-11 23-24z m-279-104c0-13-11-24-24-24-12 0-23 11-23 24 0 12 11 23 23 23 13 0 24-11 24-23z m93 0c0-13-11-24-24-24-12 0-23 11-23 24 0 12 11 23 23 23 13 0 24-11 24-23z m93 0c0-13-11-24-23-24-13 0-24 11-24 24 0 12 11 23 24 23 12 0 23-11 23-23z"/>
<glyph glyph-name="calendar-1" unicode="&#111;" d="M469 464l-69 0 0 32c0 9-7 16-16 16-9 0-16-7-16-16l0-32-96 0 0 32c0 9-7 16-16 16-9 0-16-7-16-16l0-32-96 0 0 32c0 9-7 16-16 16-9 0-16-7-16-16l0-32-69 0c-24 0-43-19-43-43l0-378c0-24 19-43 43-43l426 0c24 0 43 19 43 43l0 378c0 24-19 43-43 43z m11-421c0-6-5-11-11-11l-426 0c-6 0-11 5-11 11l0 378c0 6 5 11 11 11l69 0 0-32c0-9 7-16 16-16 9 0 16 7 16 16l0 32 96 0 0-32c0-9 7-16 16-16 9 0 16 7 16 16l0 32 96 0 0-32c0-9 7-16 16-16 9 0 16 7 16 16l0 32 69 0c6 0 11-5 11-11z m-368 277l64 0 0-48-64 0z m0-80l64 0 0-48-64 0z m0-80l64 0 0-48-64 0z m112 0l64 0 0-48-64 0z m0 80l64 0 0-48-64 0z m0 80l64 0 0-48-64 0z m112-160l64 0 0-48-64 0z m0 80l64 0 0-48-64 0z m0 80l64 0 0-48-64 0z"/>
<glyph glyph-name="calendar1" unicode="&#112;" d="M483 428c-8 7-16 11-26 11l-37 0 0 27c0 13-4 24-13 33-9 9-20 13-32 13l-19 0c-12 0-23-4-32-13-9-9-13-20-13-33l0-27-110 0 0 27c0 13-4 24-13 33-9 9-20 13-33 13l-18 0c-13 0-23-4-32-13-9-9-14-20-14-33l0-27-36 0c-10 0-19-4-26-11-7-7-11-16-11-26l0-365c0-10 4-19 11-26 7-7 16-11 26-11l402 0c10 0 18 4 26 11 7 7 10 16 10 26l0 365c0 10-3 19-10 26z m-136 38c0 3 1 5 3 7 1 2 4 2 6 2l19 0c2 0 4 0 6-2 2-2 3-4 3-7l0-82c0-3-1-5-3-6-2-2-4-3-6-3l-19 0c-2 0-5 1-6 3-2 1-3 3-3 6z m-219 0c0 3 1 5 2 7 2 2 4 2 7 2l18 0c3 0 5 0 7-2 2-2 2-4 2-7l0-82c0-3 0-5-2-6-2-2-4-3-7-3l-18 0c-3 0-5 1-7 3-1 1-2 3-2 6z m329-429l-402 0 0 292 402 0z"/>
<glyph glyph-name="call" unicode="&#113;" d="M501 107l-79 79c-16 16-42 16-59-1l-39-40c-3 2-6 3-8 5-25 14-60 33-96 69-36 36-56 71-70 96-1 3-2 5-4 8l27 27 13 13c16 16 17 42 1 58l-79 79c-16 16-42 15-58-1l-22-23 0 0c-7-10-14-21-18-33-4-11-7-22-8-32-11-87 29-166 136-273 149-149 268-138 273-137 12 1 22 4 33 8 12 5 23 11 33 18l0 0 23 22c16 16 16 43 1 58z"/>
<glyph glyph-name="call-1" unicode="&#114;" d="M471 176c-31 0-62 5-91 14-15 5-31 2-41-8l-58-44c-66 36-107 77-143 143l43 57c11 10 15 26 10 41-10 30-15 61-15 92 0 23-18 41-41 41l-94 0c-23 0-41-18-41-41 0-260 211-471 471-471 23 0 41 18 41 41l0 94c0 22-18 41-41 41z m13-135c0-7-6-13-13-13-244 0-443 199-443 443 0 7 6 13 13 13l94 0c7 0 13-6 13-13 0-34 5-68 16-100 1-5 0-10-5-15l-49-65c-3-4-3-10-1-15 40-78 88-127 167-167 5-2 11-2 15 1l67 51c3 3 8 4 13 3 32-11 66-17 100-17 7 0 13-5 13-12z"/>
<glyph glyph-name="campaign-target" unicode="&#115;" d="M30 482l63 0 0 30-93 0 0-92 30 0z m389 30l0-30 63 0 0-62 30 0 0 92z m-389-421l-30 0 0-91 93 0 0 30-63 0z m452-61l-63 0 0-30 93 0 0 91-30 0z m-418 214c-6-4-7-12-3-18l55-82c4-5 12-7 18-3 6 4 7 12 3 18l-55 81c-4 6-12 8-18 4z m181 212l-44-30c-6-4-7-12-3-18l6-9-112-137c-3-4-4-10-1-15l56-82c0 0 1-1 1-1 0 0 0 0 0-1 1 0 1 0 2-1l94-74c4-4 10-4 15-1 1 1 2 2 2 3l35 42c2 3 3 6 2 10 0 3-2 6-4 8l-47 37 83 27 6-10c4-6 12-7 18-3l44 29c5 4 7 12 3 18l-139 204c-3 6-11 8-17 4z m23-318l-18-23-66 52 34 11z m-51 66c0 0 0 0 0 0l-54-17-45 66 101 124 96-141z m156 40l-23-15-4 7-115 169-5 7 23 16z"/>
<glyph glyph-name="campian" unicode="&#116;" d="M267 492c-8 11-22 17-37 17-14 0-28-6-39-17-12-11-17-26-17-40 0-11 2-22 8-31l-105-256c-3 3-12 6-20 6-14 0-29-6-40-17-23-23-23-57 0-77l57-57c11-11 26-17 40-17 14 0 28 6 40 17 11 11 17 26 17 40 0 8-3 14-6 22l54 23 23-23c17-17 37-22 57-22 11 0 20 0 28 3l46 22c14 6 25 17 28 32 3 14-3 28-14 37l-12 11 52 20c8-6 20-9 31-9 14 0 28 6 40 17 23 23 23 57 0 77z m74-310l-125-51-71-29-43 43 103 256 193-193z m-207-142c-6-6-12-9-17-9-6 0-15 3-17 9l-57 57c-9 8-9 25 0 37 8 5 14 8 20 8 5 0 14-3 17-8l57-57c5-6 8-12 8-17-6-9-8-14-11-20z m233 91c3-3 6-6 3-9 0-3-3-5-9-8l-51-23c-14-6-37-3-48 9l-12 11 94 40z m105 79c-6-5-11-8-17-8-6 0-14 3-17 8l-225 225c-5 6-8 12-8 17 0 6 3 14 8 17 6 3 12 9 17 9 6 0 15-3 17-9l225-224c9-6 9-23 0-35z m-45 200c3 0 8 2 11 5l68 69c6 5 6 14 0 19-5 6-14 6-20 0l-68-68c-6-5-6-14 0-20 3-3 6-5 9-5z m-66 45c3 0 9 3 12 6l22 23c6 5 6 14 0 19-5 6-14 6-20 0l-25-22c-6-6-6-15 0-20 3-3 6-6 11-6z m123-62l-23-26c-6-6-6-14 0-20 3-3 5-6 11-6 3 0 9 3 12 6l22 23c6 5 6 14 0 20-8 8-17 8-22 3z"/>
<glyph glyph-name="car" unicode="&#117;" d="M493 281c-9 3-75 17-75 17 0 0-121 69-135 69-15 0-115 0-115 0-24 0-45-18-68-40-11-10-24-21-37-31l-50-7c-8-2-13-9-13-17l0-58c0-10 8-18 18-18l35 0c2-29 27-51 56-51 30 0 54 22 57 51l165 0c3-29 27-51 57-51 29 0 54 22 56 51l29 0c22 0 33 10 36 19 7 23 2 60-16 66z m-384-109c-16 0-29 13-29 29 0 17 13 30 29 30 16 0 30-13 30-30 0-16-14-29-30-29z m109 126l-98 0c7 6 13 12 20 18 16 14 29 27 46 27 0 0 15 0 32 0z m24 45c13 0 23 0 29 0 14 0 69-32 89-45l-118 0z m146-171c-17 0-30 13-30 29 0 17 13 30 30 30 16 0 29-13 29-30 0-16-13-29-29-29z"/>
<glyph glyph-name="car-1" unicode="&#118;" d="M96 235c-29 0-53-24-53-54 0-29 24-53 53-53 29 0 53 24 53 53 0 30-24 54-53 54z m0-86c-18 0-32 15-32 32 0 18 14 32 32 32 18 0 32-14 32-32 0-17-14-32-32-32z m320 86c-29 0-53-24-53-54 0-29 24-53 53-53 29 0 53 24 53 53 0 30-24 54-53 54z m0-86c-18 0-32 15-32 32 0 18 14 32 32 32 18 0 32-14 32-32 0-17-14-32-32-32z m32 150l-18 0c-7 0-13 2-18 6l-84 67c-10 8-22 12-34 12l-154 0c-18 0-34-9-44-24l-18-27c-6-8-15-13-25-13-29 0-53-24-53-53l0-43c0-29 24-53 53-53 6 0 11 4 11 10 0 6-5 11-11 11-17 0-32 14-32 32l0 43c0 17 15 32 32 32 17 0 33 8 42 22l19 27c5 9 15 15 26 15l154 0c8 0 15-3 20-7l84-68c9-7 21-11 32-11l18 0c31 0 43-32 43-53 0-21-16-32-32-32-6 0-11-5-11-11 0-6 5-10 11-10 30 0 53 23 53 53 0 36-22 75-64 75z m-75-107l-234 0c-6 0-11-5-11-11 0-6 5-10 11-10l234 0c6 0 11 4 11 10 0 6-5 11-11 11z m-21 107l-96 0 0 32c0 6-5 10-11 10-6 0-10-4-10-10l0-43c0-6 4-11 10-11l107 0c6 0 11 5 11 11 0 6-5 11-11 11z m-149 0l-68 0 13 27c3 5 1 12-5 14-5 3-11 1-14-5l-21-42c-2-4-2-7 0-11 2-3 6-5 9-5l86 0c6 0 10 5 10 11 0 6-4 11-10 11z m85-43l-21 0c-6 0-11-5-11-11 0-6 5-10 11-10l21 0c6 0 11 4 11 10 0 6-5 11-11 11z"/>
<glyph glyph-name="cart" unicode="&#119;" d="M42 117l20 0c-14-23-10-53 9-73 12-12 27-18 44-18 17 0 32 6 44 18 11 11 18 27 18 43 0 11-3 21-8 30l76 0c-13-23-10-53 10-73 12-12 27-18 44-18 17 0 32 6 44 18 11 11 17 27 17 43 0 11-2 21-8 30l21 0c9 0 16 7 16 16 0 9-7 17-16 17l-314 0 0 31 357 0c7 0 13 5 15 12l54 198c2 4 1 9-2 13-4 4-8 7-13 7l-411 0 0 59c-9 7-17 16-17 16 0 0-16-7-16-16l0-336c0-10 7-17 16-17z m236-9c5 6 13 9 20 9 8 0 16-3 21-9 6-6 9-13 9-21 0-8-3-15-9-20-11-11-30-11-41 0-12 11-12 29 0 41z m-184 0c6 6 13 9 21 9 8 0 15-3 21-9 5-6 8-13 8-21 0-8-3-15-8-20-11-11-30-11-42 0-11 11-11 29-41 29z m-35 271l389 0-45-165-344 0z"/>
<glyph glyph-name="category-icon" unicode="&#120;" d="M452 356l-261 0c-26 0-49 22-49 48 0 26 23 48 49 48l261 0c26 0 49-22 49-48 0-26-20-48-49-48z m-261 76c-17 0-29-11-29-28 0-17 12-29 29-29l261 0c17 0 29 12 29 29 0 17-12 28-29 28z m-83-28c0-27-22-48-48-48-27 0-49 21-49 48 0 27 22 48 49 48 26 0 48-21 48-48z m344-196l-261 0c-26 0-49 22-49 48 0 26 23 48 49 48l261 0c26 0 49-22 49-48 0-26-20-48-49-48z m-261 76c-17 0-29-11-29-28 0-17 12-28 29-28l261 0c17 0 29 11 29 28 0 17-12 28-29 28z m-83-28c0-27-22-48-48-48-27 0-49 21-49 48 0 27 22 48 49 48 26 0 48-21 48-48z m344-196l-261 0c-26 0-49 22-49 48 0 26 23 48 49 48l261 0c26 0 49-22 49-48 0-26-20-48-49-48z m-261 77c-17 0-29-12-29-29 0-17 12-28 29-28l261 0c17 0 29 11 29 28 0 17-12 29-29 29z m-83-29c0-27-22-48-48-48-27 0-49 21-49 48 0 27 22 48 49 48 26 0 48-21 48-48z m-48-23c-6 0-12 6-12 12l0 315c-2 9 6 15 12 15 5 0 11-6 11-12l0-315c-3-9-6-15-11-15z"/>
<glyph glyph-name="chat" unicode="&#121;" d="M207 401c-114 0-207-71-207-159 0-43 22-82 59-111-3-29-10-65-30-84 41 0 82 25 108 45 22-6 45-9 70-9 114 0 207 71 207 159 0 88-93 159-207 159z m275-174c17 23 27 50 27 79 0 88-92 159-207 159-50 0-96-14-132-37 17 3 35 5 53 5 123 0 223-78 223-175 0-38-16-73-42-102 26-20 67-45 108-45-29 27-31 88-30 116z"/>
<glyph glyph-name="cheque" unicode="&#122;" d="M215 335l73 0c6 0 11 5 11 11 0 6-5 11-11 11l-73 0c-6 0-11-5-11-11 0-6 5-11 11-11z m139-45l-139 0c-6 0-11-5-11-11 0-6 5-11 11-11l139 0c6 0 10 5 10 11 0 6-4 11-10 11z m0-67l-139 0c-6 0-11-5-11-11 0-6 5-11 11-11l139 0c6 0 10 5 10 11 0 6-4 11-10 11z m114 176l-17 0 0 17c0 25-20 44-44 45l-363 0c-24 0-44-21-44-45l0-259c0-24 20-43 44-43l17 0 0-18c0-24 20-45 44-45l363 0c24 0 44 21 44 45l0 259c0 25-20 44-44 44z m-39-241c0-13-10-22-22-22l-363 0c-12 0-22 9-22 22l0 259c0 12 10 22 22 22l363 0c12 0 22-10 22-22z m61-62c0-12-10-23-22-23l-363 0c-12 0-22 11-22 23l0 18 324 0c24 0 44 19 44 43l0 220 17 0c12 0 22-9 22-22z m-371 223c11 0 19-9 19-20 0-6 5-10 11-10 6 0 11 4 11 10 0 19-13 36-31 40l0 11c0 6-5 11-11 11-6 0-11-5-11-11l0-11c-19-6-31-26-28-46 3-20 20-35 40-35 11 0 19-8 19-19 0-10-8-19-19-19-10 0-19 9-19 19 0 6-5 11-11 11-6 0-11-5-11-11 0-18 12-34 29-39l0-9c0-6 5-10 11-10 6 0 11 4 11 10l0 8c20 5 34 25 31 45-3 21-20 36-41 36-10 0-19 9-19 19 0 11 9 20 19 20z"/>
<glyph glyph-name="competitor" unicode="&#65;" d="M509 156l-24 24c-4 4-11 4-15 0-3-4-3-10 1-14l24-24c2-2 4-3 7-3 3 0 5 1 7 3 4 4 4 10 0 14z m-49 49c-4 4-10 4-14 0l0 0c-4-4-4-10 0-14 2-2 4-3 7-3 2 0 5 1 7 3 4 4 4 10 0 14z m-86-46l98 97c14 15 14 39 0 53-6 6-12 9-19 10 3 5 4 11 4 16 0 10-4 20-11 27-6 6-13 9-20 10 4 13 1 28-10 39-5 6-12 9-20 10 1 4 2 8 2 12 0 10-4 20-11 27-7 7-17 11-27 11-6 0-12-2-18-5l-1 1c-12 14-30 22-48 22l-79 0c-5 0-10-5-10-10l0-14c0-5 1-10 3-15-5 2-10 3-15 3-10 0-19-4-26-11-11-10-14-25-9-38-8-2-15-5-21-11-7-7-11-16-11-27 0-4 1-8 2-11-7-2-14-5-20-11-12-11-14-28-8-42-6-2-13-5-18-10-14-15-14-39 0-54l20-20-98-98c-4-4-4-10 0-14 2-2 4-3 7-3 3 0 5 1 7 3l99 99c6-3 12-5 19-5 10 0 19 4 27 11 7 8 11 18 11 28 0 0 1 0 1 0 10 0 19 4 27 11 7 8 11 17 11 27 0 1 0 1 0 2 0 0 1 0 1 0 10 0 20 3 27 11 7 7 11 16 11 26 0 1 0 1 0 2 0 0 1 0 1 0 10 0 20 3 27 11 14 14 15 35 3 50l66 67c3 3 8 5 12 5 5 0 10-2 13-5 3-4 5-8 5-13 0-5-2-9-5-12l-10-10-35-36c-4-4-4-10 0-14 2-2 4-3 7-3 2 0 5 1 7 3l35 36c7 7 18 7 25 0 7-7 7-18 0-25l-35-36c-4-4-4-10 0-14 2-2 4-3 7-3 2 0 5 1 7 3l26 26c3 3 7 5 12 5 5 0 9-2 13-5 3-4 5-8 5-13 0-4-2-9-5-12l-14-14-12-12c-4-4-4-10 0-14 2-2 4-3 7-3 3 0 5 1 7 3l12 12c7 7 18 7 25 0 7-7 7-18 0-25l-97-97c-24-24-56-38-91-40-2 0-5-1-7-3l-89-89c-4-4-4-11 0-15 2-2 4-3 7-3 2 0 5 1 7 3l66 67c17-11 36-16 56-15l52-52c2-2 4-2 7-2 3 0 5 0 7 2 4 4 4 11 0 15l-55 54c-2 3-5 4-8 3l-3 0c-14-1-29 2-42 9l7 7c38 2 73 18 100 45z m-227 66c-3-3-7-5-12-5-5 0-9 2-13 5l-27 27c-7 7-7 19 0 25 4 4 8 6 13 6 5 0 9-2 12-6l27-27c7-6 7-18 0-25z m40 40c-7-7-19-7-25 0l-41 40c-7 7-7 18 0 25 3 3 8 5 13 5 4 0 9-2 12-5l41-40c3-4 5-8 5-13 0-5-2-9-5-12z m39 39c-7-7-18-7-25 0l-51 50c-3 3-5 8-5 12 0 5 2 10 5 13 4 3 8 5 13 5 4 0 9-2 12-5l23-23 28-27c3-4 5-8 5-13 0-4-2-9-5-12z m39 39c-7-7-18-7-25 0l-50 50c0 0 0 0 0 0l-10 10c-7 7-7 18 0 25 3 3 8 5 12 5 5 0 9-2 13-5l60-60c3-3 5-8 5-13 0-4-2-9-5-12z m2 51l-27 27c3-1 6-1 10-1 0 0 0 0 0 0l27 0c6 0 10 5 10 10 0 6-4 10-10 10 0 0 0 0 0 0l-27 0c0 0 0 0 0 0-7 0-14 3-18 7-5 5-8 12-8 18l0 4 69 0c13 0 25-6 34-15l0-1z"/>
<glyph glyph-name="competitor-1" unicode="&#66;" d="M8 334l243-104c1 0 3-1 5-1 2 0 4 1 5 1l243 104c5 2 8 7 8 13 0 5-4 10-9 12l-242 92c-3 2-7 2-10 0l-242-92c-5-2-9-7-9-12 0-6 3-11 8-13z m248 90l206-78-206-88-206 88z m-248-149l248-106 248 106c7 3 10 11 7 18-3 7-11 10-18 7l-237-101-237 101c-7 3-15 0-18-7-3-7 0-15 7-18z m0-55l248-106 248 106c7 3 10 11 7 18-3 7-11 10-18 7l-237-101-237 101c-7 3-15 0-18-7-3-7 0-15 7-18z m0-54l248-106 248 106c7 3 10 11 7 18-3 7-11 10-18 7l-237-102-237 102c-7 3-15 0-18-7-3-7 0-15 7-18z"/>
<glyph glyph-name="complaint" unicode="&#67;" d="M430 477l-348 0c-37 0-66-29-66-66l0-213c0-36 29-66 66-66l0-96 139 96 209 0c36 0 66 30 66 66l0 213c0 37-30 66-66 66z m38-279c0-21-17-38-38-38l-218 0-102-71 0 71-28 0c-21 0-38 17-38 38l0 213c0 21 17 38 38 38l348 0c21 0 38-17 38-38z m-324 180l223 0 0-28-223 0z m0-60l223 0 0-28-223 0z m0-60l223 0 0-28-223 0z"/>
<glyph glyph-name="complaint-1" unicode="&#68;" d="M434 512l-356 0c-43 0-78-35-78-78l0-245c0-43 35-78 78-78l240 0 108-108c2-2 5-3 8-3 2 0 3 0 4 1 5 2 7 6 7 10l0 101c38 6 67 38 67 77l0 245c0 43-35 78-78 78z m56-323c0-30-25-55-56-55-6 0-11-5-11-12l0-84-92 92c-2 2-5 4-8 4l-245 0c-31 0-56 25-56 55l0 245c0 31 25 56 56 56l356 0c31 0 56-25 56-56z m-234 56c-18 0-33-15-33-34 0-18 15-33 33-33 18 0 33 15 33 33 0 19-15 34-33 34z m0-45c-6 0-11 5-11 11 0 7 5 12 11 12 6 0 11-5 11-12 0-6-5-11-11-11z m36 235c-7 6-16 10-25 10l-22 0c-9 0-18-4-25-10-6-7-9-16-8-26l9-109c1-19 17-33 35-33 18 0 34 14 35 32l9 110c1 10-2 19-8 26z m-14-24l-9-110c-1-6-6-12-13-12-7 0-12 6-13 12l-9 110c0 3 1 6 3 8 2 3 5 4 8 4l22 0c3 0 6-1 8-4 2-2 3-5 3-8z"/>
<glyph glyph-name="contact" unicode="&#69;" d="M64 299c-6 0-10-4-10-10 0-5 4-10 10-10 6 0 10 5 10 10l0 0c0 6-4 10-10 10z m344 213l-304 0c-28 0-50-22-50-50l0-133c0-6 4-10 10-10 6 0 10 4 10 10l0 133c0 17 13 30 30 30l304 0c17 0 30-13 30-30l0-332c0-17-13-30-30-30l-304 0c-11 0-22-4-30-10l0 160c0 6-4 10-10 10-6 0-10-4-10-10l0-200c0-28 22-50 50-50l304 0c28 0 50 22 50 50l0 412c0 28-22 50-50 50z m30-462c0-17-13-30-30-30l-304 0c-17 0-30 13-30 30 0 17 13 30 30 30l304 0c11 0 22 4 30 10 0-16-14-30-30-30l-254 0c-5 0-10-4-10-10 0-5 5-10 10-10l254 0c11 0 22 4 30 10z m-310 7c-2 2-5 3-7 3-3 0-5-1-7-3-2-2-3-4-3-7 0-3 1-5 3-7 2-2 4-3 7-3 2 0 5 1 7 3 2 2 3 4 3 7 0 3-1 5-3 7z m245 208l-37 38c-6 5-13 8-21 8-8 0-15-3-21-8l-12-13c-1-1-3-1-4-1 0 0-2 0-3 1l-36 37c-2 2-2 5 0 7l12 12c11 11 11 30 0 42l-38 37c-6 6-14 9-22 9-9-1-17-5-22-12l-8-10c-30-38-26-92 8-126l65-65c19-19 43-28 68-28 20 0 41 6 58 20l11 8c6 5 10 13 11 21 0 9-3 17-9 23z m-11-21c0-3-2-6-4-7l-10-8c-30-24-73-21-100 6l-65 65c-27 27-30 70-6 100l8 10c2 2 4 4 7 4 3 0 5-1 7-3l38-37c3-4 3-10 0-14l-13-12c-9-10-9-26 0-35l37-37c5-4 11-7 17-7 7 0 13 3 18 7l12 12c2 2 4 3 7 3 2 0 5-1 7-3l37-37c2-2 3-5 3-7z"/>
<glyph glyph-name="credit-card" unicode="&#70;" d="M237 505c-1 3-4 5-7 4-13-1-76-9-84-11-11-4-17-16-13-27 2-5 5-9 10-12 5-2 11-3 16-1 8 2 64 32 75 38 3 2 4 5 3 9z m-82-34c-4-1-8 1-9 5-1 3 1 7 5 8 3 1 21 4 43 7-20-11-36-19-39-20z m-68 4l-10 0c0 13 3 26 9 38 4 8 10 15 16 21l7-9c1 0 1-1 2-2 3-1 6-1 8 1 3 2 3 7 1 10l-6 8c20 12 45 15 67 6l-5-9c-1-4 0-8 3-10 4-2 8 0 10 3l5 9c7-4 13-10 18-16 2-3 7-4 10-1 3 2 3 6 1 9-8 10-18 18-29 24-21 11-46 13-68 6-23-7-42-23-53-44-8-16-11-33-9-51 0-3 2-5 4-6 1 0 2 0 3 0l16-1c3 0 7 3 7 7 0 4-3 7-7 7z m155-2c0 4-3 7-6 7-4 1-8-2-8-6 0-11-3-21-8-31-6-11-15-21-26-28l-6 8c-2 3-6 4-10 1-3-2-3-6-1-10l10-13c1 0 1-1 2-2 2-1 5-1 7 1 16 8 28 21 36 37 6 11 10 23 10 36z m82-172l-253 0c-15 0-27-12-27-19l0-155c0-23 12-35 27-35l253 0c15 0 27 12 27 35l0 155c0 7-12 19-27 19z m9-182c0-5-4-9-9-9l-253 0c-5 0-9 4-9 9l0 99 271 0z m0 117l-271 0 0 12 271 0z m0 30l-271 0 0 8c0 5 4 9 9 9l253 0c5 0 9-4 9-9l0-8z m-100-102l-18 0c-5 0-9-4-9-9 0-5 4-9 9-9l18 0c5 0 9 4 9 9 0 5-4 9-9 9z m55 0l-18 0c-5 0-9-4-9-9 0-5 4-9 9-9l18 0c5 0 9 4 9 9 0 5-4 9-9 9z m-136 36c-7 0-13-2-18-5-5 3-12 5-18 5-20 0-36-16-36-36 0-20 16-36 36-36 6 0 13 2 18 5 5-3 11-5 18-5 20 0 36 16 36 36 0 20-16 36-36 36z m-31-53c-2-1-3-1-5-1-10 0-18 8-18 18 0 10 8 18 18 18 2 0 3 0 5-1-3-5-5-11-5-17 0-6 2-12 5-17z m31-1c-10 0-18 8-18 18 0 10 8 18 18 18 10 0 18-8 18-18 0-10-8-18-18-18z"/>
<glyph glyph-name="credit-limit" unicode="&#71;" d="M498 273l-239 239c-9 9-23 14-34 14-12 0-26-5-34-14l-131-131c-20-20-20-51 0-68l22-23 52 0-46 48c-3 3-3 9-3 9 0 0 0 6 3 9l17 17 83-83 79 0-122 122 74 74c3 3 6 3 9 3 2 0 5 0 8-3l239-239c3-2 3-5 3-8 0-3 0-6-3-9l-14-14 0-51 40 37c14 20 14 51-3 71z m-111-6l-339 0c-25 0-48-22-48-48l0-128 432 0 0 128c0 26-20 48-45 48z m-270-133c-9 0-17 3-26 8-6-3-14-8-23-8-20 0-34 17-34 34 0 20 17 34 34 34 9 0 17-3 26-9 6 6 14 9 25 9 20 0 35-17 35-34-3-17-17-34-37-34z m-117-100c0-25 23-48 48-48l336 0c26 0 48 23 48 48l0 3z"/>
<glyph glyph-name="credit-period" unicode="&#72;" d="M427 43l-23 0 0 71c0 34-14 68-40 91l-37 31c-6 6-8 11-8 20 0 9 2 14 8 20l37 31c26 23 40 57 40 91l0 71 23 0c11 0 20 9 20 23 0 11-9 20-20 20l-342 0c-11 0-20-9-20-20 0-11 9-23 20-23l23 0 0-71c0-34 14-68 40-91l37-31c6-6 8-11 8-20 0-9-2-14-8-20l-37-31c-26-23-40-57-40-91l0-71-23 0c-11 0-20-9-20-23 0-11 9-20 20-20l342 0c11 0 20 9 20 20 2 14-9 23-20 23z m-256 68c0 17 5 31 17 43l57 56c5 6 17 6 22 0l57-56c12-12 17-26 17-43l0-68-170 0z"/>
<glyph glyph-name="dashboard" unicode="&#73;" d="M197 341l-160 0c-20 0-37 17-37 38l0 96c0 20 17 37 37 37l160 0c21 0 38-17 38-37l0-96c0-21-17-38-38-38z m-160 139c-3 0-5-2-5-5l0-96c0-3 2-6 5-6l160 0c3 0 6 3 6 6l0 96c0 3-3 5-6 5z m160-480l-160 0c-20 0-37 17-37 37l0 224c0 21 17 38 37 38l160 0c21 0 38-17 38-38l0-224c0-20-17-37-38-37z m-160 267c-3 0-5-3-5-6l0-224c0-3 2-5 5-5l160 0c3 0 6 2 6 5l0 224c0 3-3 6-6 6z m438-267l-160 0c-21 0-38 17-38 37l0 96c0 21 17 38 38 38l160 0c20 0 37-17 37-38l0-96c0-20-17-37-37-37z m-160 139c-3 0-6-3-6-6l0-96c0-3 3-5 6-5l160 0c3 0 5 2 5 5l0 96c0 3-2 6-5 6z m160 74l-160 0c-21 0-38 17-38 38l0 224c0 20 17 37 38 37l160 0c20 0 37-17 37-37l0-224c0-21-17-38-37-38z m-160 267c-3 0-6-2-6-5l0-224c0-3 3-6 6-6l160 0c3 0 5 3 5 6l0 224c0 3-2 5-5 5z"/>
<glyph glyph-name="dashboard-icon-collection" unicode="&#74;" d="M230 168c-3 0-5 1-8 3-4 4-4 12 0 17 5 4 13 4 17 0 4-5 4-13 0-17-3-2-7-3-9-3z m62 117c-55 0-102 46-102 103 0 56 46 102 102 102 56 0 103-45 103-102 0-57-46-103-103-103z m0 181c-43 0-79-36-79-79 0-44 36-79 79-79 44 0 79 35 79 79 0 43-35 79-79 79z m-158-444c-3 0-5 1-7 3l-102 102c-4 5-4 13 0 17l44 44c6 6 15 10 24 8 20 37 58 58 104 58 15 0 31-3 45-9l100 0c12 0 22-4 28-12l52 52c13 16 37 18 54 5 17-13 19-38 5-55l-66-79c-16-19-16-19-17-19-15-15-37-23-58-23l-120 0c-7 0-12-2-17-7l-7-7c3-10 0-22-8-29l-44-44c-4-4-7-5-10-5z m-85 113l84-85 36 34c2 2 2 7 0 9-32 32-51 51-62 62-12 11-15 15-16 16-3 2-7 1-8-1z m63 49l68-68 6 6c8 9 21 13 33 13l120 0c16 0 30 6 42 17l82 97c5 6 4 16-3 22-6 6-16 4-22-2 0 0-1-1-19-20l-39-40c0-1 0-3 0-4 0-21-17-39-39-39l-73 0c-7 0-11 6-11 12 0 5 5 11 11 11l73 0c9 0 16 6 16 15 0 9-7 16-16 16l-102 0c-1 0-3 0-4 1-13 6-26 8-39 8-37 1-67-16-84-45z m178 137c-7 0-11 6-11 11l0 9c-6 2-11 7-16 12-2 3-3 6-2 9 0 4 2 6 5 8 4 5 12 3 16-1 4-3 7-6 10-6 4 0 7 4 7 7 0 3-3 7-7 7-16 0-30 13-30 30 0 12 7 22 18 28l0 9c0 6 6 11 11 11 7 0 11-6 11-11l0-9c5-3 9-5 13-8 2-2 3-6 3-8 0-3-1-6-3-8-3-2-6-3-8-3-3 0-6 1-8 3-2 2-5 5-8 5-3 0-6-4-6-7 0-3 3-7 6-7 17 0 30-13 30-30 0-12-6-22-17-28l0-8c-2-9-7-15-14-15z"/>
<glyph glyph-name="dashboard-icon-customer" unicode="&#75;" d="M444 221c16 22 11 52-11 68-22 15-52 10-68-12-12-16-12-39 0-56-11-5-21-12-29-22-8 12-19 22-32 29 19 28 11 65-17 84-28 18-66 11-84-17-14-21-14-47 0-67-12-6-22-15-30-25-7 7-16 14-26 18 16 22 10 52-11 68-22 15-53 10-68-12-12-17-12-39 0-56-28-12-46-39-46-69l0-37c0-6 6-12 13-12l121 0 0-12c0-7 6-12 12-12l170 0c7 0 12 5 12 12l0 12 128 0c6 0 12 6 12 12l0 37c0 30-18 57-46 69z m-337 52c14 0 25-10 25-24 0-12-10-23-22-24l-5 0c-14 1-23 13-22 27 1 12 12 21 24 21z m49-121l0-24-109 0 0 24c-1 23 15 43 36 49l21 0c1 0 2 0 3 0 2 0 3 0 4 0l20 0c12-4 23-11 29-22-3-9-4-18-4-27z m97 146c20 0 37-17 37-37 0-20-17-36-37-36-20 0-36 16-36 36 0 20 16 37 36 37z m73-195l-146 0 0 49c0 8 2 16 5 23 0 0 0 0 0 0 7 17 20 29 36 34 20-11 44-11 64 0 25-8 41-31 41-57l0-49z m79 170c13 0 24-10 24-24 0-12-9-23-22-24l-5 0c-13 1-23 13-21 27 1 12 11 21 24 21z m60-145l-115 0 0 24c0 7 0 14-2 21 0 0 1 1 1 2 7 12 18 22 32 26l20 0c1 0 2 0 4 0 1 0 2 0 3 0l20 0c22-6 37-26 37-49l0-24z"/>
<glyph glyph-name="dashboard-icon-order" unicode="&#76;" d="M273 39l-210 0c-16 0-29 13-29 29l0 393c0 15 13 29 29 29l254 0c4 0 6-1 8-4l79-79c2-2 4-5 4-7l0-135c0-7-6-11-12-11-5 0-11 5-11 11l0 123-50 0c-15 0-29 14-29 29l0 49-243 0c-4 0-6-2-6-5l0-393c0-3 2-6 6-6l210 0c7 0 11-5 11-11 0-5-6-12-11-12z m56 412l0-35c0-3 3-6 6-6l35 0z m-205-186c-4 0-6 1-8 3l-19 19c-4 5-4 12 0 17 5 4 12 4 17 0l11-11 28 26c4 5 12 5 16 0 0 0 0 0 2-1 2-2 3-5 3-7 0-4-1-6-3-8l-37-35c-4-2-6-3-10-3 1 0 0 0 0 0z m177 11l-107 0c-7 0-12 6-12 12 0 7 5 13 12 13l107 0c6 0 12-6 12-13 0-6-6-12-12-12z m-177 62c-4 0-6 1-8 4l-19 19c-4 4-4 12 0 16 5 5 12 5 17 0l11-11 28 27c4 4 12 4 16 0 0 0 0 0 2-1 2-2 3-6 3-8 0-3-1-6-3-8l-37-34c-4-3-6-4-10-4 1 0 0 0 0 0z m177 13l-107 0c-7 0-12 5-12 12 0 7 5 12 12 12l107 0c6 0 12-5 12-12 0-7-6-12-12-12z m-177-171c-4 0-6 1-8 4l-19 19c-4 4-4 12 0 16 5 5 12 5 17 0l11-11 28 27c4 4 12 4 16 0 0 0 0 0 2-1 2-2 3-6 3-8 0-3-1-6-3-8l-37-34c-4-3-6-4-10-4 1 0 0 0 0 0z m209-158c-16 0-29 14-29 29 0 16 13 29 29 29 16 0 29-13 29-29 0-16-13-29-29-29z m0 35c-3 0-6-2-6-6 0-3 3-5 6-5 3 0 6 2 6 5 0 2-3 6-6 6z m98-35c-16 0-29 14-29 29 0 16 13 29 29 29 16 0 29-13 29-29 0-16-12-29-29-29z m0 35c-3 0-6-2-6-6 0-3 3-5 6-5 3 0 6 2 6 5 1 2-3 6-6 6z m17 33l-114 0c-15 0-28 11-30 26l-18 102c-1 3-3 7-8 7l-13 0c-7 0-11 5-11 11 0 6 6 11 11 11l13 0c16 0 28-11 31-26l2-13 157 0c3 0 6-2 9-4 2-4 2-7 1-10l-15-47c-4-15-18-25-33-25l-104 0 0-2c1-3 4-6 8-6l114 0c6 0 11-6 11-12 0-5-5-12-11-12z m-126 55l108 0c5 0 10 3 12 9l10 32-137 0z"/>
<glyph glyph-name="dashboard-icon-shop" unicode="&#77;" d="M161 321l255 0c6 0 11 5 11 12 0 6-4 12-11 12l-318 0c-6 0-11-6-11-12 0-7 4-12 11-12z m-105 0l15 0c6 0 11 5 11 12 0 6-4 12-11 12l-9 0 43 117c0 1 1 2 2 2l303 0c1 0 2-1 2-1l42-117-9 0c-5 0-11-5-11-12 0-7 5-12 11-12l16 0c0-1-1-1-1-1l20 0c1 3 1 7 1 11 0 2 0 4-1 5l-51 135c-5 9-13 14-22 14l-302 0c-9 0-17-5-22-14l-51-135c-1-2-1-4-1-5 0-4 1-8 1-11z m400-276l-3 0 0 228c0 0 0 0 1 0l-1 0c-8-4-15-7-23-11 1 0 1 1 2 1l0-218-352 0 0 218c1 0 1-1 2-1-8 4-15 7-23 11l-1 0c1 0 1 0 1 0l0-228-3 0c-6 0-11-6-11-13 0-6 4-12 11-12l401 0c6 0 12 6 12 12-2 7-6 13-13 13z m4 276c-8-22-24-36-43-36-20 0-36 14-41 36l-25 0c-5-22-23-36-42-36-18 0-36 14-41 36l-24 0c-5-22-23-36-41-36-20 0-37 14-42 36l-23 0c-4-22-22-36-41-36-20 0-37 14-41 36l-24 0c3-19 12-37 26-48l1 0c8-4 15-7 23-11 4-1 9-2 14-2 22 0 41 13 53 33 12-20 32-33 54-33 22 0 41 13 53 33 12-20 32-33 53-33 22 0 42 13 54 33 12-20 32-33 53-33 5 0 9 1 14 2 8 4 15 7 23 11l1 0c14 11 23 29 26 48z"/>
<glyph glyph-name="dashboard-icon-visit" unicode="&#78;" d="M193 231c-12 0-22 5-31 12l-6 6c-4 4-5 9-5 14 0 6 1 10 3 15l92 92c15 15 30 15 43 15 10 0 16 0 23 6l22 23c6 5 14 5 19 0 6-6 6-14 0-19l-22-22c-15-15-30-15-42-15-10 0-17 0-24-7l-88-88 1-1c7-6 19-6 25 0l43 43c6 5 14 5 19 0 11-11 28-18 45-18 18 0 33 7 45 18 6 5 14 5 19 0 6-6 6-14 0-19-15-17-38-27-62-27-20 0-38 7-53 18l-35-35c-10-6-21-11-31-11z m-103 155c-12 0-21 9-21 21 0 12 9 21 21 21 13 0 22-9 22-21 0-12-9-21-22-21z m113-49c-3 0-7 1-9 3l-22 23c-2 2-5 5-5 9 0 3 1 6 5 8 5 6 13 6 19 0l22-22c5-5 5-13 0-19-2 0-7-2-10-2z m221 79c-13 0-22 9-22 21 0 12 9 21 22 21 12 0 21-9 21-21 0-12-10-21-21-21z m-26-230c-3 0-7 1-9 3-6 5-6 13 0 19l11 11c8 9 12 26 15 42l0 1c4 20 9 40 21 54 2 2 4 4 8 4 4 0 7-1 11-4 2-2 4-6 4-9 0-3-1-7-4-9-8-9-13-26-15-42l0-1c-4-20-9-42-22-54l-11-11c-2-3-6-4-9-4z m86 108c-4 0-7 1-9 3l-131 130c-5 6-5 14 0 19l30 30c6 6 14 6 19 0 6-5 6-13 0-19l-21-21 122-121c3-6 3-12 0-17-3-3-7-4-10-4z m-205-281c-9 0-19 4-26 10l-130 129c-24 25-28 52-33 75l-1 8c-2 13-5 25-12 32-5 5-5 13 0 19 6 5 13 5 19 0 12-13 16-29 18-45l1-8c4-20 9-43 27-61l129-131c4-4 11-4 14 0 3 2 3 3 3 6 0 4-2 5-3 7l-70 70c-5 6-5 14 0 19 6 6 14 6 19 0l81-81c5-3 12-3 15 0 3 4 3 11 0 14l-87 86c-5 6-5 13 0 19 6 6 13 6 19 0l96-98c4-3 11-3 14 0 4 4 4 11 0 14l-102 103c-6 5-6 13 0 19 5 5 13 5 19 0l81-81c4-4 11-4 14 0 4 4 4 11 0 14l-81 81c-5 6-5 14 0 19 6 6 14 6 19 0l82-81c7-6 10-15 12-23 0-10-4-19-12-27-3-2-5-5-8-7 5-5 10-13 10-23 0-10-4-19-12-27-10-9-23-12-35-9-2-4-5-9-8-12-9-9-23-12-36-9-2-4-4-9-7-12-11-6-20-9-29-9z m-249 243c-3 0-7 1-10 3-3 2-4 6-4 10 0 4 1 7 4 10l131 125-40 38c-4 2-5 5-5 10 0 4 1 6 5 10 5 5 13 5 19 0l50-48c3-2 4-6 4-10 0-5-1-7-4-10l-141-135c-2-2-5-3-9-3z m186-243c-10 0-20 4-26 11-5 4-8 10-10 17-11 0-22 3-28 11-6 5-8 11-9 15-11-1-21 3-29 10-7 8-10 17-10 26 0 3 0 6 1 9-4 2-9 4-12 9-15 13-16 32-9 43 2 4 5 6 9 6 3 1 7 0 10-2 2-3 4-5 5-9 2-4 0-7-2-10-1-1-1-6 4-11 5-6 8-5 11-4 2 1 5 2 9 1 3-1 5-2 7-5 4-6 3-14-2-17l-5-5c-4-5-4-12 0-15 4-3 11-3 14 0l6 6c5 5 13 5 19 0 2-3 3-6 3-9 0-4-1-7-3-9-4-5-4-11 0-15 4-3 11-3 14 0 1 3 4 5 8 5 3 0 5-1 9-2 5-4 7-13 3-18-1-1-1-6 3-11 5-5 10-5 13-4 5 4 13 3 19-3 2-3 3-8 1-11-1-4-4-6-6-7-5-1-12-2-17-2z"/>
<glyph glyph-name="dealer" unicode="&#79;" d="M150 214c-6 8-16 12-26 12l-23 0c-10 0-19-4-26-12-7-7-10-16-10-26l1-16 3-38c1-15 9-28 23-35 6-4 13-6 21-6 7 0 14 2 21 6 13 7 22 20 23 35l2 43 1 11c1 10-3 19-10 26z m-64-25c-1 4 1 8 4 11 3 4 7 5 11 5l16 0-3-7c-1-2-8-11-28-14z m50-53c0-8-5-15-12-19-7-4-16-4-23 0-7 4-11 11-12 19l-2 27c17 3 28 8 35 14 1-1 3-2 4-3 3-1 7-3 12-4z m-1 56c0 1 0 1-1 1l3 6c2-2 3-5 3-8-3 1-4 1-5 1z m85-180l-4 21c-5 27-26 48-53 53-4 1-8 2-12 2l-12 0c-2 0-5-2-7-3l-19-20-20 20c-1 1-4 3-7 3l-11 0c-5 0-9-1-13-2-26-5-47-26-52-53l-4-21c-1-3 0-6 2-8 2-3 5-4 8-4l194 0c3 0 5 1 7 4 2 2 3 5 3 8z m-192 8l2 10c3 18 18 33 36 36 3 1 6 1 9 1l7 0 24-23c4-4 10-4 14 0l23 23 8 0c3 0 6 0 8-1 19-3 33-18 37-36l1-10z m409 194c-7 8-16 12-26 12l-23 0c-10 0-20-4-26-12-7-7-11-16-10-26l1-16 0 0 2-38c1-15 10-28 23-35 7-4 14-6 21-6 8 0 15 2 21 6 14 7 22 20 23 35l3 43 1 11c0 10-3 19-10 26z m-65-25c0 4 1 8 4 11 3 4 7 5 12 5l16 0-3-7c-2-2-9-11-28-14z m51-53c-1-8-5-15-12-19-7-4-16-4-23 0-7 4-12 11-12 19l-2 27c17 3 28 8 35 14 1-1 2-2 4-3 2-1 7-3 12-4z m-1 56c0 1-1 1-1 1l2 6c2-2 3-5 3-8-2 1-3 1-4 1z m84-180l-4 21c-5 27-26 48-52 53-4 1-8 2-13 2l-11 0c-3 0-6-2-7-3l-20-20-19 20c-2 1-5 3-7 3l-12 0c-4 0-8-1-12-2-27-5-48-26-53-53l-4-21c0-3 1-6 3-8 2-3 4-4 7-4l194 0c3 0 6 1 8 4 2 2 3 5 2 8z m-191 8l1 10c4 18 18 33 37 36 2 1 5 1 8 1l8 0 23-23c4-4 10-4 14 0l24 23 7 0c3 0 6 0 9-1 18-3 33-18 36-36l2-10z m-21 481c-7 7-16 11-26 11l-24 0c-10 0-19-4-26-11-6-7-10-17-9-27l1-16 2-37c1-15 10-29 23-36 6-4 14-5 21-5 7 0 15 1 21 5 13 7 22 21 23 36l3 42 0 11c1 10-3 20-9 27z m-65-26c0 5 1 9 4 12 3 3 7 5 11 5l16 0-2-8c-2-2-9-11-29-14z m50-53c0-8-5-15-12-19-7-4-15-4-22 0-7 4-12 11-12 19l-2 28c16 2 27 8 34 13 1-1 3-2 4-2 3-2 7-3 13-5z m0 57c-1 0-1 0-1 0l2 7c2-3 3-6 3-9-2 1-4 1-4 2z m84-181l-4 22c-5 26-26 48-53 53-4 0-8 1-12 1l-11 0c-3 0-6-1-8-3l-19-19-19 19c-2 2-5 3-8 3l-11 0c-4 0-8-1-12-1-27-5-48-27-53-53l-4-22c0-3 0-6 2-8 2-2 5-4 8-4l194 0c3 0 6 2 8 4 2 2 2 5 2 8z m-192 9l2 9c3 18 18 33 36 37 3 0 6 0 9 0l7 0 24-23c4-4 10-4 14 0l24 23 7 0c3 0 6 0 9 0 18-4 33-19 36-37l2-9z m82-39c-6 0-10-5-10-10l0-4c0-5 4-10 10-10 6 0 10 5 10 10l0 4c0 5-4 10-10 10z m72-117l-62 36 0 38c0 5-4 10-10 10-6 0-10-5-10-10l0-38-62-36c-5-3-6-9-3-14 1-3 5-5 8-5 2 0 4 1 5 1l62 36 61-36c2 0 4-1 5-1 4 0 7 2 9 5 3 5 1 11-3 14z"/>
<glyph glyph-name="dealer-1" unicode="&#80;" d="M496 192l-48 0 0 80c0 9-7 16-16 16l-160 0 0 32 64 0c9 0 16 7 16 16l0 160c0 9-7 16-16 16l-160 0c-9 0-16-7-16-16l0-160c0-9 7-16 16-16l64 0 0-32-160 0c-9 0-16-7-16-16l0-80-48 0c-9 0-16-7-16-16l0-160c0-9 7-16 16-16l160 0c9 0 16 7 16 16l0 160c0 9-7 16-16 16l-80 0 0 64 320 0 0-64-80 0c-9 0-16-7-16-16l0-160c0-9 7-16 16-16l160 0c9 0 16 7 16 16l0 160c0 9-7 16-16 16z m-304 288l128 0 0-128-128 0z m-32-448l-128 0 0 128 128 0z m320 0l-128 0 0 128 128 0z"/>
<glyph glyph-name="dealer1" unicode="&#81;" d="M256 160c79 0 144 79 144 176 0 97-65 176-144 176-39 0-76-19-103-53-26-33-41-77-41-123 0-97 65-176 144-176z m0 320c62 0 112-65 112-144 0-79-50-144-112-144-62 0-112 65-112 144 0 79 50 144 112 144z m112-288c-9 0-16-7-16-16 0-9 7-16 16-16 62 0 112-50 112-112 0-9-7-16-16-16l-416 0c-9 0-16 7-16 16 0 62 50 112 112 112 9 0 16 7 16 16 0 9-7 16-16 16-79 0-144-65-144-144 0-26 22-48 48-48l416 0c26 0 48 22 48 48 0 79-65 144-144 144z"/>
<glyph glyph-name="delete" unicode="&#82;" d="M321 456l0 56-130 0 0-56-146 0 0-96 33 0 0-360 356 0 0 360 33 0 0 96z m-100 26l70 0 0-26-70 0z m183-452l-296 0 0 330 296 0z m33 360l-362 0 0 36 362 0z m-268-98l30 0 0-193-30 0z m72 0l30 0 0-193-30 0z m72 0l30 0 0-193-30 0z"/>
<glyph glyph-name="diatance" unicode="&#83;" d="M128 277c-35 0-64-28-64-64 0-35 29-64 64-64 35 0 64 29 64 64 0 36-29 64-64 64z m0-106c-24 0-43 19-43 42 0 24 19 43 43 43 24 0 43-19 43-43 0-23-19-42-43-42z m256 341c-72 0-128-56-128-128 0-81 83-172 111-201l-7-5c-5-3-6-10-3-14 2-4 6-5 9-5 2 0 4 0 6 2l18 11c0 1 0 1 1 1 0 0 0 0 0 1 5 4 121 115 121 210 0 72-56 128-128 128z m0-316c-25 26-107 115-107 188 0 60 47 107 107 107 60 0 107-47 107-107 0-73-82-162-107-188z m0 252c-35 0-64-29-64-64 0-35 29-64 64-64 35 0 64 29 64 64 0 35-29 64-64 64z m0-107c-24 0-43 19-43 43 0 24 19 43 43 43 24 0 43-19 43-43 0-24-19-43-43-43z m-181-268l-12-8c32 42 65 97 65 148 0 72-56 128-128 128-72 0-128-56-128-128 0-95 116-205 121-210 2-2 4-3 7-3 2 0 4 1 6 2 0 0 0 0 0 0l18 12c3 2 5 6 4 10 4 4 8 9 12 14 0 0 0 0 0 0 2-4 6-5 9-5 2 0 4 0 6 2l32 21c5 3 6 10 3 14-4 5-10 7-15 3z m-75-47c-25 25-107 114-107 187 0 60 47 107 107 107 60 0 107-47 107-107 0-73-82-162-107-187z m138 89l-32-21c-5-3-6-10-3-14 2-4 6-5 9-5 2 0 4 0 6 2l32 21c5 3 6 10 3 14-4 5-10 7-15 3z m63 42l-32-21c-5-3-6-10-3-14 2-4 6-5 9-5 2 0 4 0 6 2l32 21c5 3 6 10 3 14-4 5-10 7-15 3z"/>
<glyph glyph-name="discount" unicode="&#84;" d="M508 508c-6 5-16 5-22 0l-43-44c-3 1-6 2-9 3l-136 34c-15 3-31-1-42-12l-243-242c-17-18-17-47 0-64l170-170c17-17 46-17 64 0l242 243c11 11 15 27 12 42l-34 136c-1 3-2 6-3 9l44 43c5 6 5 16 0 22z m-37-217c2-5 0-10-4-14l-242-243c-6-5-15-5-21 0l-170 170c-5 6-5 15 0 21l243 242c3 3 7 5 11 5 1 0 2 0 3-1l128-31-36-36c-17 8-38 5-52-9-17-18-17-46 0-64 9-8 21-13 32-13 12 0 23 5 32 13 14 14 17 35 9 52l36 36z m-97 62c-6-6-16-6-21 0-6 5-6 15 0 21 3 3 6 4 10 4 4 0 8-1 11-4l0 0c6-6 6-16 0-21z m-127-22c-18 18-47 18-64 0-18-17-18-46 0-63 17-18 46-18 64 0 17 17 17 46 0 63z m-22-42c-6-6-15-6-21 0-6 6-6 15 0 21 6 6 15 6 21 0 6-6 6-15 0-21z m43-106c-18 17-46 17-64 0-17-18-17-46 0-64 18-17 46-17 64 0 17 18 17 46 0 64z m-21-43c-6-5-16-5-22 0-6 6-6 16 0 22 6 6 16 6 22 0 5-6 5-16 0-22z m89 98c-1 8-9 14-17 13l-191-21c-8-1-14-9-13-17 1-8 7-13 15-13 0 0 1 0 1 0l191 21c9 1 15 8 14 17z"/>
<glyph glyph-name="distributor" unicode="&#85;" d="M467 289c-16 0-29-11-32-26l-45 0c-1 31-14 60-35 83l32 32c14-10 33-7 43 6 11 13 10 32-1 44-12 12-31 13-44 3-13-10-17-29-8-43l-31-32c-24 21-53 33-84 34l0 45c17 3 28 18 27 35-1 16-15 30-32 30-17 1-31-12-34-28-2-17 9-33 25-37l0-45c-31-2-60-14-82-35l-32 32c10 14 7 33-6 44-13 10-32 10-44-2-12-12-14-31-3-44 10-13 29-17 43-8l32-32c-21-23-33-52-34-83l-45 0c-3 16-16 27-32 27-12 0-23-6-29-16-6-11-6-23 0-33 6-11 17-17 29-17 15 0 28 10 32 25l45 0c1-31 14-60 34-82l-31-32c-14 10-33 7-44-6-11-13-10-32 1-44 12-13 31-14 45-4 13 11 17 30 8 44l31 32c23-21 52-33 83-35l0-44c-17-3-28-19-26-36 2-16 16-29 33-29 17 0 31 13 33 29 2 17-9 33-26 36l0 44c31 2 60 14 83 35l32-31c-10-14-7-33 6-44 13-11 32-10 44 2 13 12 14 31 3 44-10 14-29 17-43 8l-32 31c21 23 33 52 34 83l45 0c4-17 20-28 37-26 17 3 29 18 28 36-1 17-16 30-33 30z m-75 130c7 7 19 7 27 0 7-8 7-20 0-27-5-5-12-7-19-5-6 1-12 7-13 13-2 7 0 14 5 19z m-272-27c-7-8-19-8-27 0-7 7-7 19 0 27 8 7 20 7 27 0 8-8 8-20 0-27z m-75-155c-11 0-19 8-19 19 0 11 8 19 19 19 10 0 19-8 19-19 0-11-9-19-19-19z m75-144c-7-7-19-7-27 0-7 8-7 20 0 27 7 7 19 8 26 1 1-1 2-2 2-2 7-8 6-19-1-26z m272 27c7 8 19 8 27 0 7-7 7-19 0-27-8-7-20-7-27 0-8 8-8 20 0 27z m-155 347c0 11 8 19 19 19 11 0 19-8 19-19 0-10-8-19-19-19-11 0-19 9-19 19z m38-422c0-10-8-19-19-19-10 0-19 8-19 18-1 10 7 19 18 20 1 0 1 0 2 0 10-1 18-9 18-19z m-19 90c-67 0-121 54-121 121 0 66 54 120 121 120 67 0 121-54 121-120-1-67-54-121-121-121z m211 102c-10 0-19 8-19 19 0 11 9 19 19 19 11 0 19-8 19-19 0-11-8-19-19-19z m-127 71l-80 46c-3 2-5 2-7 0l-80-46c-3-1-4-3-4-6l0-92c0-3 1-5 4-6l80-46c2-2 4-2 7 0l80 46c2 1 3 3 3 6l0 92c0 3-1 5-3 6z m-84 32l25-14-66-38-25 14z m-7-164l-66 38 0 76 66-38z m7 88l-27 16 66 38 27-16z m73-50l-66-38 0 76 66 38z"/>
<glyph glyph-name="distributor-grey" unicode="&#86;" d="M452 142l0 103-187 0 0 102 116 0 0 165-250 0 0-165 116 0 0-102-187 0 0-103-60 0 0-136 137 0 0 136-60 0 0 86 170 0 0-86-59 0 0-136 136 0 0 136-59 0 0 86 170 0 0-86-60 0 0-136 137 0 0 136z"/>
<glyph glyph-name="district" unicode="&#87;" d="M256 512c-141 0-256-115-256-256 0-141 115-256 256-256 141 0 256 115 256 256 0 141-115 256-256 256z m117-390c12 40 19 83 19 125l103 0c-2-55-23-108-60-149-20 10-41 18-62 24z m-108-104l0 67-18 0 0-67c-34 5-65 40-85 92 3 0 7 1 10 2l-3 17c-4-1-9-2-13-3-12 39-19 80-19 121l25 0 0 18-25 0c0 41 7 82 19 121 4-1 9-2 13-3l3 17c-3 1-7 2-10 3 20 51 51 86 85 91l0-67 18 0 0 67c34-5 65-40 85-91-3-1-7-2-10-3l3-17c4 1 9 2 13 3 12-39 19-80 19-121l-25 0 0-18 25 0c0-41-7-82-19-121-4 1-9 2-13 3l-3-17c3-1 7-2 10-2-20-52-51-87-85-92z m-188 80c-37 41-58 94-60 149l103 0c0-42 7-85 19-125-21-6-42-14-62-24z m62 292c-12-40-19-83-19-125l-103 0c2 55 23 108 60 149 20-10 41-18 62-24z m253-125c0 42-7 85-19 125 21 6 42 14 62 24 37-41 58-94 60-149z m31 162c-18-9-37-15-56-20-11 30-28 58-52 80 41-10 78-31 108-60z m-278-20c-19 5-38 11-56 20 30 29 67 50 108 60-24-22-41-50-52-80z m-56-322c18 9 37 16 56 20 11-30 28-58 52-80-41 10-78 31-108 60z m278 20c19-4 38-11 56-20-30-29-67-50-108-60 24 22 41 50 52 80z m-111 296c-52 0-94-42-94-94 0-49 84-162 87-167 2-2 4-3 7-3 3 0 5 1 7 3 3 5 87 118 87 167 0 52-42 94-94 94z m0-241c-26 37-77 114-77 147 0 43 35 77 77 77 42 0 77-34 77-77 0-33-51-110-77-147z m0 198c-28 0-51-23-51-51 0-28 23-51 51-51 28 0 51 23 51 51 0 28-23 51-51 51z m0-85c-19 0-34 15-34 34 0 19 15 34 34 34 19 0 34-15 34-34 0-19-15-34-34-34z m-17-145l34 0 0-17-34 0z m43 0l17 0 0-17-17 0z m-69 0l17 0 0-17-17 0z"/>
<glyph glyph-name="district-1" unicode="&#88;" d="M154 404c0 23-20 43-43 43-23 0-43-20-43-43 0-23 20-43 43-43 23 0 43 17 43 43z m-60 0c0 8 6 14 14 14 9 0 14-6 14-14 0-9-5-14-14-14-8 0-14 5-14 14z m375-176c-20 8-42 14-68 14-34 0-63-9-82-23l-109 26c-2 22-22 39-54 48l35 45c14 18 19 40 19 63 0 57-45 102-102 102-57 0-102-45-102-102 0-23 5-43 20-63l34-45c-34-9-57-28-57-51 0-34 43-60 102-60 43 0 80 14 94 34l100-25c0-3 0-6 0-12 0-11 5-23 17-31l-63-37c-17 6-37 8-57 8-57 0-102-25-102-59 0-43 60-60 102-60 57 0 103 26 103 60 0 11-6 22-17 31l62 37c17-6 34-9 57-9 43 0 102 18 102 60 0 23-11 37-34 49z m-216-180c-14-8-34-11-57-11-42 0-74 17-74 31 0 12 29 29 74 29 46 0 74-17 74-29 0-8-5-14-17-20z m-216 356c0 40 31 74 74 74 43 0 74-31 74-74 0-17-6-31-14-43l-60-77-60 77c-8 12-14 26-14 43z m71-191c-45 0-74 17-74 29 0 8 17 23 46 25l17-20c3-2 5-5 11-5 6 0 9 3 11 5l18 20c28-5 45-20 45-25 0-12-28-29-74-29z m293-59c-23 0-74 8-74 28 0 11 29 28 74 28 46 0 74-17 74-28 0-11-28-28-74-28z"/>
<glyph glyph-name="doctor" unicode="&#89;" d="M269 486c0-14-12-25-26-25-14 0-26 11-26 25 0 15 12 26 26 26 14 0 26-11 26-26z m136 0c0-14-12-25-26-25-14 0-26 11-26 25 0 15 12 26 26 26 14 0 26-11 26-26z m50-23c-13 23-36 36-62 36l0-25c17 0 32-9 40-24 9-14 9-32 0-46l-81-142c-9-14-24-23-41-23-17 0-32 9-40 23l-82 142c-8 14-8 32 0 46 9 15 24 24 41 24l0 25c-26 0-50-13-63-36-13-23-13-49 0-72l82-142c11-18 29-31 50-34l0-69c0-66-40-121-88-121-49 0-88 55-88 121l0 82c29 5 51 31 51 62 0 35-29 63-64 63-35 0-63-28-63-63 0-31 22-57 51-62l0-82c0-80 50-146 113-146 62 0 113 66 113 146l0 69c21 3 39 16 50 34l81 142c13 23 13 49 0 72z"/>
<glyph glyph-name="dollar-sign" unicode="&#90;" d="M501 228l-9 11c-8 11-8 28 0 40l9 11c11 17 5 40-12 48l-11 3c-12 6-20 20-17 34l3 15c2 20-12 37-32 40l-14 0c-14 0-25 11-31 22l-3 12c-6 20-26 28-46 22l-11-2c-14-6-28-3-37 8l-8 9c-15 14-37 14-52 0l-8-9c-9-11-26-14-37-8l-14 2c-20 9-40-2-46-22l-3-12c-3-14-17-22-31-25l-14 0c-20 0-34-20-31-40l2-14c3-15-2-29-17-35l-11-5c-14-9-20-31-9-49l9-11c8-11 8-28 0-40l-9-11c-11-17-5-40 12-48l11-6c12-6 20-20 17-34l-3-15c-2-19 12-37 32-39l14 0c14 0 25-12 31-23l3-11c6-20 26-29 46-23l11 5c14 6 28 3 37-8l8-9c15-14 37-14 52 0l8 9c9 11 26 14 37 8l14-2c20-9 40 2 46 22l3 12c3 14 17 22 31 25l14 0c20 0 34 20 31 40l-2 14c-3 15 2 29 17 35l11 5c14 9 20 31 9 49z m-182-57c-9-12-23-20-37-23-6-3-9-6-9-11 0-6 0-12 0-20 0-6-3-9-8-9-6 0-15 0-20 0-6 0-9 3-9 9 0 5 0 8 0 14 0 11 0 11-11 11-12 3-26 6-37 12-9 5-9 5-9 17 3 5 3 14 6 20 3 8 6 8 11 5 12-5 26-11 40-11 9 0 17 0 26 3 17 5 17 25 5 37 0 3-5 5-11 8-14 6-28 12-43 20-20 12-34 31-34 57 3 28 17 48 46 57 14 3 14 3 14 14 0 3 0 9 0 12 0 8 3 11 11 11 3 0 6 0 9 0 17 0 17 0 20-17 0-14 0-14 14-14 9-3 20-6 28-9 6-3 6-6 6-11-3-9-6-17-6-23-2-9-5-9-11-6-14 6-28 9-45 9-3 0-9 0-12-3-14-6-17-20-3-31 6-6 12-9 20-12 12-5 26-8 37-17 26-20 37-68 12-99z"/>
<glyph glyph-name="double-tick" unicode="&#48;" d="M387 372l-31 31-138-138 30-31z m92 31l-231-233-92 93-31-31 123-123 264 263z m-479-171l123-123 31 30-123 124z"/>
<glyph glyph-name="drilldown" unicode="&#49;" d="M452 512l-392 0c-33 0-60-27-60-60l0-392c0-33 27-60 60-60l392 0c33 0 60 27 60 60l0 392c0 33-27 60-60 60z m20-452c0-11-9-20-20-20l-392 0c-11 0-20 9-20 20l0 208 432 0z m-432 248l0 144c0 11 9 20 20 20l392 0c11 0 20-9 20-20l0-144z m363 124l29-28-67-67-67 67 28 28 39-38z m16-254l-326 0 0 40 326 0z m0-90l-326 0 0 40 326 0z"/>
<glyph glyph-name="electricity" unicode="&#50;" d="M322 121l-56 0 0 82c16 5 28 20 28 38 0 23-18 41-40 41-22 0-40-18-40-41 0-18 12-33 29-38l0-82-57 0c-7 0-12-5-12-11 0-7 5-11 12-11l136 0c6 0 12 4 12 11 0 6-6 11-12 11z m-85 120c0 10 7 18 17 18 9 0 17-8 17-18 0-9-8-17-17-17-10 0-17 8-17 17z m73-168l-112 0c-7 0-12-5-12-12 0-6 5-11 12-11l112 0c7 0 12 5 12 11 0 7-5 12-12 12z m-6-50l-100 0c-7 0-12-5-12-11 0-7 5-12 12-12l100 0c6 0 12 5 12 12 0 6-6 11-12 11z m-50 384c-78 0-142-63-142-141 0-58 35-108 85-130 17-8 29 12 13 20-44 17-74 60-74 110 0 65 53 118 118 118 65 0 118-53 118-118 0-50-30-93-74-110-15-7-8-29 13-20 50 23 84 72 84 130 0 78-63 141-141 141z m-1 22c7 0 13 6 13 13l0 58c0 6-6 12-13 12-7 0-13-6-13-12l0-58c0-7 6-13 13-13z m-177-158l-58 0c-7 0-13-5-13-12 0-7 6-12 13-12l58 0c6 0 12 5 12 12 0 7-6 12-12 12z m41 113c5-5 13-5 18 0 4 4 4 12 0 17l-41 41c-5 5-13 5-18 0-4-5-4-13 0-17z m377-113l-58 0c-6 0-12-5-12-12 0-7 6-12 12-12l58 0c7 0 13 5 13 12 0 7-6 12-13 12z m-99 113l41 41c4 4 4 12 0 17-5 5-13 5-18 0l-41-41c-4-5-4-13 0-17 5-5 13-5 18 0z"/>
<glyph glyph-name="enquiry" unicode="&#51;" d="M462 360c-4 11-10 19-16 25l-104 104c-6 7-14 12-25 16-11 5-20 7-29 7l-213 0c-9 0-17-3-23-9-6-7-9-14-9-23l0-447c0-9 3-17 9-23 6-6 14-9 23-9l362 0c9 0 16 3 23 9 6 6 9 14 9 23l0 298c0 9-2 19-7 29z m-164 107c7-3 11-5 14-8l104-104c3-3 5-7 8-13l-126 0z m128-424l-341 0 0 426 171 0 0-138c0-9 3-17 9-23 6-6 14-9 23-9l138 0z m-53 128l-234 0c-4 0-6-1-8-3-2-2-3-5-3-8l0-21c0-3 1-6 3-8 2-2 4-3 8-3l234 0c3 0 6 1 8 3 2 2 3 5 3 8l0 21c0 3-1 6-3 8-2 2-5 3-8 3z m-242 82c-2-2-3-4-3-7l0-22c0-3 1-5 3-7 2-2 4-3 8-3l234 0c3 0 6 1 8 3 2 2 3 4 3 7l0 22c0 3-1 5-3 7-2 2-5 3-8 3l-234 0c-4 0-6-1-8-3z"/>
<glyph glyph-name="enquiry1" unicode="&#52;" d="M356 512l-258 0c-17 0-31-14-31-31l0-449c0-17 14-32 31-32l315 0c18 0 32 15 32 32l0 383z m7-47l39-42-39 0z m55-433c0-3-2-5-5-5l-315 0c-3 0-5 2-5 5l0 449c0 2 2 5 5 5l239 0 0-77c0-7 6-13 13-13l68 0z m-278 340l223 0c6 0 10-5 10-10 0-5-4-10-10-10l-223 0c-6 0-10 5-10 10 0 5 4 10 10 10z m233-76c0-6-4-10-10-10l-223 0c-6 0-10 4-10 10 0 5 4 10 10 10l223 0c6 0 10-5 10-10z m0-64c0-6-4-10-10-10l-223 0c-6 0-10 4-10 10 0 5 4 9 10 9l223 0c6 0 10-4 10-9z m0-66c0-5-4-10-10-10l-223 0c-6 0-10 5-10 10 0 6 4 10 10 10l223 0c6 0 10-4 10-10z"/>
<glyph glyph-name="event" unicode="&#53;" d="M497 473l-101 0 0 21c0 8-7 15-15 15-9 0-16-7-16-15l0-21-218 0 0 21c0 8-7 15-16 15-8 0-15-7-15-15l0-21-101 0c-2 0-4 0-6-1-5-2-9-8-9-14l0-439c0-9 7-16 15-16l482 0c8 0 15 7 15 16l0 439c0 8-7 15-15 15z m-16-439l-450 0 0 296 450 0z m0 327l-450 0 0 81 85 0 0-20c0-8 7-15 15-15 9 0 16 7 16 15l0 20 218 0 0-20c0-8 7-15 16-15 8 0 15 7 15 15l0 20 85 0z m-303-204l-5-66c0-11 11-20 21-16l62 23 62-23c10-4 21 5 21 16l-5 66 43 51c7 8 3 21-8 24l-65 20-35 53c-6 9-20 9-26 0l-35-53-65-20c-11-3-15-16-8-24z m44 68c3 1 6 3 8 6l26 38 26-38c2-3 5-5 8-6l48-15-32-38c-2-3-3-7-3-11l3-49-45 17c-3 1-7 1-10 0l-45-17 3 49c0 4-1 8-3 11l-32 38z"/>
<glyph glyph-name="executive" unicode="&#54;" d="M378 182l-64 15 0 20c24 17 40 45 41 77 21 22 33 52 33 83l0 36c0 21-15 38-36 41-17 35-53 58-93 58l-14 0c-27 0-53-9-74-26-30-23-47-58-47-95l0-14c0-31 12-61 33-83 1-32 17-60 41-77l0-20-64-15c-50-11-84-54-84-105l0-77 412 0 0 77c0 51-34 94-84 105z m-57-4l-13-57-38 28 38 32z m-65-19l-41 35 0 13c12-5 26-9 41-9 15 0 29 4 41 9l0-13z m-99 213l0-51c-11 16-17 36-17 56l0 14c0 32 15 62 41 82 18 15 41 22 64 22l14 0c35 0 67-20 80-52l2-5 6 0c14 0 25-11 25-25l0-36c0-20-6-40-17-56l0 67-11 0c-16 0-31 8-40 21l-2 4-18 0-2-4c-14-23-39-37-66-37z m16-75l0 58 43 0c31 0 60 16 77 41 11-14 28-23 46-24l0-75c0-45-37-82-83-82-46 0-83 37-83 82z m31-116l38-32-38-28-13 57z m20-164l-75 0 0 33-17 0 0-33-66 0 0 60c0 43 29 80 71 89l38 8 18-81 28 21 10-10z m48 0l-32 0 8 93-13 14 21 14 21-15-13-13z m174 0l-66 0 0 33-17 0 0-33-75 0-7 87 10 10 28-21 18 81 38-8c42-9 71-46 71-89z"/>
<glyph glyph-name="expense" unicode="&#55;" d="M478 343l0 81c0 33-27 60-59 60l-360 0c-32 0-59-27-59-60l0-336c0-33 27-60 59-60l360 0c32 0 59 27 59 60l0 81c20 7 34 27 34 49l0 76c0 22-14 42-34 49z m-31-255c0-16-12-29-28-29l-360 0c-16 0-28 13-28 29l0 336c0 16 12 29 28 29l360 0c16 0 28-13 28-29l0-78-68 0c-50 0-90-40-90-90 0-50 40-90 90-90l68 0z m34 130c0-12-9-22-21-22l-81 0c-33 0-60 27-60 60 0 33 27 60 60 60l81 0c12 0 21-10 21-22z m-95 84c-26 0-47-20-47-46 0-26 21-46 47-46 25 0 46 20 46 46 0 26-21 46-46 46z m0-62c-9 0-16 7-16 16 0 9 7 16 16 16 8 0 16-7 16-16 0-9-8-16-16-16z"/>
<glyph glyph-name="expense1" unicode="&#56;" d="M136 416l0 27c6-2 9-5 9-9 0-4 4-8 8-8 5 0 8 4 8 8 0 13-10 23-25 26l0 1c0 5-4 8-8 8-5 0-8-3-8-8l0-1c-15-3-26-13-26-26 0-18 14-25 26-30l0-28c-6 2-10 6-10 10 0 4-3 8-8 8-4 0-8-4-8-8 0-13 11-23 26-26l0-1c0-5 3-8 8-8 4 0 8 3 8 8l0 1c15 3 25 13 25 26 0 18-14 25-25 30z m-16 6c-8 4-10 7-10 12 0 4 4 7 10 9z m16-46l0 22c8-4 9-7 9-12 0-4-3-8-9-10z m120 76l-68 0c-5 0-8-3-8-8 0-4 3-8 8-8l68 0c4 0 8 4 8 8 0 5-4 8-8 8z m-60-68l-8 0c-5 0-8-4-8-8 0-5 3-8 8-8l8 0c5 0 8 3 8 8 0 4-3 8-8 8z m146-60l-240 0c-4 0-8-4-8-8 0-5 4-8 8-8l240 0c4 0 8 3 8 8 0 4-4 8-8 8z m-163-51l-26 0c-4 0-8-4-8-8 0-5 4-8 8-8l26 0c4 0 8 3 8 8 0 4-4 8-8 8z m-60 0l-17 0c-4 0-8-4-8-8 0-5 4-8 8-8l17 0c5 0 8 3 8 8 0 4-3 8-8 8z m60-35l-26 0c-4 0-8-3-8-8 0-4 4-8 8-8l26 0c4 0 8 4 8 8 0 5-4 8-8 8z m-60 0l-17 0c-4 0-8-3-8-8 0-4 4-8 8-8l17 0c5 0 8 4 8 8 0 5-3 8-8 8z m60-34l-26 0c-4 0-8-3-8-8 0-4 4-8 8-8l26 0c4 0 8 4 8 8 0 5-4 8-8 8z m-60 0l-17 0c-4 0-8-3-8-8 0-4 4-8 8-8l17 0c5 0 8 4 8 8 0 5-3 8-8 8z m60-34l-26 0c-4 0-8-4-8-8 0-4 4-8 8-8l26 0c4 0 8 4 8 8 0 4-4 8-8 8z m-60 0l-17 0c-4 0-8-4-8-8 0-4 4-8 8-8l17 0c5 0 8 4 8 8 0 4-3 8-8 8z m60-34l-26 0c-4 0-8-4-8-8 0-5 4-8 8-8l26 0c4 0 8 3 8 8 0 4-4 8-8 8z m-60 0l-17 0c-4 0-8-4-8-8 0-5 4-8 8-8l17 0c5 0 8 3 8 8 0 4-3 8-8 8z m163 248l-9 0c-4 0-8-4-8-8 0-5 4-8 8-8l9 0c4 0 8 3 8 8 0 4-4 8-8 8z m42 0l-8 0c-5 0-8-4-8-8 0-5 3-8 8-8l8 0c5 0 8 3 8 8 0 4-3 8-8 8z m-85 0l-9 0c-4 0-8-4-8-8 0-5 4-8 8-8l9 0c4 0 8 3 8 8 0 4-4 8-8 8z m34 34l-85 0c-5 0-8-4-8-8 0-5 3-8 8-8l85 0c5 0 8 3 8 8 0 4-3 8-8 8z m154-128l-35 0 0 128c0 3-1 5-2 6l-86 86c-1 1-3 2-5 2l-223 0c-13 0-25-11-25-25l0-411c0-13 12-25 25-25l129 0 0-17c0-19 15-34 34-34l188 0c19 0 34 15 34 34l0 222c0 19-15 34-34 34z m-120 195l58-59-41 0c-9 0-17 8-17 18z m-102-229l0-189-129 0c-5 0-9 4-9 9l0 411c0 5 4 9 9 9l215 0 0-52c0-18 15-34 33-34l52 0 0-120-137 0c-19 0-34-15-34-34z m240-222c0-10-8-18-18-18l-188 0c-10 0-18 8-18 18l0 222c0 10 8 18 18 18l188 0c10 0 18-8 18-18z m-35 221l-154 0c-9 0-17-7-17-16l0-34c0-9 8-17 17-17l154 0c9 0 16 8 16 17l0 34c0 9-7 16-16 16z m0-50c0-1 0-1 0-1l-154 0c0 0-1 0-1 1l0 34c0 0 1 0 1 0l154 0c0 0 0 0 0 0l0-34z m-137-44l-17 0c-9 0-17-7-17-16l0-17c0-9 8-17 17-17l17 0c9 0 17 8 17 17l0 17c0 9-8 16-17 16z m1-33c0-1-1-1-1-1l-17 0c0 0-1 0-1 1l0 17c0 0 1 0 1 0l17 0c0 0 1 0 1 0z m136 33l-17 0c-9 0-17-7-17-16l0-17c0-9 8-17 17-17l17 0c9 0 16 8 16 17l0 17c0 9-7 16-16 16z m0-33c0-1 0-1 0-1l-17 0c0 0-1 0-1 1l0 17c0 0 1 0 1 0l17 0c0 0 0 0 0 0z m-68 33l-18 0c-9 0-16-7-16-16l0-17c0-9 7-17 16-17l18 0c9 0 16 8 16 17l0 17c0 9-7 16-16 16z m0-33c0-1 0-1 0-1l-18 0c0 0 0 0 0 1l0 17c0 0 0 0 0 0l18 0c0 0 0 0 0 0z m-69-35l-17 0c-9 0-17-7-17-17l0-17c0-9 8-16 17-16l17 0c9 0 17 7 17 16l0 17c0 10-8 17-17 17z m1-34c0 0-1 0-1 0l-17 0c0 0-1 0-1 0l0 17c0 1 1 1 1 1l17 0c0 0 1 0 1-1z m136 34l-17 0c-9 0-17-7-17-17l0-17c0-9 8-16 17-16l17 0c9 0 16 7 16 16l0 17c0 10-7 17-16 17z m0-34c0 0 0 0 0 0l-17 0c0 0-1 0-1 0l0 17c0 1 1 1 1 1l17 0c0 0 0 0 0-1z m-68 34l-18 0c-9 0-16-7-16-17l0-17c0-9 7-16 16-16l18 0c9 0 16 7 16 16l0 17c0 10-7 17-16 17z m0-34c0 0 0 0 0 0l-18 0c0 0 0 0 0 0l0 17c0 1 0 1 0 1l18 0c0 0 0 0 0-1z"/>
<glyph glyph-name="expense2" unicode="&#57;" d="M437 437c-48 48-113 75-181 75-68 0-133-27-181-75-48-48-75-113-75-181 0-68 27-133 75-181 48-48 113-75 181-75 68 0 133 27 181 75 48 48 75 113 75 181 0 68-27 133-75 181z m-181-407c-125 0-226 101-226 226 0 125 101 226 226 226 125 0 226-101 226-226 0-125-101-226-226-226z m16 241l-32 0c-18 0-33 15-33 33 0 19 15 33 33 33l64 0c8 0 15 7 15 15 0 9-7 15-15 15l-33 0 0 34c0 8-7 15-15 15-8 0-15-7-15-15l0-34-1 0c-35 0-63-28-63-63 0-35 28-63 63-63l32 0c18 0 33-15 33-33 0-19-15-33-33-33l-64 0c-8 0-15-7-15-15 0-9 7-15 15-15l33 0 0-34c0-8 7-15 15-15 8 0 15 7 15 15l0 34 1 0c35 0 63 28 63 63 0 35-28 63-63 63z"/>
<glyph glyph-name="facebook1" unicode="&#33;" d="M306 0l-130 0 0 181-55 0 0 120 55 0 0 81c0 71 59 130 131 130l84 0 0-130-64 0c-11 0-21-9-21-21l0-60 55 0 0-120-55 0z m-100 30l70 0 0 181 55 0 0 60-55 0 0 90c0 28 23 51 51 51l34 0 0 70-54 0c-56 0-101-45-101-100l0-111-55 0 0-60 55 0z"/>
<glyph glyph-name="fax" unicode="&#34;" d="M467 301l-76 0 0 105c0 41-34 75-75 75l-180 0c-8 0-15-7-15-15l0-165-76 0c-25 0-45-20-45-45l0-90c0-25 20-45 45-45l76 0 0-75c0-8 7-15 15-15l240 0c8 0 15 7 15 15l0 75 76 0c25 0 45 20 45 45l0 90c0 25-20 45-45 45z m-109 120l-27 0 0 27c13-4 23-14 27-27z m-207 30l150 0 0-45c0-8 7-15 15-15l45 0 0-90-210 0z m210-390l-210 0 0 90 210 0z m121 105c0-8-7-15-15-15l-76 0 0 15c0 8-7 15-15 15l-240 0c-8 0-15-7-15-15l0-15-76 0c-8 0-15 7-15 15l0 90c0 8 7 15 15 15l422 0c8 0 15-7 15-15z m-91 60c0-8-7-15-15-15-8 0-15 7-15 15 0 8 7 15 15 15 8 0 15-7 15-15z m-60 0c0-8-7-15-15-15-8 0-15 7-15 15 0 8 7 15 15 15 8 0 15-7 15-15z m-15-105l-120 0c-8 0-15-7-15-15 0-8 7-15 15-15l120 0c8 0 15 7 15 15 0 8-7 15-15 15z"/>
<glyph glyph-name="feedback" unicode="&#35;" d="M437 437c-48 48-113 75-181 75-68 0-133-27-181-75-93-93-100-242-17-343-11-24-25-39-40-47-10-5-15-15-13-25 1-10 9-18 20-20 5-1 11-1 18-1 31 0 64 10 92 29 37-19 79-30 121-30 68 0 133 27 181 75 48 48 75 113 75 181 0 68-27 133-75 181z m-21-341c-42-43-99-67-160-67-41 0-80 11-115 31-2 2-5 2-7 2-3 0-7-1-9-3-33-25-66-29-80-29 17 13 31 33 43 60 3 6 2 12-2 16-79 89-75 226 10 311 42 43 99 66 160 66 61 0 118-23 160-66 89-89 89-233 0-321z m-53 244l-214 0c-8 0-15-6-15-14 0-8 7-14 15-14l214 0c8 0 15 6 15 14 0 8-7 14-15 14z m0-70l-214 0c-8 0-15-6-15-14 0-8 7-14 15-14l214 0c8 0 15 6 15 14 0 8-7 14-15 14z m0-70l-214 0c-8 0-15-6-15-14 0-8 7-14 15-14l214 0c8 0 15 6 15 14 0 8-7 14-15 14z"/>
<glyph glyph-name="file-gst" unicode="&#36;" d="M329 512l-276 0 0-512 402 0 0 387z m32-435l-214 0c-5 0-8 3-8 8 0 6 3 9 8 9l214 0c5 0 8-3 8-9 0-5-5-8-8-8z m0 51l-214 0c-5 0-8 3-8 9 0 5 3 8 8 8l214 0c5 0 8-3 8-8 0-6-5-9-8-9z m0 51l-214 0c-5 0-8 3-8 9 0 5 3 8 8 8l214 0c5 0 8-3 8-8 0-6-5-9-8-9z m-43 196l0 120 119-120z m-129-86c-9 0-16-3-20-8-4-5-6-12-6-20 0-5 1-9 2-12 1-4 2-7 4-9 2-2 5-4 8-6 3-1 6-2 10-2 2 0 4 0 6 0 2 0 3 0 4 1l0 30 19 0 0-43c-2-1-6-2-11-3-5-1-12-2-19-2-7 0-12 1-18 3-5 2-10 5-13 9-4 4-7 9-9 14-2 6-3 12-3 20 0 7 1 13 3 19 2 6 6 10 10 14 4 4 8 7 14 9 5 2 11 3 17 3 4 0 7 0 11-1 3 0 6-1 8-2 2 0 4-1 6-2 2-1 3-1 4-2l-6-15c-3 1-6 2-9 3-4 1-8 2-12 2z m69-57c3 0 5 0 7 1 2 0 3 1 4 2 1 1 2 1 2 3 1 1 1 2 1 3 0 3-1 5-4 7-3 2-7 4-14 6-3 1-6 3-9 4-2 1-5 3-7 5-2 2-4 4-6 7-1 2-2 6-2 10 0 4 1 8 2 11 2 3 4 6 7 8 3 2 6 4 10 5 4 1 8 2 13 2 6 0 11-1 15-2 5-2 8-3 11-4l-6-16c-2 1-5 2-8 4-3 0-6 1-11 1-4 0-8-1-10-2-2-1-3-3-3-6 0-2 1-3 1-4 1-1 2-2 4-3 1-1 2-2 4-2 2-1 4-1 6-2 5-2 9-4 12-5 3-2 6-4 8-6 3-2 4-5 5-8 1-2 2-6 2-10 0-8-3-15-9-19-5-4-14-7-25-7-4 0-8 1-11 1-3 0-6 1-8 2-2 0-5 1-6 2-2 0-3 1-5 2l6 16c2-2 6-3 9-4 5-1 10-2 15-2z m111 72l0-17-26 0 0-70-19 0 0 70-26 0 0 17z"/>
<glyph glyph-name="filter" unicode="&#37;" d="M345 378l17 0c6 0 11 5 11 11 0 6-5 11-11 11l-17 0c-6 0-11-5-11-11 0-6 5-11 11-11z m165 99c-4 7-12 12-20 12l-468 0c-8 0-16-5-20-12-4-8-2-17 3-24l196-247 0-161c0-8 4-15 12-19 3-2 6-3 10-3 5 0 9 1 13 4l62 43c9 7 14 17 14 27l0 110 195 246c5 7 7 16 3 24z m-218-260c-2-1-3-4-3-6l0-113c0-4-1-7-4-10l-62-43 0 166c0 4-1 7-4 9l-126 158 202 0c6 0 11 5 11 11 0 6-5 11-11 11l-217 0c-1 0-2 0-2 0l-54 67 468 0z"/>
<glyph glyph-name="filter1" unicode="&#38;" d="M34 359l132 0c7-25 30-44 57-44 28 0 51 19 57 44l198 0c8 0 14 7 14 15 0 8-6 15-14 15l-198 0c-6 25-29 44-57 44-27 0-50-19-57-44l-132 0c-8 0-14-7-14-15 0-8 6-15 14-15z m189 45c17 0 30-13 30-30 0-16-13-30-30-30-16 0-30 14-30 30 0 17 14 30 30 30z m255-133l-32 0c-7 25-30 44-57 44-28 0-51-19-57-44l-298 0c-8 0-14-7-14-15 0-8 6-15 14-15l298 0c6-25 29-44 57-44 27 0 50 19 57 44l32 0c8 0 14 7 14 15 0 8-6 15-14 15z m-89-45c-17 0-30 14-30 30 0 16 13 30 30 30 16 0 29-14 29-30 0-16-13-30-29-30z m89-73l-287 0c-6 25-29 44-57 44-27 0-50-19-57-44l-43 0c-8 0-14-7-14-15 0-8 6-15 14-15l43 0c7-25 30-44 57-44 28 0 51 19 57 44l287 0c8 0 14 7 14 15 0 8-6 15-14 15z m-344-45c-16 0-29 13-29 30 0 16 13 30 29 30 17 0 30-14 30-30 0-17-13-30-30-30z"/>
<glyph glyph-name="fingerprint" unicode="&#39;" d="M287 202l0 36c0 15-12 26-26 26-14 0-26-11-26-26l0-33c0-39-15-77-41-106l-37-41c-3-3-2-9 1-12 3-3 9-2 12 1l36 41c29 32 46 74 46 117l0 33c0 5 4 10 9 10 5 0 9-5 9-10l0-36c0-49-18-95-50-131l-36-39c-3-4-3-9 1-12 1-2 3-2 5-2 2 0 5 1 6 2l36 40c35 39 55 89 55 142z m35 36c0 34-27 62-61 62-34 0-61-28-61-62l0-33c0-30-12-60-32-83l-26-29c-3-3-3-8 0-11 4-3 9-3 12 0l26 29c23 26 36 60 36 94l0 33c0 25 20 45 45 45 25 0 45-20 45-45l0-36c0-58-22-113-60-155l-30-33c-3-4-3-9 0-12 2-1 4-2 6-2 2 0 4 1 6 3l30 33c41 45 64 104 64 166z m36 0c0 54-44 97-97 97-53 0-97-43-97-97l0-33c0-22-8-43-23-59l-23-26c-3-3-3-9 1-12 3-3 8-2 11 1l24 26c17 19 27 44 27 70l0 33c0 45 36 80 80 80 44 0 80-35 80-80l0-36c0-66-24-130-69-179l-8-9c-3-3-3-9 0-12 2-1 4-2 6-2 2 0 4 1 6 3l8 9c48 52 74 120 74 190l0 36z m-229 0c0-4 4-8 8-8 5 0 8 4 8 8 0 28 11 55 29 76 18 21 43 35 70 39 5 0 8 5 7 9 0 5-4 8-9 7-31-4-60-20-81-44-21-24-32-55-32-87z m16-33c0 5-3 9-8 9-4 0-8-4-8-9 0-13-5-26-14-35l-21-23c-3-4-3-9 1-12 1-2 3-2 5-2 3 0 5 1 7 2l20 24c12 12 18 29 18 46z m232-74c-5 2-9-1-10-5-3-12-7-24-12-35-1-4 1-9 5-11 1 0 2 0 3 0 3 0 7 2 8 5 4 12 9 24 12 36 1 5-2 9-6 10z m-28 206c-3 3-8 2-11-1-4-3-3-9 0-12 25-22 39-53 39-86l0-36c0-14-1-28-3-41-1-5 2-9 7-10 0 0 1 0 1 0 4 0 8 3 8 7 2 15 3 29 3 44l0 36c0 38-16 74-44 99z m-39 6c2-1 3-1 4-1 3 0 6 2 7 5 2 4 1 9-3 11-12 5-25 9-38 11-5 1-9-2-10-7 0-4 3-9 7-9 12-2 23-5 33-10z m-49 63c-3 0-6 0-9 0-5-1-8-5-8-9 0-5 4-8 9-8 2 0 5 0 8 0 83 0 151-67 151-151l0-36c0-5 4-8 8-8 5 0 8 3 8 8l0 36c0 93-75 168-167 168z m-91-45c2 0 4 0 5 1 14 10 29 17 45 22 4 1 7 5 6 10-1 4-6 7-10 6-18-5-35-13-50-24-4-3-5-8-3-12 2-2 5-3 7-3z m-60-156l0 33c0 39 15 76 41 104 3 3 3 8 0 11-4 4-9 3-12 0-29-31-46-72-46-115l0-33c0-4-1-8-4-12l-10-11c-4-3-3-9 0-12 2-1 4-2 6-2 2 0 4 1 6 3l10 11c6 7 9 15 9 23z m343 98c-9 27-23 51-43 72-3 4-8 4-11 1-4-3-4-8-1-12 18-19 31-42 40-66 1-4 4-6 7-6 1 0 2 0 3 0 4 2 7 7 5 11z m-127 127c-4 2-9 0-10-5-2-4 1-9 5-10 18-7 36-16 51-27 2-1 3-2 5-2 3 0 5 1 7 3 3 4 2 9-2 12-17 13-36 23-56 29z m-194-57c35 33 81 52 129 52 9 0 18-1 27-2 4-1 8 2 9 7 1 4-2 8-7 9-10 2-19 2-29 2-53 0-102-20-140-56-38-37-60-85-63-137 0-5 4-9 8-9 0 0 0 0 1 0 4 0 8 3 8 8 2 48 22 92 57 126z m129 104c-19 0-37-3-55-7-4-1-7-5-6-10 1-4 5-7 10-6 16 4 34 6 51 6 61 0 118-24 160-68 1-2 4-3 6-3 2 0 4 1 6 3 3 3 3 8 0 11-22 23-48 41-77 54-30 13-62 20-95 20z m-186-104c1-1 3-1 5-1 2 0 5 1 6 3 24 30 55 54 90 68 5 2 7 7 5 11-2 4-7 6-11 5-38-16-71-42-97-74-3-4-2-9 2-12z m71 96c1 0 2 0 4 1 34 17 72 25 111 25 20 0 41-2 60-7 5-1 9 2 10 6 1 5-2 9-6 10-21 5-42 8-64 8-42 0-81-9-119-27-4-2-6-7-4-11 2-3 5-5 8-5z m210 8c8-3 17-7 25-11 1-1 2-1 4-1 3 0 6 1 7 4 2 4 1 9-3 11-9 5-18 9-27 13-4 1-9-1-11-5-2-4 1-9 5-11z"/>
<glyph glyph-name="fingerprint-1" unicode="&#40;" d="M160 89c-15 28-23 62-23 99 0 62 53 112 119 112 66 0 119-50 119-112 0-7 6-13 13-13 7 0 13 6 13 13 0 76-65 138-145 138-80 0-145-62-145-138 0-41 9-80 27-111 17-31 29-45 51-68 3-2 6-3 10-3 3 0 6 1 8 3 5 5 5 13 0 18-19 20-30 33-47 62z m-46 361c44 24 91 36 142 36 51 0 94-10 143-36 2-1 4-1 6-1 4 0 9 2 11 7 3 6 1 14-5 17-53 27-100 39-155 39-55 0-107-13-155-39-6-4-8-11-5-18 4-6 11-8 18-5z m141-62c-82 0-158-46-192-117-12-24-18-52-18-83 0-35 6-68 19-101 3-7 10-10 16-8 7 3 10 10 8 17-15 40-17 72-17 92 0 27 5 51 15 72 30 62 96 103 169 103 102 0 186-79 186-175 0-28-24-50-54-50-29 0-53 23-53 50 0 42-35 75-79 75-43 0-79-33-79-75 0-51 20-98 56-134 28-27 54-42 95-53 1-1 2-1 3-1 6 0 11 4 13 9 2 7-3 14-9 16-36 10-60 23-84 47-31 31-48 72-48 116 0 27 24 50 53 50 30 0 53-23 53-50 0-42 36-76 79-76 44 0 79 34 79 76 0 110-95 200-211 200z m229-53c-25 36-58 64-96 84-81 41-183 41-264-1-38-20-71-48-96-84-4-5-3-13 3-17 2-2 5-3 7-3 4 0 8 2 11 6 23 32 52 58 87 76 73 37 167 38 240 0 35-18 64-43 87-75 4-6 12-8 18-3 6 4 7 12 3 17z m-75-254c-11-2-21-3-27-3-26 0-47 6-65 19-31 21-50 55-50 91 0 7-5 13-12 13-7 0-13-6-13-13 0-45 23-87 61-112 22-15 48-23 79-23 4 0 16 0 31 3 7 1 12 8 11 15-2 6-8 11-15 10z"/>
<glyph glyph-name="fire-noc" unicode="&#41;" d="M337 464l-144 0c0 7-5 13-11 15l-96 32c-5 2-11 1-15-2-4-3-7-8-7-13l0-96c0-5 3-10 7-13 3-2 6-3 10-3 1 0 3 0 5 1l96 32c6 2 11 8 11 15l15 0 0-59c-38-18-64-56-64-101l0-256c0-9 8-16 17-16l192 0c8 0 15 7 15 16l0 256c0 45-25 83-64 101l0 59 33 0c44 0 79-36 79-80l0-64c0-9 7-16 16-16 9 0 16 7 16 16l0 64c0 62-50 112-111 112z m-177-20l-64-22 0 52 64-22z m177-172l0-240-161 0 0 240c0 44 36 80 81 80 44 0 80-36 80-80z m-65 111c-5 0-10 1-15 1-6 0-11-1-16-1l0 49 31 0z"/>
<glyph glyph-name="floor" unicode="&#42;" d="M503 51l-25 0 0 452c0 6-4 9-9 9l-426 0c-5 0-9-3-9-9l0-452-25 0c-6 0-9-3-9-8l0-34c0-6 3-9 9-9l494 0c6 0 9 3 9 9l0 34c0 5-3 8-9 8z m-452 444l410 0 0-444-128 0 0 94c0 5-4 9-9 9l-136 0c-5 0-9-4-9-9l0-94-128 0z m145-444l0 86 51 0 0-86z m69 86l51 0 0-86-51 0z m230-120l-478 0 0 17 478 0z m-333 452l-68 0c-5 0-9-3-9-8l0-51c0-6 4-9 9-9l68 0c5 0 9 3 9 9l0 51c0 5-4 8-9 8z m-8-51l-52 0 0 34 52 0z m8-43l-68 0c-5 0-9-3-9-8l0-51c0-5 4-9 9-9l68 0c5 0 9 4 9 9l0 51c0 5-4 8-9 8z m-8-51l-52 0 0 34 52 0z m68-17l68 0c5 0 9 4 9 9l0 51c0 5-4 8-9 8l-68 0c-5 0-9-3-9-8l0-51c0-5 4-9 9-9z m8 51l52 0 0-34-52 0z m120-51l68 0c5 0 9 4 9 9l0 51c0 5-4 8-9 8l-68 0c-5 0-9-3-9-8l0-51c0-5 4-9 9-9z m8 51l52 0 0-34-52 0z m-136-145l68 0c5 0 9 4 9 9l0 51c0 5-4 9-9 9l-68 0c-5 0-9-4-9-9l0-51c0-5 4-9 9-9z m8 52l52 0 0-35-52 0z m120-52l68 0c5 0 9 4 9 9l0 51c0 5-4 9-9 9l-68 0c-5 0-9-4-9-9l0-51c0-5 4-9 9-9z m8 52l52 0 0-35-52 0z m-196 17l-68 0c-5 0-9-4-9-9l0-51c0-5 4-9 9-9l68 0c5 0 9 4 9 9l0 51c0 5-4 9-9 9z m-8-52l-52 0 0 35 52 0z m68 171l68 0c5 0 9 3 9 9l0 51c0 5-4 8-9 8l-68 0c-5 0-9-3-9-8l0-51c0-6 4-9 9-9z m8 51l52 0 0-34-52 0z m120-51l68 0c5 0 9 3 9 9l0 51c0 5-4 8-9 8l-68 0c-5 0-9-3-9-8l0-51c0-6 4-9 9-9z m8 51l52 0 0-34-52 0z m-153-281l102 0c5 0 9 3 9 8 0 5-4 9-9 9l-102 0c-5 0-9-4-9-9 0-5 4-8 9-8z"/>
<glyph glyph-name="floor-1" unicode="&#43;" d="M512 256c0 11-6 21-16 25l-38 19 38 20c0 0 0 0 0 0 10 4 16 14 16 25 0 11-6 20-16 25l-215 108c-16 8-34 8-50 0l-215-108c-10-5-16-14-16-25 0-11 6-21 16-25l38-20-38-19c-10-4-16-14-16-25 0-11 6-21 16-25l38-19-38-20c-10-4-16-14-16-25 0-11 6-20 16-25l215-108c8-4 16-6 25-6 9 0 17 2 25 6l215 108c10 5 16 14 16 25 0 11-6 21-16 25l-38 20 38 19c10 4 16 14 16 25z m-486 85c-2 1-2 3-2 4 0 1 0 3 2 4l215 108c5 2 10 3 15 3 5 0 10-1 15-3l215-108c2-1 2-3 2-4 0-1 0-3-2-4l-215-108c-10-5-20-5-30 0z m460-170c2-1 2-3 2-4 0-1 0-3-2-4l-215-108c-10-4-20-4-30 0l-215 108c-2 1-2 3-2 4 0 1 0 3 2 4l54 27 151-75c8-4 16-6 25-6 9 0 17 2 25 6l151 75z m0 81l-215-108c-10-5-20-5-30 0l-215 108c-2 1-2 3-2 4 0 1 0 3 2 4l54 27 151-75c8-4 16-6 25-6 9 0 17 2 25 6l151 75 54-27c2-1 2-3 2-4 0-1 0-3-2-4z"/>
<glyph glyph-name="followup" unicode="&#44;" d="M449 391c9 7 10 20 2 28-3 4-7 8-11 12 0 0 0 0 0 0 0 0 0 0 0 0 0 0 0 0 0 0l0 0c-47 47-109 73-176 73-59 0-116-21-161-59l-34 34c-5 5-12 7-19 5-7-2-13-7-14-14l-35-130c-2-7 0-15 5-20 4-4 9-6 14-6 2 0 4 0 5 1l131 35c7 2 12 7 14 14 2 7 0 14-5 20l-33 32c37 31 83 48 132 48 56 0 108-22 147-61 0 0 0 0 0 0 0 0 0 0 0 0 4-3 7-7 10-10 4-5 9-7 15-7 5 0 10 2 13 5z m-240-336c-9 2-18 6-27 9-10 5-22 0-26-10-4-11 0-23 11-27 10-4 20-8 31-11 2 0 4-1 6-1 8 0 17 6 19 15 3 11-3 22-14 25z m93-4c-10-2-19-3-28-3-11-1-20-10-20-21 1-11 10-20 21-20 0 0 0 0 0 0 12 1 23 2 34 4 11 2 18 13 16 24-2 11-13 18-23 16z m154 287c3-9 6-18 9-27 2-9 10-15 19-15 2 0 4 1 6 1 10 3 17 14 14 25-3 11-7 21-11 31-5 11-17 15-27 11-10-4-15-16-10-26z m-69-251c-8-5-16-10-24-15-10-5-13-17-8-27 3-7 10-11 18-11 3 0 6 1 9 3 10 5 19 11 28 18 9 6 11 19 5 28-7 9-19 11-28 4z m88 78c-10 6-22 2-27-8-5-8-10-16-15-24-7-9-5-21 4-28 4-2 8-4 12-4 6 0 12 3 16 9 7 9 13 18 18 28 5 10 2 22-8 27z m18 101c0 0 0 0-1 0-10 0-19-9-20-20 0-9-1-18-3-27-2-11 5-22 16-24 2 0 3 0 4 0 10 0 18 7 20 16 2 11 3 23 3 34 1 11-8 20-19 21z m-376-158c-8 8-21 8-28 0-8-7-8-20 0-28 3-4 8-8 12-11 3-4 8-5 13-5 5 0 11 2 15 7 7 8 7 21-2 28-3 3-7 6-10 9z"/>
<glyph glyph-name="forgot-password" unicode="&#45;" d="M298 166c0-11-9-20-20-20-11 0-20 9-20 20 0 11 9 20 20 20 11 0 20-9 20-20z m47-126l-249 0c-22 0-40 18-40 40l0 164c0 22 18 40 40 40l288 0c4 0 8 0 11-1 11-3 22 3 25 13 3 11-3 22-14 25-7 2-14 3-22 3l-24 0 0 71c0 64-54 117-120 117-66 0-120-53-120-117l0-71-24 0c-44 0-80-36-80-80l0-164c0-44 36-80 80-80l249 0c11 0 20 9 20 20 0 11-9 20-20 20z m-185 355c0 42 36 77 80 77 44 0 80-35 80-77l0-71-160 0z m63-229c0-11-9-20-20-20-11 0-20 9-20 20 0 11 9 20 20 20 11 0 20-9 20-20z m273 15c0 39-32 70-71 70-39 0-71-32-71-71 0-11 9-20 20-20 11 0 20 9 20 20 0 17 14 31 31 31 17 0 31-14 31-31 0 0 0 0 0-1 0-12-8-23-19-28-19-8-32-27-32-49l0-17c0-11 9-20 20-20 11 0 20 9 20 20l0 17c0 6 3 11 8 13 26 11 43 36 43 65 0 0 0 1 0 1z m-51-161c0-11-9-20-20-20-11 0-20 9-20 20 0 11 9 20 20 20 11 0 20-9 20-20z m-297 146c0-11-9-20-20-20-11 0-20 9-20 20 0 11 9 20 20 20 11 0 20-9 20-20z"/>
<glyph glyph-name="gold" unicode="&#46;" d="M333 262l31-140-253 0 31 140 191 0m5 31l-201 0c-12 0-23-9-23-20l-40-162c-3-11 3-20 14-20l296 0c11 0 20 9 14 20l-40 162c6 11-8 20-20 20z m-238 63l62 19-60 20-20 60-19-60-60-20 60-19 14-60z m364-94l42 11-42 11-12 43-11-43-43-11 43-11 11-43z"/>
<glyph glyph-name="google-plus" unicode="&#47;" d="M237 19c-131 0-237 106-237 237 0 131 106 237 237 237 40 0 79-10 113-28 25-14 35-46 21-71-9-17-27-28-46-28-9 0-17 2-25 6-19 11-41 16-63 16-73 0-132-59-132-132 0-73 59-132 132-132 53 0 101 32 122 79l-62 0c-29 0-52 24-52 53 0 29 23 53 52 53l125 0c29 0 52-24 52-53 0-131-106-237-237-237z m0 447c-115 0-209-94-209-210 0-116 94-210 209-210 116 0 210 94 210 210 0 14-11 25-25 25l-125 0c-13 0-25-11-25-25 0-14 12-25 25-25l99 0-5-17c-19-70-82-118-154-118-88 0-160 72-160 160 0 88 72 160 160 160 27 0 53-7 76-19 4-2 8-3 12-3 9 0 18 5 22 13 6 12 2 27-10 33-31 17-65 26-100 26z m258-37l-27 0 0 28c0 7-6 14-14 14-8 0-14-7-14-14l0-28-28 0c-7 0-13-6-13-14 0-7 6-13 13-13l28 0 0-28c0-8 6-14 14-14 8 0 14 6 14 14l0 28 27 0c8 0 14 6 14 13 0 8-6 14-14 14z m-41-72c-9 0-17 8-17 17l0 25-25 0c-9 0-16 7-16 16 0 10 7 17 16 17l25 0 0 25c0 9 8 16 17 16 9 0 17-7 17-16l0-25 24 0c10 0 17-7 17-17 0-9-7-16-17-16l-24 0 0-25c0-9-8-17-17-17z m-42 69c-6 0-11-5-11-11 0-6 5-11 11-11l31 0 0-30c0-6 5-11 11-11 6 0 11 5 11 11l0 30 30 0c7 0 11 5 11 11 0 6-4 11-11 11l-30 0 0 31c0 6-5 11-11 11-6 0-11-5-11-11l0-31-31 0z"/>
<glyph glyph-name="history" unicode="&#58;" d="M256 352l0-112c0-4 2-8 5-11l80-80 22 22-75 76 0 105z m32 128c-113 0-206-84-221-192l-67 0 80-80 80 80-61 0c15 91 94 160 189 160 106 0 192-86 192-192 0-106-86-192-192-192-60 0-115 27-151 74l-26-20c43-55 108-86 177-86 124 0 224 100 224 224 0 123-100 224-224 224z"/>
<glyph glyph-name="home" unicode="&#59;" d="M508 278l-252 234-252-234c-3-3-3-8 0-12 3-4 9-4 12 0l29 27 0-293 422 0 0 293 29-27c1-2 3-3 6-3 2 0 4 1 6 3 3 4 3 9 0 12z m-305-260l0 140c0 29 24 53 53 53 29 0 53-24 53-53l0-140z m246 0l-123 0 0 140c0 39-31 70-70 70-39 0-70-31-70-70l0-140-123 0 0 291 193 179 193-179z"/>
<glyph glyph-name="id-card" unicode="&#60;" d="M467 436l-422 0c-25 0-45-20-45-45l0-270c0-25 20-45 45-45l422 0c25 0 45 20 45 45l0 270c0 25-20 45-45 45z m15-315c0-8-7-15-15-15l-422 0c-8 0-15 7-15 15l0 270c0 8 7 15 15 15l422 0c8 0 15-7 15-15z m-295 139c8 10 13 22 13 36 0 30-25 55-55 55-30 0-55-25-55-55 0-14 5-26 13-36-25-15-43-42-43-74l0-10c0-8 7-15 15-15l140 0c8 0 15 7 15 15l0 10c0 32-18 59-43 74z m-67 36c0 14 11 25 25 25 14 0 25-11 25-25 0-14-11-25-25-25-14 0-25 11-25 25z m-30-105c3 28 26 50 55 50 29 0 52-22 55-50z m347 20l-160 0c-8 0-15-7-15-15 0-8 7-15 15-15l160 0c8 0 15 7 15 15 0 8-7 15-15 15z m0 60l-160 0c-8 0-15-7-15-15 0-8 7-15 15-15l160 0c8 0 15 7 15 15 0 8-7 15-15 15z m-160 30l60 0c8 0 15 7 15 15 0 8-7 15-15 15l-60 0c-8 0-15-7-15-15 0-8 7-15 15-15z"/>
<glyph glyph-name="insurance" unicode="&#61;" d="M471 380c-1 14-1 27-1 40 0 10-8 18-18 18-77 0-135 22-184 69-6 7-18 7-25 0-48-47-106-69-183-69-10 0-18-8-18-18 0-13 0-26-1-40-2-128-5-305 209-379 2-1 4-1 6-1 2 0 4 0 6 1 214 74 211 251 209 379z m-215-343c-184 67-181 213-179 342 0 8 1 16 1 23 71 3 129 25 178 68 49-43 107-65 178-68 0-7 1-15 1-23 2-129 5-275-179-342z m62 281l-87-86-37 37c-7 7-18 7-25 0-7-7-7-19 0-26l50-49c3-4 8-6 12-6 5 0 9 2 13 6l99 99c7 7 7 18 0 25-7 7-18 7-25 0z"/>
<glyph glyph-name="key" unicode="&#62;" d="M396 372c0-18-14-32-32-32-18 0-32 14-32 32 0 18 14 32 32 32 18 0 32-14 32-32z m110-26c-10 27-30 66-62 99-33 32-72 51-99 62-29 11-63 4-85-18l-78-79c-24-23-30-58-17-88 4-10 8-19 13-27l-172-173c-4-4-6-9-6-14l0-88c0-11 9-20 20-20l88 0c11 0 20 9 20 20l0 36 36 0c11 0 20 9 20 20l0 36 36 0c11 0 20 9 20 20 0 11-9 20-20 20l-56 0c-11 0-20-9-20-20l0-36-36 0c-11 0-20-9-20-20l0-36-48 0 0 60 177 177c7 7 8 17 3 25-7 11-13 23-19 36-6 15-3 33 9 44l78 78c12 11 28 15 43 9 23-9 57-25 84-52 28-28 45-62 54-86 6-14 3-31-9-42l-79-79c-12-12-29-15-44-9-13 5-25 11-36 18-10 6-22 3-28-6-6-10-3-22 7-28 13-8 27-15 41-21 31-12 65-6 88 17l79 79c23 23 30 56 18 86z"/>
<glyph glyph-name="land-phone" unicode="&#63;" d="M395 292c-10 17-28 28-47 28l-184 0c-19 0-38-11-47-28l-68-128c-4-8-6-17-6-25l0-75c0-24 19-43 42-43l342 0c23 0 42 19 42 43l0 75c0 8-2 17-6 25z m53-228c0-12-10-21-21-21l-342 0c-11 0-21 9-21 21l0 75c0 5 1 10 4 15l68 128c6 10 16 17 28 17l184 0c12 0 22-7 28-17l68-128c3-5 4-10 4-15z m-235 171c0-12-9-22-21-22-12 0-21 10-21 22 0 11 9 21 21 21 12 0 21-10 21-21z m0-64c0-12-9-22-21-22-12 0-21 10-21 22 0 11 9 21 21 21 12 0 21-10 21-21z m0-64c0-12-9-22-21-22-12 0-21 10-21 22 0 11 9 21 21 21 12 0 21-10 21-21z m64 0c0-12-9-22-21-22-12 0-21 10-21 22 0 11 9 21 21 21 12 0 21-10 21-21z m64 0c0-12-9-22-21-22-12 0-21 10-21 22 0 11 9 21 21 21 12 0 21-10 21-21z m-64 64c0-12-9-22-21-22-12 0-21 10-21 22 0 11 9 21 21 21 12 0 21-10 21-21z m64 0c0-12-9-22-21-22-12 0-21 10-21 22 0 11 9 21 21 21 12 0 21-10 21-21z m-64 64c0-12-9-22-21-22-12 0-21 10-21 22 0 11 9 21 21 21 12 0 21-10 21-21z m64 0c0-12-9-22-21-22-12 0-21 10-21 22 0 11 9 21 21 21 12 0 21-10 21-21z m162 148c-66 69-154 108-247 108-93 0-181-39-247-108-6-6-9-14-9-22 0-8 3-16 9-22l49-52c11-12 32-12 44 0 16 17 35 31 55 42 10 5 17 17 17 27l7 56c54 17 97 17 150 0l7-55c0-11 6-22 17-28 20-11 39-25 55-42 6-6 14-10 22-10 8 0 16 4 22 10l49 52c6 6 9 13 9 21 0 8-3 17-9 23z m-15-30l-50-52c-3-3-9-3-12 0-18 19-39 35-61 47-3 2-5 5-6 11l-8 62c0 4-3 8-7 9-31 11-59 16-88 16-28 0-57-5-88-16-4-1-7-4-7-9l-9-64c0-4-2-7-5-9-22-12-43-27-61-46-3-4-9-4-13 0l-49 51c-4 4-4 11 0 15 62 65 144 101 232 101 88 0 170-36 232-101 4-4 4-11 0-15z"/>
<glyph glyph-name="lead" unicode="&#64;" d="M451 343c-3 7-10 11-17 11l-57 0c-5 27-28 47-56 47-28 0-51-20-56-47l-58 0c5 7 7 15 7 24 0 24-19 44-44 44-24 0-44-20-44-44 0-9 3-17 8-24l-47 0c-8 0-15-4-18-11-4-6-3-14 1-20l134-200 0-113c0-3 2-7 5-8 1-1 3-2 5-2 2 0 3 0 4 1l92 40c4 1 6 5 6 9l0 73 134 200c5 6 5 14 1 20z m-130 38c17 0 31-11 36-27l-72 0c5 16 19 27 36 27z m-151 21c14 0 24-11 24-24 0-13-10-24-24-24-13 0-24 11-24 24 0 13 11 24 24 24z m128-270c-1-2-2-4-2-6l0-69-72-32 0 91 36 0c6 0 10 5 10 10 0 6-4 10-10 10l-40 0-101 150 202 0c5 0 10 4 10 10 0 6-5 10-10 10l-216 0-18 28 347 0z m-4 380c-24 0-44-20-44-44 0-24 20-44 44-44 25 0 44 20 44 44 0 24-19 44-44 44z m0-68c-13 0-24 11-24 24 0 13 11 24 24 24 14 0 24-11 24-24 0-13-10-24-24-24z m107 20c-5 0-10-5-10-10l0-57c0-6 5-10 10-10 6 0 10 4 10 10l0 57c0 5-4 10-10 10z m7 30c-2 1-4 2-7 2-2 0-5-1-7-2-2-2-3-5-3-8 0-2 1-5 3-7 2-1 5-3 7-3 3 0 5 2 7 3 2 2 3 5 3 7 0 3-1 6-3 8z m-204 5c-5 0-10-4-10-10l0-41c0-5 5-10 10-10 6 0 10 5 10 10l0 41c0 6-4 10-10 10z m-136 13c-5 0-10-4-10-10l0-65c0-6 5-10 10-10 6 0 10 4 10 10l0 65c0 6-4 10-10 10z m7-106c-2 2-4 3-7 3-2 0-5-1-7-3-2-1-3-4-3-7 0-2 1-5 3-7 2-2 5-3 7-3 3 0 5 1 7 3 2 2 3 5 3 7 0 3-1 6-3 7z m297-103c-1 2-4 3-7 3-2 0-5-1-7-3-2-2-3-4-3-7 0-3 1-5 3-7 2-2 5-3 7-3 3 0 6 1 7 3 2 2 3 4 3 7 0 3-1 5-3 7z"/>
<glyph glyph-name="leave" unicode="&#91;" d="M469 208l0 219c0 23-19 42-42 42l-64 0 0 32c0 6-5 11-11 11-6 0-11-5-11-11l0-32-192 0 0 32c0 6-4 11-10 11-6 0-11-5-11-11l0-32-85 0c-24 0-43-19-43-42l0-342c0-23 19-42 43-42l261 0c22-26 54-43 91-43 64 0 117 53 117 117 0 37-17 69-43 91z m-448 219c0 11 10 21 22 21l85 0 0-21c-12 0-21-10-21-22 0-11 9-21 21-21 12 0 21 10 21 21l0 43 192 0 0-21c-11 0-21-10-21-22 0-11 10-21 21-21 12 0 22 10 22 21l0 43 64 0c11 0 21-10 21-21l0-64-427 0z m22-363c-12 0-22 10-22 21l0 256 427 0 0-119c-16 8-34 13-53 13-65 0-118-53-118-118 0-19 5-37 13-53z m352-43c-53 0-96 43-96 96 0 53 43 96 96 96 53 0 96-43 96-96 0-53-43-96-96-96z m42 107l-32 0 0 32c0 6-4 11-10 11-6 0-11-5-11-11l0-32-32 0c-6 0-11-5-11-11 0-6 5-10 11-10l32 0 0-32c0-6 5-11 11-11 6 0 10 5 10 11l0 32 32 0c6 0 11 4 11 10 0 6-5 11-11 11z"/>
<glyph glyph-name="ledger" unicode="&#93;" d="M364 512l-270 0c-32 0-58-26-58-57l0-25-26 0c-7 0-12-5-12-11 0-7 5-12 12-12l26 0 0-75-26 0c-7 0-12-5-12-11 0-6 5-12 12-12l26 0 0-74-26 0c-7 0-12-6-12-12 0-6 5-11 12-11l26 0 0-75-26 0c-7 0-12-5-12-12 0-6 5-11 12-11l26 0 0-25c0-31 26-57 57-57l270 0c32 0 58 26 58 57l0 366c0 31-26 57-57 57z m34-423c0-19-15-34-34-34l-270 0c-19 0-35 15-35 34l0 25 27 0c6 0 11 5 11 11 0 7-5 12-11 12l-27 0 0 75 27 0c6 0 11 5 11 11 0 6-5 12-11 12l-27 0 0 74 27 0c6 0 11 6 11 12 0 6-5 11-11 11l-27 0 0 75 27 0c6 0 11 5 11 12 0 6-5 11-11 11l-27 0 0 25c0 19 16 34 35 34l270 0c19 0 34-15 34-34z m-85 257c7 0 13 6 13 13 0 7-6 13-13 13l-114 0c-7 0-13-6-13-13 0-7 6-13 13-13l33 0c15 0 27-8 33-22l-66 0c-7 0-13-6-13-13 0-7 6-13 13-13l66 0c-6-13-18-23-33-23l-33 0c-5 0-10-3-12-8-2-6-1-11 3-15l81-77c6-5 14-4 19 1 5 5 5 13-1 18l-57 55c29 0 54 20 60 49l21 0c7 0 13 6 13 13 0 7-6 13-13 13l-21 0c-2 8-5 15-10 22l31 0z"/>
<glyph glyph-name="lift" unicode="&#94;" d="M96 512l0-512 320 0 0 256-32 0 0-224-256 0 0 448 256 0 0-64 32 0 0 96z m288-128l32 0 0-32-32 0z m0-64l32 0 0-32-32 0z m-87 110c-13 22-41 30-64 18-7-5-13-11-18-18l-49-89c-13-22-5-51 18-63 7-4 15-6 23-6l98 0c26 0 47 21 47 47 0 8-2 15-6 22z m21-119c-3-4-7-7-13-7l-98 0c-8 0-15 7-15 15 0 2 1 4 2 7l49 88c4 7 13 10 20 6 2-2 4-4 6-6l49-88c3-5 3-10 0-15z m-103-229c13-22 41-30 64-18 7 5 13 11 18 18l49 89c13 22 5 51-18 63-7 4-15 6-23 6l-98 0c-26 0-47-21-47-47 0-8 2-15 6-22z m-15 124c2 1 4 2 7 2l98 0c8 0 15-7 15-15 0-2-1-4-2-7l-49-88c-4-7-13-10-20-6-2 2-4 4-6 6l-49 88c-4 7-2 16 6 20z"/>
<glyph glyph-name="location" unicode="&#95;" d="M72 415c-16 0-29-13-29-30 0-16 13-29 29-29 17 0 30 13 30 29 0 17-13 30-30 30z m0-38c-4 0-8 4-8 8 0 5 4 9 8 9 5 0 9-4 9-9 0-4-4-8-9-8z m420-53l0 76c0 14-12 26-27 26l-333 0c-2 4-5 8-9 11-14 14-32 21-52 21-39-1-71-33-71-72 0-12 3-23 8-34 0 0 17-29 17-29l0-242c0-15 12-27 27-27l413 0c15 0 27 12 27 27l0 140c0 0 12 20 12 20 5 10 8 22 8 33 0 19-7 37-20 50z m-73 81l-51-52-52 52z m-65-65l-90-90-33 33c0 0 0 0 0 0 0 0 0 0 0 0l-24 24 90 90z m-179-127l50 50 63-64-49-49z m12-39l-55-55-44 44 55 55z m-50 178c5 10 8 22 8 33 0 7-1 14-3 20l135 0-84-84-30 30c-3 4-9 4-13 0-4-4-4-10 0-14l61-61-49-49-40 40c-4 3-10 3-14 0-3-4-3-10 0-14l22-21-83-83 0 139 7-13c4-7 11-11 18-11 8 0 15 4 19 11 0 0 46 77 46 77z m-110 10c-4 8-6 15-6 24 0 27 23 50 51 50 14 1 27-5 36-14 4-4 7-7 9-11 0-1 0-1 0-1 4-7 7-16 7-25 0-8-2-15-6-23l-46-76z m25-286c-3 0-5 2-5 5l0 41 27 28 74-74z m123 0l-29 29 55 56 85-85z m77 60l50 50 35-36-49-50z m61-60l-11 11 49 49 61-60z m152 0l-26 0-74 74 22 22c4 4 4 10 0 14-4 3-10 3-14 0l-22-23-43 43c0 0 0 0 0 0 0 0 0 0 0 0l-30 31 36 36 19-19c2-2 5-3 8-3 2 0 5 1 7 3 4 4 4 11 0 15l-19 19 117 117 19 0c3 0 6-3 6-5l0-60c-10 4-21 7-32 7-40-1-72-33-72-72 0-12 3-23 8-34 0 0 46-77 46-77 4-7 11-11 19-11 7 0 14 4 18 11l13 21 0-104 0 0c0-3-3-5-6-5z m20 175l-13-22c0 0 0 0 0 0l-32-54-46 76c-4 8-6 15-6 24 1 27 23 50 51 50 14 1 27-5 36-14 10-10 16-23 16-37 0-8-2-16-6-23z m-45 53c-17 0-30-13-30-30 0-16 13-29 30-29 16 0 29 13 29 29 0 17-13 30-29 30z m0-38c-5 0-9 4-9 8 0 5 4 9 9 9 4 0 8-4 8-9 0-4-4-8-8-8z"/>
<glyph glyph-name="logout" unicode="&#96;" d="M321 140l40 0 0-80c0-33-27-60-60-60l-241 0c-33 0-60 27-60 60l0 392c0 33 27 60 60 60l241 0c33 0 60-27 60-60l0-80-40 0 0 80c0 11-9 20-20 20l-241 0c-11 0-20-9-20-20l0-392c0-11 9-20 20-20l241 0c11 0 20 9 20 20z m97 210l-28-28 45-46-258 0 0-40 258 0-45-46 28-28 94 94z"/>
<glyph glyph-name="mail" unicode="&#123;" d="M494 442l-477 0c-9 0-17-8-17-17l0-337c0-10 8-18 17-18l477 0c10 0 17 8 17 18l0 337c0 9-7 17-17 17z m-17-337l-442 0 0 302 442 0z m-397 221l167-103c2-2 6-2 9-2 3 0 6 0 9 2l166 103c8 5 11 15 6 24-5 8-16 10-24 5l-157-97-158 97c-8 5-19 3-24-5-5-8-2-19 6-24z"/>
<glyph glyph-name="mail-1" unicode="&#124;" d="M49 333c7-4 26-18 59-40 32-23 57-40 74-53 2-1 6-4 13-8 6-5 11-8 15-11 4-3 9-6 15-9 6-4 11-6 16-8 5-2 10-3 15-3l0 0c4 0 9 1 14 3 6 2 11 4 17 8 6 3 11 6 15 9 4 3 9 6 15 11 6 4 10 7 12 8 18 13 62 44 134 93 14 10 25 22 35 35 9 14 14 28 14 43 0 13-5 24-14 33-9 9-20 13-32 13l-420 0c-15 0-26-5-34-15-8-10-12-22-12-37 0-12 5-25 16-39 10-14 21-25 33-33z m434-30c-62-43-110-75-142-99-11-8-20-14-27-18-6-5-15-10-26-14-12-5-22-7-32-7l0 0c-10 0-21 2-32 7-11 4-20 9-27 14-7 4-15 10-26 18-26 19-73 52-142 99-11 7-21 15-29 25l0-227c0-13 4-23 13-32 9-9 20-14 33-14l420 0c13 0 23 5 32 14 9 9 14 19 14 32l0 227c-9-10-18-18-29-25z"/>
<glyph glyph-name="master" unicode="&#125;" d="M257 423c-92 0-166-75-166-167 0-92 74-166 166-166 92 0 166 74 166 166 0 92-74 167-166 167z m-84-289l0 59c0 18 14 33 31 35 24-28 65-32 94-11 4 3 8 7 11 11 18-2 32-17 32-35l0-59c-25-16-53-26-84-26-31 0-59 10-84 26z m186 16l0 43c0 30-24 54-54 54-3 0-6-2-7-4-10-13-25-21-41-21-16 0-31 8-41 21-1 2-4 4-7 4-30 0-54-24-54-54l0-43c-29 27-46 66-46 106 0 82 66 148 148 148 81 0 148-66 148-148 0-40-17-79-46-106z m124 80c2 21 2 42-2 62l26 25c3 3 4 7 2 10l-29 68c-2 3-6 5-9 5l-36-3c-13 17-28 31-45 43l1 36c0 4-3 8-6 9l-68 26c-4 2-8 1-11-2l-23-27c-21 2-42 2-62-2l-25 26c-3 3-7 4-10 2l-67-29c-4-2-6-5-6-9l3-36c-17-13-31-28-43-45l-36 1c-4 0-8-2-9-6l-26-68c-2-4-1-8 2-11l27-23c-2-21-2-41 2-62l-26-25c-3-2-4-7-2-10l29-67c2-4 5-6 9-6l36 3c13-17 28-31 45-43l-1-36c0-4 2-7 6-9l68-26c4-2 8-1 11 2l23 27c21-2 42-1 62 2l25-26c3-3 7-4 10-2l67 29c4 2 6 6 6 10l-3 35c17 13 31 28 43 45l36-1c4 0 7 3 9 6l26 69c2 3 1 7-2 10z m-12-89l-34 1c-3 0-6-1-8-4-13-19-28-35-46-48-2-2-4-5-4-8l3-34-55-24-24 24c-2 3-5 4-8 3-22-4-45-5-67-2-3 1-6 0-8-3l-22-25-56 21 1 34c0 3-2 7-4 8-19 13-35 28-48 46-2 3-5 4-8 4l-34-3-24 55 24 24c2 2 3 5 3 8-4 22-5 45-2 67 1 3-1 6-3 8l-26 22 22 56 34-1c3 0 6 2 8 4 12 19 28 35 46 48 2 2 4 5 4 8l-3 34 55 25 24-25c2-2 5-3 8-3 22 4 45 5 67 2 3 0 6 1 8 3l22 26 56-22-1-34c0-3 1-6 4-8 19-12 35-28 48-46 2-2 5-4 8-3l34 2 24-55-24-24c-2-2-4-5-3-8 4-22 5-44 2-67-1-3 1-6 3-8l25-22z m-214 226c-33 0-59-27-59-60 0-32 26-59 59-59 33 0 59 27 59 59 0 33-26 59-59 60z m0-100c-22 0-41 18-41 40 0 23 19 41 41 41 22 0 40-18 40-41 0-22-18-40-40-40z"/>
<glyph glyph-name="master-set" unicode="&#126;" d="M235 119c-6 0-10-4-10-10l0-5c0-6 4-10 10-10 6 0 11 4 11 10l0 5c0 6-5 10-11 10z m258 80l-31 25c1 11 2 21 2 32 0 11-1 21-2 32l31 25c10 9 13 23 6 34l-43 74c-4 8-13 13-23 13-3 0-6 0-9-1l-38-15c-17 14-35 24-55 32l-6 40c-2 13-13 22-26 22l-86 0c-13 0-24-9-26-22l-6-40c-20-8-38-18-55-32l-38 15c-3 1-6 1-9 1-10 0-19-5-23-13l-43-74c-7-11-4-25 6-34l31-25c-1-11-2-21-2-32 0-11 1-21 2-32l-31-25c-10-9-13-23-6-34l43-74c4-8 13-13 23-13 3 0 6 0 9 1l38 15c17-14 35-24 55-32l6-40c2-13 13-22 26-22l86 0c13 0 24 9 26 22l6 40c20 8 38 18 55 32l38-15c3-1 6-1 9-1 10 0 19 5 23 13l43 74c7 11 4 25-6 34z m-194-178l-53 0 0 49c0 6-5 11-11 11-6 0-10-5-10-11l0-49-11 0 0 114c13-4 28-7 43-7 0 0 0 0 0 0 14 0 29 3 43 7l0-114c-1 0-1 0-1 0z m-42 128l0 0c-59 0-107 48-107 107 0 34 16 66 43 86l0-76c0-4 2-8 5-9l53-32c4-2 8-2 11 0l53 32c4 1 5 5 5 9l0 76c27-20 44-52 44-86 0-29-12-55-32-76-20-20-47-31-75-31z m224 26l-43-74c-1-2-4-3-7-2l-43 16c-4 2-8 1-11-1-17-15-36-26-57-34l0 65c10 6 19 13 27 21 24 24 38 56 38 90 0 48-27 92-70 114-3 1-7 1-10-1-4-2-5-5-5-9l0-89-43-25-43 25 0 89c0 4-2 7-5 9-3 2-7 2-10 1-44-22-70-66-70-114 0-35 13-67 38-91 8-8 17-14 26-20l0-65c-21 8-41 19-58 34-2 1-5 2-7 2-1 0-3 0-4-1l-44-16c0 0-1 0-1 0-2 0-4 1-5 2l-43 74c-1 3-1 6 1 8l36 29c3 3 5 6 4 10-2 11-3 23-3 34 0 11 1 23 3 34 1 4-1 7-4 10l-36 29c-2 2-2 5-1 8l43 74c1 2 4 3 7 2l43-16c4-2 8-1 11 1 17 15 37 27 58 34 4 2 7 5 7 8l8 46c0 3 3 5 5 5l86 0c2 0 5-2 5-5l8-46c0-3 3-6 7-8 21-7 41-19 58-34 3-2 7-3 11-1l44 16c0 0 1 0 1 0 2 0 4-1 5-2l43-74c1-3 1-6-1-8l-36-29c-3-3-5-6-4-10 2-11 3-23 3-34 0-11-1-23-3-34-1-4 1-7 4-10l36-29c2-2 2-5 1-8z"/>
<glyph glyph-name="meeting" unicode="&#92;" d="M382 60l0-34c1-14 12-26 27-26 0 0 0 0 0 0 14 0 26 12 26 26l0 34z m-64 6l0-40c0-14 12-26 27-26 14 0 26 12 26 26l0 34-34 0c-7 0-13 2-19 6z m-172 401c0-25-20-45-45-45-25 0-45 20-45 45 0 25 20 45 45 45 25 0 45-20 45-45z m68-139l-69 8-44 45 42-23 16-1 0 19c0 17-14 30-31 30l-54 0c-17 0-31-13-31-30l0-350c0-14 11-26 26-26 0 0 0 0 0 0 14 0 26 12 26 26l1 193c0 0 0 0 0 0l11 0 0-193c0-14 12-26 26-26 14 0 26 12 26 26 0 233 0 243 0 243l-29 3c-8 1-19 1-25 13l-35 65 50-50c3-3 8-6 13-6l76-9c12-2 22 7 24 19 1 12-7 23-19 24z m207 139c0-25-20-45-45-45-25 0-45 20-45 45 0 25 20 45 45 45 25 0 45-20 45-45z m37-290l-23 0c0 14 0 17 0 33 0 6-5 11-11 11l-4 0c1 8 10 59 11 68 1 3 0 7-1 10l-26 73 2-2 28-42 0 48c0 17-13 30-30 30l-55 0c-16 0-30-13-30-30l0-8-70-40c5-8 7-17 6-27-2-12-8-22-18-29 2 0 3 1 4 1l78 45-1-128c10 7 19 6 23 6l0 14c0 11 7 22 18 27l9 62-3 45-2 14 24-68c-1-7-10-61-11-69l-5 0c-6 0-11-5-11-11 0-16 0-19 0-33l-23 0c-6 0-11-5-11-11l0-76c0-6 5-11 11-11l121 0c6 0 11 5 11 11l0 76c0 6-5 11-11 11z m-64 15c1 0 2 0 3 0 5 0 10 1 13 4l3 0 0-19-31 0 0 19 2 0c3-2 6-3 10-4z"/>
<glyph glyph-name="menu" unicode="&#57344;" d="M22 399l468 0c12 0 22 10 22 22 0 12-10 22-22 22l-468 0c-12 0-22-10-22-22 0-12 10-22 22-22z m0-165l468 0c12 0 22 10 22 22 0 12-10 22-22 22l-468 0c-12 0-22-10-22-22 0-12 10-22 22-22z m0-165l468 0c12 0 22 10 22 22 0 12-10 22-22 22l-468 0c-12 0-22-10-22-22 0-12 10-22 22-22z"/>
<glyph glyph-name="message" unicode="&#57345;" d="M413 239l0 188c0 26-21 47-47 47l-319 0c-26 0-47-21-47-47l0-188c0-27 21-48 47-48l14 0 0-56c0-11 8-19 19-19 5 0 10 2 14 6l60 69 212 0c26 0 47 21 47 48z m-265-22c-4 0-7-2-10-5l-52-59 0 51c0 7-5 13-13 13l-26 0c-12 0-21 10-21 22l0 188c0 11 9 21 21 21l319 0c12 0 21-10 21-21l0-188c0-12-9-22-21-22z m270-172c4-5 9-7 14-7 2 0 5 1 7 1 7 3 12 10 12 18l0 57 14 0c26 0 47 21 47 47l0 188c0 26-21 47-47 47-7 0-13-5-13-12 0-7 6-13 13-13 12 0 21-10 21-22l0-188c0-12-9-21-21-21l-27 0c-7 0-12-6-12-13l0-52-52 60c-3 3-6 4-10 4l-192 0c-8 0-13-5-13-12 0-8 5-13 13-13l186 0z m-196 283c0-8-7-15-16-15-8 0-15 7-15 15 0 8 7 15 15 15 9 0 16-7 16-15z m51 0c0-8-7-15-15-15-9 0-16 7-16 15 0 8 7 15 16 15 8 0 15-7 15-15z m-102 0c0-8-7-15-16-15-8 0-15 7-15 15 0 8 7 15 15 15 9 0 16-7 16-15z"/>
<glyph glyph-name="mobile" unicode="&#57346;" d="M410 40l0 432c0 22-18 40-40 40l-228 0c-22 0-40-18-40-40l0-432c0-22 18-40 40-40l228 0c22 0 40 18 40 40z m-283 380l257 0 0-291-257 0z m15 66l228 0c8 0 15-6 15-14l0-27-258 0 0 27c0 8 7 14 15 14z m-15-446l0 63 257 0 0-63c0-8-6-14-14-14l-228 0c-8 0-15 6-15 14z m155 36l-52 0c-7 0-13-6-13-13 0-7 6-12 13-12l52 0c7 0 13 5 13 12 0 7-6 13-13 13z"/>
<glyph glyph-name="module" unicode="&#57347;" d="M500 512l-488 0c-7 0-12-5-12-12l0-488c0-7 5-12 12-12l488 0c7 0 12 5 12 12l0 488c0 7-5 12-12 12z m-337-489l-140 0 0 466 140 0z m326 0l-302 0 0 221 302 0z m0 245l-302 0 0 221 302 0z"/>
<glyph glyph-name="module1" unicode="&#57348;" d="M489 512l-466 0c-13 0-23-10-23-23l0-466c0-13 10-23 23-23l466 0c13 0 23 10 23 23l0 466c0 13-10 23-23 23z m-175-465l-267 0 0 186 267 0z m0 232l-267 0 0 186 267 0z m151-232l-104 0 0 418 104 0z"/>
<glyph glyph-name="money-bag" unicode="&#57349;" d="M273 191l-29 0c-11 0-19 8-19 19 0 11 8 19 19 19l51 0c8 0 13 6 13 13 0 7-5 13-13 13l-24 0 0 17c0 8-5 13-12 13-7 0-13-5-13-13l0-17-2 0c-25 0-45-20-45-45 0-25 20-45 45-45l29 0c11 0 20-9 20-19 0-11-9-19-20-19l-52 0c-7 0-13-6-13-13 0-7 6-13 13-13l25 0 0-18c0-7 6-13 13-13 7 0 12 6 12 13l0 18 3 0c0 0 0 0 0 0 24 0 44 20 44 45 0 25-20 45-45 45z m178 29c-14 30-32 60-56 88-28 34-56 57-71 68l55 100c2 5 1 12-3 16-14 13-29 20-45 20-15 0-29-6-42-11-9-4-18-8-26-8-2 0-4 1-6 1-25 10-44 15-63 15-24 0-44-9-64-30-4-4-5-11-2-16l59-88c-15-11-42-33-70-67-24-28-42-58-56-88-16-39-25-80-25-121 0-55 45-99 99-99l242 0c54 0 99 44 99 99 0 41-9 82-25 121z m-296 249c13 10 25 15 39 15 15 0 32-5 55-13 4-2 9-3 14-3 13 0 25 5 36 10 11 4 22 9 32 9 5 0 11-1 20-7l-51-95-89 0z m222-443l-242 0c-40 0-73 33-73 73 0 68 25 133 74 192 31 38 63 61 72 68l96 0c9-7 41-30 72-68 49-59 74-124 74-192 0-40-33-73-73-73z"/>
<glyph glyph-name="notification" unicode="&#57350;" d="M477 93c-54 25-57 131-57 133l0 71c0 68-41 127-100 152 0 35-29 63-64 63-35 0-64-28-64-63-59-25-100-84-100-152l0-71c0-2-3-108-57-133-6-2-10-9-8-16 1-6 7-11 14-11l138 0c3-16 10-30 21-42 15-15 35-24 56-24 21 0 41 9 56 24 11 12 18 26 21 42l138 0c7 0 13 5 14 11 2 7-2 14-8 16z m-72 51c6-17 14-35 26-49l-350 0c12 14 20 32 26 49z m-149 339c16 0 29-11 33-25-10 2-22 3-33 3-11 0-23-1-33-3 4 14 17 25 33 25z m-136-257l0 71c0 75 61 136 136 136 75 0 136-61 136-136l0-71c0-2 0-25 6-53l-284 0c6 28 6 51 6 53z m136-197c-22 0-41 16-47 37l94 0c-6-21-25-37-47-37z m0 383c-62 0-113-50-113-112 0-8 7-15 15-15 8 0 14 7 14 15 0 46 38 83 84 83 8 0 14 7 14 15 0 8-6 14-14 14z"/>
<glyph glyph-name="number" unicode="&#57351;" d="M339 157l-25 0c-5 0-8-4-8-8 0-5 3-9 8-9l25 0c4 0 8 4 8 9 0 4-4 8-8 8z m49 0l-25 0c-4 0-8-4-8-8 0-5 4-9 8-9l25 0c5 0 8 4 8 9 0 4-3 8-8 8z m50 0l-25 0c-5 0-8-4-8-8 0-5 3-9 8-9l25 0c4 0 8 4 8 9 0 4-4 8-8 8z m33 355l-430 0c-23 0-41-18-41-41l0-430c0-23 18-41 41-41l430 0c23 0 41 18 41 41l0 430c0 23-18 41-41 41z m24-471c0-13-11-24-24-24l-430 0c-13 0-24 11-24 24l0 430c0 13 11 24 24 24l430 0c13 0 24-11 24-24z m-24 223l-207 0 0 207c0 4-3 8-8 8-5 0-8-4-8-8l0-207-207 0c-4 0-8-3-8-8 0-5 4-8 8-8l207 0 0-207c0-4 3-8 8-8 5 0 8 4 8 8l0 207 207 0c4 0 8 3 8 8 0 5-4 8-8 8z m-359 117l20 20 0-95c0-5 4-9 8-9 5 0 9 4 9 9l0 115c0 3-2 7-5 8-4 1-7 0-9-2l-35-35c-3-3-3-8 0-11 3-3 8-3 12 0z m70-203c-2 21-20 38-42 37-21 1-40-16-41-37 0-5 4-9 8-9 5 0 9 4 9 9 1 12 12 21 24 20 13 1 24-8 25-20-1-13-12-22-25-21-4 0-8-4-8-8 0-5 4-9 8-9 13 1 24-8 25-20-1-13-12-22-25-21-12-1-23 8-24 21 0 4-4 8-9 8-4 0-8-4-8-8 1-22 20-38 41-37 22-1 40 15 42 37 0 11-6 22-16 29 10 6 16 17 16 29z m155 200c4 0 8 4 8 8 0 15 12 27 27 27 8 0 16-4 20-12 5-8 5-18 0-26-12-17-27-33-43-47-6-6-12-11-18-17-2-2-3-6-2-9 2-3 5-5 8-5l68 0c4 0 8 4 8 9 0 4-4 8-8 8l-47 0 2 2c18 15 33 32 46 51 8 13 8 29 1 42-8 13-21 21-35 20-24 0-43-19-43-43 0-4 3-8 8-8z"/>
<glyph glyph-name="passport" unicode="&#57352;" d="M495 173l-63 229 0 0c-1 4-4 6-8 6l-400 0c-4 0-8-4-8-8l0-200 16 0 0 192 384 0 0-208-392 0c-4 0-8-4-8-8l0-40c0-18 14-32 32-32l352 0c18 0 32 14 32 32l0 205 48-172c1-4 0-9-3-12-2-3-6-5-10-5l-19 0 0-16 19 0c9 0 18 4 23 11 6 8 7 17 5 26z m-79-37c0-9-7-16-16-16l-352 0c-9 0-16 7-16 16l0 32 384 0z m-360 16l16 0 0-16-16 0z m32 0l48 0 0-16-48 0z m64 0l48 0 0-16-48 0z m64 0l48 0 0-16-48 0z m64 0l16 0 0-16-16 0z m32 0l16 0 0-16-16 0z m32 0l16 0 0-16-16 0z m32 0l16 0 0-16-16 0z m-200 48c4 0 8 4 8 8l0 144c0 4-4 8-8 8l-120 0c-4 0-8-4-8-8l0-144c0-4 4-8 8-8z m-111 16c3 19 17 34 35 39 3 0 5 3 6 6 1 3 0 6-3 7-4 4-7 10-7 16l0 8c0 11 9 20 20 20 11 0 20-9 20-20l0-8c0-6-3-12-7-16-3-1-4-4-3-7 1-3 3-6 6-6 18-5 32-20 35-39z m-1 128l104 0 0-94c-6 7-13 12-21 16 3 5 5 12 5 18l0 8c0 20-16 36-36 36-20 0-36-16-36-36l0-8c0-6 2-13 5-18-8-4-15-9-21-16z m144-24l80 0 0-16-80 0z m0-32l48 0 0-16-48 0z m0-32l80 0 0-16-80 0z m0-32l80 0 0-16-80 0z m120 96l48 0 0-16-48 0z m0-32l48 0 0-16-48 0z m0-32l48 0 0-16-48 0z m0-32l48 0 0-16-48 0z m-120 128l168 0 0-16-168 0z"/>
<glyph glyph-name="phone" unicode="&#57353;" d="M104 172c51-61 112-108 181-142 26-12 62-27 101-30 3 0 5 0 7 0 27 0 48 9 65 28 0 0 1 0 1 0 6 8 13 15 20 22 5 4 10 9 15 15 23 23 23 53 0 76l-64 64c-11 11-24 17-37 17-14 0-27-6-38-17l-38-38c-3 2-7 3-10 5-5 2-9 4-12 7-35 22-66 50-96 87-15 19-25 35-33 52 10 9 20 18 29 27 3 4 6 7 9 10 12 12 18 25 18 38 0 14-6 27-18 39l-31 31c-4 4-7 8-11 11-7 8-14 15-21 22-11 10-24 16-38 16-13 0-26-6-38-16l-39-40c-15-15-23-32-25-52-2-26 3-53 15-85 19-51 47-97 88-147z m-77 229c2 15 7 26 17 37l40 39c6 6 13 9 19 9 7 0 13-3 19-9 7-7 14-14 21-21 4-4 8-7 11-11l32-32c6-6 10-13 10-20 0-6-4-13-10-20-3-3-7-6-10-10-10-10-19-19-29-28 0 0-1 0-1 0-9-9-7-18-5-24 0 0 0-1 0-1 8-20 20-38 37-60 32-40 66-70 103-94 4-3 9-5 14-7 4-2 8-4 11-7 1 0 1 0 2 0 3-2 7-3 10-3 8 0 14 5 16 7l39 40c7 6 13 9 20 9 8 0 14-5 19-9l64-64c12-13 12-26-1-40-4-5-9-9-14-14-7-7-15-15-22-23-12-13-27-19-46-19-1 0-3 0-5 0-35 2-67 16-92 27-66 32-123 77-172 135-39 48-66 92-83 140-11 29-15 52-14 73z"/>
<glyph glyph-name="pin" unicode="&#57354;" d="M507 257c-25 26-65 39-118 39-12 0-23-1-36-2l-127 121 30 30c6 6 6 15 0 21l-42 42c-6 5-15 5-21 0l-189-189c-5-6-5-15 0-21l43-42c2-3 6-4 10-4 4 0 7 1 10 4l30 30 121-127c-5-50-2-115 37-154 3-3 7-5 10-5 4 0 8 2 11 5l105 105 81-81c3-2 7-4 11-4 3 0 7 2 10 4 5 6 5 15 0 21l-81 81 105 105c6 6 6 15 0 21z m-241-221c-23 34-23 86-19 126 1 4 0 9-3 12l-136 143c-2 3-6 5-10 5 0 0 0 0 0 0-4 0-8-2-11-5l-30-30-22 21 169 169 22-22-31-30c-3-3-5-7-4-11 0-4 1-7 4-10l143-135c3-3 8-5 12-4 13 1 26 2 39 2 37 0 66-7 87-21z"/>
<glyph glyph-name="pincode" unicode="&#57355;" d="M43 26l20 11 0-26 22 0 0 26 20-11 12 20-20 11 20 11-12 20-20-11 0 25-22 0 0-25-20 11-12-20 20-11-20-11z m122 0l20 11 0-26 23 0 0 26 20-11 11 20-20 11 20 11-11 20-20-11 0 25-23 0 0-25-20 11-11-20 20-11-20-11z m125 0l20 11 0-26 23 0 0 26 20-11 11 20-20 11 20 11-11 20-20-11 0 25-23 0 0-25-20 11-11-20 20-11-20-11z m125 0l20 11 0-26 23 0 0 26 20-11 11 20-20 11 20 11-11 20-20-11 0 25-23 0 0-25-20 11-11-20 20-11-20-11z m51 142l-82 0 77 77c8 8 8 20 0 25l-231 231c-8 8-20 8-25 0l-148-148c-9-9-9-20 0-26l162-162-168 0c-8 0-17-9-17-17 0-9 9-17 17-17l415 0c9 0 18 8 18 17 0 8-6 20-18 20z m-73 122l-117 26-26 116z m-296 54l108 108 34-156c0-3 3-6 6-9 2-3 5-5 8-5l157-35-77-76-60 0z"/>
<glyph glyph-name="placeholder" unicode="&#57356;" d="M256 512c-113 0-205-92-205-205 0-13 1-26 3-39 0-1 1-3 2-7 3-13 7-27 13-40 23-52 71-132 178-218 3-2 6-3 9-3 3 0 6 1 9 3 107 86 155 166 178 218 6 13 10 26 13 40 1 4 2 6 2 7 2 13 3 26 3 39 0 113-92 205-205 205z m173-239c0 0 0 0 0 0 0-1-1-3-1-5 0 0 0 0 0 0-3-12-7-24-12-35 0 0 0-1 0-1-20-47-64-120-160-199-96 79-140 152-160 199 0 0 0 1 0 1-5 11-9 23-12 35 0 0 0 0 0 0-1 2-1 4-1 5 0 0 0 0 0 0-2 11-3 23-3 34 0 97 79 176 176 176 97 0 176-79 176-176 0-12-1-23-3-34z m-173 162c-72 0-130-59-130-130 0-72 58-131 130-131 72 0 130 59 130 131 0 71-58 130-130 130z m0-232c-56 0-101 46-101 102 0 55 45 101 101 101 56 0 101-46 101-101 0-56-45-102-101-102z"/>
<glyph glyph-name="product" unicode="&#57357;" d="M491 391c0 2 0 4-1 6-2 4-5 6-9 7l-220 107c-3 1-7 1-11 0l-222-108c-5-2-7-6-8-11l0 0c0 0 0-1 0-1l0-270c0-5 3-10 8-12l222-108c0 0 0 0 0 0 0 0 1 0 1 0 0 0 0 0 1 0 0 0 0 0 1-1 0 0 0 0 0 0 0 0 1 0 1 0 0 0 0 0 0 0 1 0 1 0 2 0 0 0 1 0 1 0 0 0 0 0 0 0 1 0 1 0 1 0 1 0 1 0 1 0 0 1 0 1 1 1 0 0 0 0 0 0 1 0 1 0 1 0 0 0 0 0 0 0l223 108c5 3 8 7 8 12l0 270c-1 0-1 0-1 0z m-235 94l192-94-71-34-192 93z m0-187l-193 93 92 45 193-94z m-210 72l197-95 0-241-197 95z m223-336l0 241 92 45 0-63c0-7 6-13 13-13 7 0 13 6 13 13l0 76 79 38 0-242z"/>
<glyph glyph-name="reason" unicode="&#57358;" d="M276 20c0-11-9-20-20-20-11 0-20 9-20 20 0 11 9 20 20 20 11 0 20-9 20-20z m137 336c-1 86-71 156-157 156-87 0-157-70-157-157 0-11 9-20 20-20 11 0 20 9 20 20 0 65 52 117 117 117 64 0 117-52 117-117 0 0 0-1 0-1 0-47-28-88-71-107-40-17-66-56-66-101l0-46c0-11 9-20 20-20 11 0 20 9 20 20l0 46c0 29 16 54 42 64 58 25 95 82 95 145 0 0 0 1 0 1z"/>
</font>
</defs>
</svg>
