<svg xmlns="http://www.w3.org/2000/svg" width="282.228" height="51.311" viewBox="0 0 282.228 51.311">
  <g id="sf-logo" transform="translate(-0.6 -4.989)">
    <g id="XMLID_106_" transform="translate(0.6 5.3)">
      <g id="XMLID_113_" transform="translate(64.411 1.511)">
        <path id="XMLID_135_" d="M69.367,34.539a17.938,17.938,0,0,0,6.894,1.322c3.211,0,6.044-1.039,6.044-3.683,0-5.572-13.033-1.889-13.033-9.728,0-4.25,3.683-5.95,8.028-5.95a14.987,14.987,0,0,1,6.989,1.7l-.567,2.172a13.508,13.508,0,0,0-6.233-1.511c-2.928,0-5.478,1.039-5.478,3.589,0,5.572,13.033,1.794,13.033,9.633,0,4.533-4.25,6.044-8.689,6.044A18.57,18.57,0,0,1,68.8,36.617Z" transform="translate(-68.8 -7.433)" fill="#fff"/>
        <path id="XMLID_132_" d="M106.861,37.189a28.862,28.862,0,0,1-8.122,1.228c-5.761,0-9.539-1.889-9.539-6.517,0-5.1,4.344-6.517,9.728-6.517h5.289V24.156c0-4.25-2.456-5.478-6.233-5.478A19.835,19.835,0,0,0,90.806,20l-.661-2.078a23.541,23.541,0,0,1,7.65-1.322c5.1,0,8.972,1.889,8.972,7.65V37.189Zm-2.739-10.011H99.306c-3.872,0-7.367.944-7.367,4.628,0,3.022,2.456,4.533,6.894,4.533a19.806,19.806,0,0,0,5.289-.661Z" transform="translate(-69.933 -7.439)" fill="#fff"/>
        <path id="XMLID_130_" d="M113.1,8.3h2.644V31.344c0,3.494,1.039,4.25,2.739,4.25a4.224,4.224,0,0,0,2.078-.472l.567,2.078a7.267,7.267,0,0,1-3.117.661c-2.833,0-4.911-1.511-4.911-6.328Z" transform="translate(-71.261 -6.978)" fill="#fff"/>
        <path id="XMLID_127_" d="M142.039,28.411H125.228c0,5.572,3.872,7.839,8.689,7.839a15.922,15.922,0,0,0,6.894-1.417l.661,2.078a17.988,17.988,0,0,1-7.744,1.606c-6.328,0-11.428-2.928-11.428-11.05,0-7.933,4.817-10.767,10.2-10.767,5.572,0,9.539,3.022,9.539,10.011A5.1,5.1,0,0,1,142.039,28.411Zm-14.922-1.889H139.3c0-5.856-2.833-7.839-6.706-7.839-3.683,0-7.367,1.983-7.367,7.744Z" transform="translate(-71.772 -7.444)" fill="#fff"/>
        <path id="XMLID_125_" d="M147.067,34.539a17.938,17.938,0,0,0,6.894,1.322c3.211,0,6.044-1.039,6.044-3.683,0-5.572-13.033-1.889-13.033-9.728,0-4.25,3.683-5.95,8.028-5.95a14.987,14.987,0,0,1,6.989,1.7l-.567,2.172a12.493,12.493,0,0,0-6.233-1.606c-2.928,0-5.478,1.039-5.478,3.589,0,5.572,13.033,1.794,13.033,9.728,0,4.533-4.25,6.044-8.689,6.044a18.57,18.57,0,0,1-7.556-1.511Z" transform="translate(-73.117 -7.433)" fill="#fff"/>
        <path id="XMLID_123_" d="M166.6,16.533l3.967-.472V14.833c0-5.856,3.306-7.933,7.933-7.933a19.049,19.049,0,0,1,5.478.85l-.661,3.589a13.515,13.515,0,0,0-3.683-.661c-2.456,0-3.967.944-3.967,4.061v1.228h7.461v3.778h-7.461V37.217h-5.1V19.933H166.6v-3.4Z" transform="translate(-74.233 -6.9)" fill="#fff"/>
        <path id="XMLID_120_" d="M197.305,16c5.95,0,11.806,3.117,11.806,11.239s-5.856,11.144-11.806,11.144c-6.044,0-11.806-3.022-11.806-11.144C185.405,19.117,191.261,16,197.305,16Zm0,3.872c-3.117,0-6.611,1.794-6.611,7.367s3.494,7.367,6.611,7.367c3.022,0,6.517-1.794,6.517-7.367C203.822,21.572,200.328,19.872,197.305,19.872Z" transform="translate(-75.283 -7.406)" fill="#fff"/>
        <path id="XMLID_118_" d="M214.2,7.7h5.1V26.022l9.633-9.917h6.328L226.572,24.7l9.539,12.656h-5.95l-6.706-9.35L219.3,31.972v5.383h-5.1Z" transform="translate(-76.878 -6.944)" fill="#fff"/>
        <path id="XMLID_116_" d="M260.683,36.722a27.536,27.536,0,0,1-10.106,1.7c-5.572,0-10.578-1.983-10.578-8.783V16.7h5.1V29.45c0,4.628,2.739,5.289,5.478,5.289a12.778,12.778,0,0,0,5.006-.944V16.7h5.1Z" transform="translate(-78.311 -7.444)" fill="#fff"/>
        <path id="XMLID_114_" d="M265.983,16.7h19.361l.567,3.778L272.689,34.172h13.222V37.95H266.267l-.567-3.778,13.317-13.694H265.983Z" transform="translate(-79.739 -7.444)" fill="#fff"/>
      </g>
      <g id="XMLID_107_">
        <path id="XMLID_35_" d="M22.133,58.294A24.43,24.43,0,0,1,15.9,56.122L24.589,41.2H30.35l8.689,14.922a28.682,28.682,0,0,1-6.233,2.172l-5.383-9.256Z" transform="translate(-1.45 -7.294)" fill="#ed2940"/>
        <path id="XMLID_34_" d="M35.6,37.561l1.794-5.478L54.3,28.4a26.409,26.409,0,0,1,.283,3.778c0,.85-.094,1.794-.189,2.739L43.911,37.183l7.083,7.933a26.987,26.987,0,0,1-3.967,5.194Z" transform="translate(-2.544 -6.583)" fill="#ed2940"/>
        <path id="XMLID_33_" d="M30.9,22.489,32.694,5.3a30.4,30.4,0,0,1,6.328,1.889L37.983,17.861l9.633-4.344A24,24,0,0,1,51.394,18.9L35.622,25.889Z" transform="translate(-2.283 -5.3)" fill="#ed2940"/>
        <path id="XMLID_32_" d="M3.8,18.9a24,24,0,0,1,3.778-5.383l9.728,4.344L16.172,7.189A24.46,24.46,0,0,1,22.5,5.3l1.794,17.189-4.722,3.4Z" transform="translate(-0.778 -5.3)" fill="#ed2940"/>
        <path id="XMLID_31_" d="M8.061,50.406a30.243,30.243,0,0,1-3.967-5.194l7.083-7.933L.789,34.917C.694,33.972.6,33.028.6,32.178A25.433,25.433,0,0,1,.883,28.4l16.906,3.683,1.794,5.478Z" transform="translate(-0.6 -6.583)" fill="#ed2940"/>
      </g>
    </g>
    <g id="XMLID_58_" transform="translate(65.106 42.983)">
      <path id="XMLID_104_" d="M77.211,46.6v.944H73.622V57.839H72.489V47.544H68.9V46.6Z" transform="translate(-68.9 -45.278)" fill="#fff"/>
      <path id="XMLID_102_" d="M81.833,49.4a2.912,2.912,0,0,1,.944.094c.283.094.567.094.661.189l-.189.944a3.34,3.34,0,0,0-.567-.094,3.23,3.23,0,0,0-1.039-.094,3.892,3.892,0,0,0-1.133.094c-.283.094-.472.094-.567.189v7.367H79V49.967a7.875,7.875,0,0,1,1.133-.378A8.471,8.471,0,0,1,81.833,49.4Z" transform="translate(-69.461 -45.433)" fill="#fff"/>
      <path id="XMLID_99_" d="M87.911,49.389a5.716,5.716,0,0,1,1.417.189,3.392,3.392,0,0,1,.944.661,1.8,1.8,0,0,1,.472.944,4.785,4.785,0,0,1,.189,1.228V57.7a4.09,4.09,0,0,1-.472.094c-.189,0-.472.094-.756.094s-.567.094-.944.094H87.722a4.785,4.785,0,0,1-1.228-.189,2.954,2.954,0,0,1-.944-.472,2.057,2.057,0,0,1-.661-.85,2.407,2.407,0,0,1-.189-1.228,2.014,2.014,0,0,1,.283-1.133,1.933,1.933,0,0,1,.756-.756,3.152,3.152,0,0,1,1.133-.472,7.291,7.291,0,0,1,1.417-.189h.472a.851.851,0,0,1,.472.094c.189,0,.283.094.378.094a.33.33,0,0,1,.189.094v-.472a2.615,2.615,0,0,0-.094-.85,1.072,1.072,0,0,0-.283-.756,4.107,4.107,0,0,0-.661-.567,2.915,2.915,0,0,0-1.039-.189,5.838,5.838,0,0,0-1.417.094,3.85,3.85,0,0,1-.661.189l-.189-.944a4.391,4.391,0,0,1,.85-.283A4.678,4.678,0,0,0,87.911,49.389Zm.094,7.744h1.039c.283,0,.567-.094.756-.094V54.111c-.094-.094-.283-.094-.567-.189a3.541,3.541,0,0,0-1.039-.094,2.615,2.615,0,0,0-.85.094,1.072,1.072,0,0,0-.756.283.967.967,0,0,0-.567.472c-.189.189-.189.472-.189.85a1.779,1.779,0,0,0,.189.756,1.138,1.138,0,0,0,.472.472,4.605,4.605,0,0,0,.661.283A2.1,2.1,0,0,0,88.006,57.133Z" transform="translate(-69.778 -45.422)" fill="#fff"/>
      <path id="XMLID_97_" d="M97.567,58.083a4.575,4.575,0,0,1-1.7-.283,2.876,2.876,0,0,1-1.228-.85,5.006,5.006,0,0,1-.756-1.417,5.824,5.824,0,0,1,0-3.589,5.005,5.005,0,0,1,.756-1.417,6.064,6.064,0,0,1,1.228-.944,3.053,3.053,0,0,1,1.606-.283,4.989,4.989,0,0,1,1.228.094c.378.094.661.189.944.283l-.283.944a6.507,6.507,0,0,0-.756-.283,3.541,3.541,0,0,0-1.039-.094,2.322,2.322,0,0,0-2.078.944,3.735,3.735,0,0,0-.756,2.55,5.574,5.574,0,0,0,.189,1.322,2.251,2.251,0,0,0,.567,1.039,2.159,2.159,0,0,0,.944.661,3.154,3.154,0,0,0,1.417.283,3.522,3.522,0,0,0,1.133-.189,2.256,2.256,0,0,0,.661-.283l.189.944a3.828,3.828,0,0,1-.944.283A2.25,2.25,0,0,1,97.567,58.083Z" transform="translate(-70.272 -45.428)" fill="#fff"/>
      <path id="XMLID_95_" d="M104.078,53.133a10,10,0,0,1,1.133.944l1.133,1.133a11.965,11.965,0,0,1,1.039,1.228,7.276,7.276,0,0,1,.85,1.228h-1.228a13.815,13.815,0,0,0-.85-1.228c-.378-.378-.661-.756-1.039-1.133a10,10,0,0,0-1.133-.944,4.36,4.36,0,0,0-.944-.661v4.061H102V45.389l1.039-.189v7.839a7.719,7.719,0,0,1,.85-.756l1.039-1.039.944-.944a6.11,6.11,0,0,0,.756-.85h1.322l-.85.85a10.341,10.341,0,0,1-1.039.944l-1.039,1.039A8.516,8.516,0,0,1,104.078,53.133Z" transform="translate(-70.739 -45.2)" fill="#fff"/>
      <path id="XMLID_93_" d="M134.706,58.022a4.38,4.38,0,0,1-1.983-.378,4.939,4.939,0,0,1-1.606-1.133,4.281,4.281,0,0,1-1.039-1.794,7.043,7.043,0,0,1-.378-2.456,6.689,6.689,0,0,1,.472-2.456,4.875,4.875,0,0,1,1.133-1.794,6.2,6.2,0,0,1,1.606-1.133,4.932,4.932,0,0,1,1.983-.378,4.234,4.234,0,0,1,1.133.094c.378.094.661.094.944.189a4.6,4.6,0,0,1,.661.283c.189.094.283.189.378.189l-.378.944a5.5,5.5,0,0,0-1.039-.472,3.682,3.682,0,0,0-1.511-.189,3.868,3.868,0,0,0-3.117,1.417,3.272,3.272,0,0,0-.756,1.511,7.084,7.084,0,0,0,0,3.967,5.645,5.645,0,0,0,.756,1.511,3.9,3.9,0,0,0,1.228.944,4.511,4.511,0,0,0,1.7.378,8.692,8.692,0,0,0,1.794-.189,7.874,7.874,0,0,0,1.133-.378l.283.944c-.094.094-.189.094-.378.189a1.365,1.365,0,0,1-.661.189c-.283.094-.567.094-.944.189A3.671,3.671,0,0,0,134.706,58.022Z" transform="translate(-72.278 -45.272)" fill="#fff"/>
      <path id="XMLID_90_" d="M147.556,53.744a5.5,5.5,0,0,1-.283,1.794,5.005,5.005,0,0,1-.756,1.417,3.594,3.594,0,0,1-1.228.85,4.171,4.171,0,0,1-3.022,0,3.594,3.594,0,0,1-1.228-.85,3.406,3.406,0,0,1-.756-1.417,5.824,5.824,0,0,1,0-3.589,5.005,5.005,0,0,1,.756-1.417,3.594,3.594,0,0,1,1.228-.85,4.171,4.171,0,0,1,3.022,0,3.594,3.594,0,0,1,1.228.85,3.406,3.406,0,0,1,.756,1.417A5.5,5.5,0,0,1,147.556,53.744Zm-1.039,0a3.809,3.809,0,0,0-.756-2.456,2.555,2.555,0,0,0-3.967,0,4,4,0,0,0-.756,2.456,3.809,3.809,0,0,0,.756,2.456,2.555,2.555,0,0,0,3.967,0A3.809,3.809,0,0,0,146.517,53.744Z" transform="translate(-72.85 -45.433)" fill="#fff"/>
      <path id="XMLID_88_" d="M150.5,49.872a12.321,12.321,0,0,1,1.228-.283,10.853,10.853,0,0,1,1.983-.189,4.07,4.07,0,0,1,1.606.283,2.96,2.96,0,0,1,1.039.756,2.473,2.473,0,0,1,.567,1.228,8.317,8.317,0,0,1,.189,1.606v4.722h-1.039V53.65a7.166,7.166,0,0,0-.094-1.511A3.384,3.384,0,0,0,155.6,51.1a1.469,1.469,0,0,0-.756-.567,3.522,3.522,0,0,0-1.133-.189,5.808,5.808,0,0,0-1.322.094c-.378.094-.567.094-.661.189v7.367h-1.039V49.872Z" transform="translate(-73.433 -45.433)" fill="#fff"/>
      <path id="XMLID_86_" d="M160.2,49.872a12.32,12.32,0,0,1,1.228-.283,10.853,10.853,0,0,1,1.983-.189,4.07,4.07,0,0,1,1.606.283,2.96,2.96,0,0,1,1.039.756,2.473,2.473,0,0,1,.567,1.228,8.317,8.317,0,0,1,.189,1.606v4.722h-1.133V53.65a7.166,7.166,0,0,0-.094-1.511,3.383,3.383,0,0,0-.378-1.039,1.469,1.469,0,0,0-.756-.567,3.523,3.523,0,0,0-1.133-.189,5.808,5.808,0,0,0-1.322.094c-.378.094-.567.094-.661.189v7.367h-1.039V49.872Z" transform="translate(-73.972 -45.433)" fill="#fff"/>
      <path id="XMLID_83_" d="M169.4,53.744a5.306,5.306,0,0,1,.283-1.889,2.687,2.687,0,0,1,.85-1.322,4.439,4.439,0,0,1,1.133-.85,3.333,3.333,0,0,1,1.322-.283,3.131,3.131,0,0,1,2.456,1.039,4.713,4.713,0,0,1,.944,3.117v.567h-5.856a3.534,3.534,0,0,0,.756,2.361,2.789,2.789,0,0,0,2.267.85,4.378,4.378,0,0,0,1.322-.189,3.2,3.2,0,0,0,.756-.283l.189.944a4.391,4.391,0,0,1-.85.283,6.572,6.572,0,0,1-1.511.189,5.679,5.679,0,0,1-1.889-.283,3.132,3.132,0,0,1-1.322-.944,3.406,3.406,0,0,1-.756-1.417C169.494,54.972,169.4,54.406,169.4,53.744Zm5.95-.661a3.052,3.052,0,0,0-.661-2.078,2.017,2.017,0,0,0-1.606-.756,3.4,3.4,0,0,0-1.039.189,5.24,5.24,0,0,0-.756.567,3.828,3.828,0,0,0-.472.85,4.017,4.017,0,0,0-.189,1.039h4.722Z" transform="translate(-74.483 -45.433)" fill="#fff"/>
      <path id="XMLID_81_" d="M182.767,58.083a4.575,4.575,0,0,1-1.7-.283,2.876,2.876,0,0,1-1.228-.85,5.005,5.005,0,0,1-.756-1.417,5.824,5.824,0,0,1,0-3.589,5.006,5.006,0,0,1,.756-1.417,6.063,6.063,0,0,1,1.228-.944,4.412,4.412,0,0,1,1.606-.283,4.989,4.989,0,0,1,1.228.094c.378.094.661.189.944.283l-.283.944a6.507,6.507,0,0,0-.756-.283,3.541,3.541,0,0,0-1.039-.094,2.322,2.322,0,0,0-2.078.944,3.908,3.908,0,0,0-.756,2.55,5.575,5.575,0,0,0,.189,1.322,2.251,2.251,0,0,0,.567,1.039,2.159,2.159,0,0,0,.944.661,3.154,3.154,0,0,0,1.417.283,3.523,3.523,0,0,0,1.133-.189,2.257,2.257,0,0,0,.661-.283l.189.944a3.828,3.828,0,0,1-.944.283A2.108,2.108,0,0,1,182.767,58.083Z" transform="translate(-75.006 -45.428)" fill="#fff"/>
      <path id="XMLID_79_" d="M188.244,49.444h3.306v.85h-3.306v4.439a3.892,3.892,0,0,0,.094,1.133c.094.283.189.567.378.661a.816.816,0,0,0,.567.283,1.841,1.841,0,0,0,.756.094,2.915,2.915,0,0,0,1.039-.189,4.6,4.6,0,0,0,.661-.283l.283.85-.756.378a4.785,4.785,0,0,1-1.228.189,5.574,5.574,0,0,1-1.322-.189,1.507,1.507,0,0,1-.85-.661,3.492,3.492,0,0,1-.472-1.039,6.253,6.253,0,0,1-.094-1.417V46.989l1.039-.189v2.644Z" transform="translate(-75.478 -45.289)" fill="#fff"/>
      <path id="XMLID_76_" d="M220.983,57.844c-.189-.567-.378-1.039-.567-1.606a9.284,9.284,0,0,1-.472-1.511h-5.478c-.189.472-.378.944-.567,1.511-.189.472-.378,1.039-.567,1.606H212.2c.472-1.133.85-2.267,1.228-3.306s.756-1.983,1.133-2.833c.378-.944.756-1.794,1.039-2.55.378-.85.756-1.7,1.133-2.456h.944c.378.85.756,1.7,1.133,2.456.378.85.756,1.7,1.039,2.55l1.133,2.833c.378,1.039.756,2.078,1.228,3.306Zm-3.872-10.011c-.378.944-.756,1.889-1.228,2.833-.378.944-.756,1.983-1.228,3.117h4.817c-.378-1.133-.85-2.172-1.228-3.117C217.961,49.722,217.489,48.778,217.111,47.833Z" transform="translate(-76.861 -45.283)" fill="#fff"/>
      <path id="XMLID_74_" d="M230.811,57.622a12.321,12.321,0,0,1-1.228.283,10.853,10.853,0,0,1-1.983.189,4.07,4.07,0,0,1-1.606-.283,4.194,4.194,0,0,1-1.039-.756,2.927,2.927,0,0,1-.567-1.228,8.317,8.317,0,0,1-.189-1.606V49.5h1.039v4.344a7.166,7.166,0,0,0,.094,1.511,3.384,3.384,0,0,0,.378,1.039,1.469,1.469,0,0,0,.756.567,3.522,3.522,0,0,0,1.133.189,5.808,5.808,0,0,0,1.322-.094c.378-.094.567-.094.661-.189V49.5h1.039v8.122Z" transform="translate(-77.528 -45.439)" fill="#fff"/>
      <path id="XMLID_72_" d="M235.144,49.444h3.306v.85h-3.306v4.439a3.892,3.892,0,0,0,.094,1.133c.094.283.189.567.378.661a.816.816,0,0,0,.567.283,1.841,1.841,0,0,0,.756.094,2.915,2.915,0,0,0,1.039-.189,4.6,4.6,0,0,0,.661-.283l.283.85-.756.378a4.785,4.785,0,0,1-1.228.189,5.574,5.574,0,0,1-1.322-.189,1.507,1.507,0,0,1-.85-.661,3.492,3.492,0,0,1-.472-1.039,6.253,6.253,0,0,1-.094-1.417V46.989l1.039-.189v2.644Z" transform="translate(-78.083 -45.289)" fill="#fff"/>
      <path id="XMLID_69_" d="M247.956,53.744a5.5,5.5,0,0,1-.283,1.794,5.006,5.006,0,0,1-.756,1.417,3.594,3.594,0,0,1-1.228.85,4.171,4.171,0,0,1-3.022,0,3.594,3.594,0,0,1-1.228-.85,3.406,3.406,0,0,1-.756-1.417,5.824,5.824,0,0,1,0-3.589,5.005,5.005,0,0,1,.756-1.417,3.594,3.594,0,0,1,1.228-.85,4.171,4.171,0,0,1,3.022,0,3.594,3.594,0,0,1,1.228.85,3.406,3.406,0,0,1,.756,1.417A5.5,5.5,0,0,1,247.956,53.744Zm-1.133,0a3.809,3.809,0,0,0-.756-2.456,2.555,2.555,0,0,0-3.967,0,4,4,0,0,0-.756,2.456A3.809,3.809,0,0,0,242.1,56.2a2.555,2.555,0,0,0,3.967,0A3.809,3.809,0,0,0,246.822,53.744Z" transform="translate(-78.428 -45.433)" fill="#fff"/>
      <path id="XMLID_67_" d="M250.794,49.872a12.32,12.32,0,0,1,1.228-.283,10.022,10.022,0,0,1,1.983-.189,2.568,2.568,0,0,1,2.267.944c.094,0,.189-.094.283-.189l.567-.283a8.916,8.916,0,0,1,.85-.283,3.541,3.541,0,0,1,1.039-.094,3.311,3.311,0,0,1,1.511.283,3.7,3.7,0,0,1,.944.756,4.744,4.744,0,0,1,.472,1.228,8.124,8.124,0,0,1,.094,1.511v4.722h-1.039V53.65a6.253,6.253,0,0,0-.094-1.417c-.094-.378-.189-.756-.283-1.039a1.27,1.27,0,0,0-.661-.567,3.4,3.4,0,0,0-1.039-.189,2.345,2.345,0,0,0-.85.094,6.021,6.021,0,0,0-.661.189,2.064,2.064,0,0,0-.472.283c-.094.094-.189.189-.283.189a2.794,2.794,0,0,1,.189.944,4.6,4.6,0,0,1,.094,1.133v4.722h-1.039V53.65a6.253,6.253,0,0,0-.094-1.417c-.094-.378-.189-.756-.283-1.039a1.27,1.27,0,0,0-.661-.567,3.523,3.523,0,0,0-1.133-.189,5.808,5.808,0,0,0-1.322.094c-.378.094-.567.094-.661.189v7.367H250.7V49.872Z" transform="translate(-79 -45.433)" fill="#fff"/>
      <path id="XMLID_64_" d="M268.111,49.389a5.716,5.716,0,0,1,1.417.189,3.392,3.392,0,0,1,.944.661,1.8,1.8,0,0,1,.472.944,4.785,4.785,0,0,1,.189,1.228V57.7a4.09,4.09,0,0,1-.472.094c-.189,0-.472.094-.756.094s-.567.094-.944.094h-1.039a4.785,4.785,0,0,1-1.228-.189,2.954,2.954,0,0,1-.944-.472,2.057,2.057,0,0,1-.661-.85,2.407,2.407,0,0,1-.189-1.228,2.014,2.014,0,0,1,.283-1.133,1.933,1.933,0,0,1,.756-.756,3.152,3.152,0,0,1,1.133-.472,7.291,7.291,0,0,1,1.417-.189h.472a.851.851,0,0,1,.472.094c.189,0,.283.094.378.094a.33.33,0,0,1,.189.094v-.472a2.615,2.615,0,0,0-.094-.85,1.072,1.072,0,0,0-.283-.756,4.107,4.107,0,0,0-.661-.567,2.915,2.915,0,0,0-1.039-.189,5.838,5.838,0,0,0-1.417.094,3.849,3.849,0,0,1-.661.189l-.189-.944a4.39,4.39,0,0,1,.85-.283A4.679,4.679,0,0,0,268.111,49.389Zm.094,7.744h1.039c.283,0,.567-.094.756-.094V54.111c-.094-.094-.283-.094-.567-.189a3.541,3.541,0,0,0-1.039-.094,2.615,2.615,0,0,0-.85.094,1.072,1.072,0,0,0-.756.283.967.967,0,0,0-.567.472c-.189.189-.189.472-.189.85a1.779,1.779,0,0,0,.189.756,1.138,1.138,0,0,0,.472.472,4.6,4.6,0,0,0,.661.283A2.1,2.1,0,0,0,268.206,57.133Z" transform="translate(-79.789 -45.422)" fill="#fff"/>
      <path id="XMLID_62_" d="M275.244,49.444h3.306v.85h-3.306v4.439a3.892,3.892,0,0,0,.094,1.133c.094.283.189.567.378.661a.816.816,0,0,0,.567.283,1.841,1.841,0,0,0,.756.094,2.915,2.915,0,0,0,1.039-.189,4.605,4.605,0,0,0,.661-.283l.283.85-.756.378a4.785,4.785,0,0,1-1.228.189,5.574,5.574,0,0,1-1.322-.189,1.507,1.507,0,0,1-.85-.661,3.491,3.491,0,0,1-.472-1.039,6.253,6.253,0,0,1-.094-1.417V46.989l1.039-.189v2.644Z" transform="translate(-80.311 -45.289)" fill="#fff"/>
      <path id="XMLID_59_" d="M280.4,53.744a5.306,5.306,0,0,1,.283-1.889,2.687,2.687,0,0,1,.85-1.322,4.44,4.44,0,0,1,1.133-.85,3.333,3.333,0,0,1,1.322-.283,3.131,3.131,0,0,1,2.456,1.039,4.713,4.713,0,0,1,.944,3.117v.567h-5.856a3.534,3.534,0,0,0,.756,2.361,2.789,2.789,0,0,0,2.267.85,4.378,4.378,0,0,0,1.322-.189,3.2,3.2,0,0,0,.756-.283l.189.944a4.39,4.39,0,0,1-.85.283,6.572,6.572,0,0,1-1.511.189,5.68,5.68,0,0,1-1.889-.283,3.132,3.132,0,0,1-1.322-.944,3.406,3.406,0,0,1-.756-1.417C280.494,54.972,280.4,54.406,280.4,53.744Zm5.95-.661a3.052,3.052,0,0,0-.661-2.078,2.017,2.017,0,0,0-1.606-.756,3.4,3.4,0,0,0-1.039.189,5.239,5.239,0,0,0-.756.567,3.829,3.829,0,0,0-.472.85,3.4,3.4,0,0,0-.189,1.039h4.722Z" transform="translate(-80.65 -45.433)" fill="#fff"/>
    </g>
    <circle id="XMLID_3_" cx="5.1" cy="5.1" r="5.1" transform="translate(272.128 5.489)" fill="none" stroke="#fff" stroke-miterlimit="10" stroke-width="1"/>
    <g id="XMLID_52_" transform="translate(273.639 8.983)">
      <path id="XMLID_55_" d="M292.439,9.3v.567H291.4V12.7h-.661V9.867H289.7V9.3Z" transform="translate(-289.7 -9.206)" fill="#fff"/>
      <path id="XMLID_53_" d="M293.85,9.294a2.063,2.063,0,0,1,.283.472l.283.567.283.567.283.567.283-.567.283-.567.283-.567a2.066,2.066,0,0,1,.283-.472h.567c0,.283.094.472.094.756s.094.567.094.85a2.615,2.615,0,0,0,.094.85,2.615,2.615,0,0,0,.094.85h-.567a5.385,5.385,0,0,0-.094-1.228,5.385,5.385,0,0,0-.094-1.228c0,.094-.094.189-.094.283-.094.094-.094.189-.189.378-.094.094-.094.283-.189.378s-.094.283-.189.378-.094.283-.189.378c0,.094-.094.189-.094.283h-.472c0-.094-.094-.189-.094-.283s-.094-.189-.189-.378c-.094-.094-.094-.283-.189-.378s-.094-.283-.189-.378-.094-.189-.189-.378a.347.347,0,0,1-.094-.283c0,.378-.094.756-.094,1.228a5.385,5.385,0,0,1-.094,1.228H293a2.615,2.615,0,0,1,.094-.85,3.543,3.543,0,0,1,.094-.944,2.615,2.615,0,0,1,.094-.85c0-.283.094-.567.094-.756h.472Z" transform="translate(-289.883 -9.2)" fill="#fff"/>
    </g>
  </g>
</svg>
